<?xml version="1.0" standalone="no"?>
<!DOCTYPE svg PUBLIC "-//W3C//DTD SVG 1.1//EN" "http://www.w3.org/Graphics/SVG/1.1/DTD/svg11.dtd" >
<svg>
<metadata>
Created by FontForge 20090622 at Sun Sep 25 08:15:55 2016
 By deploy user
Copyright (c) 2016 by M&#195;&#130;ns Greb&#226;&#128;&#176;ck. All rights reserved.
</metadata>
<defs>
<font id="FalkinSansPERSONAL" horiz-adv-x="128" >
  <font-face 
    font-family="Falkin Sans PERSONAL"
    font-weight="400"
    font-stretch="normal"
    units-per-em="1000"
    panose-1="0 0 0 0 0 0 0 0 0 0"
    ascent="750"
    descent="-250"
    x-height="578"
    cap-height="666"
    bbox="-46 -231 1265.45 828"
    underline-thickness="50"
    underline-position="-50"
    unicode-range="U+000D-U+FB02"
  />
<missing-glyph horiz-adv-x="219" 
 />
    <glyph glyph-name="fi" unicode="fi" horiz-adv-x="282" 
d="M84 401h50v-25h-50v-97t-0.5 -109.5t-0.5 -100.5v-69h-38v376h-25v25h25v140q0 25 4.5 51t19.5 50q6 10 13.5 17t15.5 12q13 8 35 8v-25q-11 0 -21 -7q-11 -7 -16.5 -19t-8 -26.5t-3 -30.5t-0.5 -30v-140zM199 0v578h37v-578h-37zM218 623q-11 0 -19 7.5t-8 18.5t8 18.5
t19 7.5t18 -7.5t7 -18.5t-7 -18.5t-18 -7.5z" />
    <glyph glyph-name="fl" unicode="fl" horiz-adv-x="282" 
d="M84 401h50v-25h-50v-97t-0.5 -109.5t-0.5 -100.5v-69h-38v376h-25v25h25v140q0 25 4.5 51t19.5 50q6 10 13.5 17t15.5 12q13 8 35 8v-25q-11 0 -21 -7q-11 -7 -16.5 -19t-8 -26.5t-3 -30.5t-0.5 -30v-140zM199 0v700h38v-700h-38z" />
    <glyph glyph-name=".notdef" horiz-adv-x="219" 
 />
    <glyph glyph-name="NULL" horiz-adv-x="0" 
 />
    <glyph glyph-name="NULL" horiz-adv-x="0" 
 />
    <glyph glyph-name="nonmarkingreturn" unicode="&#xd;" horiz-adv-x="219" 
 />
    <glyph glyph-name="space" unicode=" " horiz-adv-x="219" 
 />
    <glyph glyph-name="zero" unicode="0" horiz-adv-x="1372" 
d="M408 206h42l8 -102t6 -102q2 38 5 77t7 77l6 50h40l8 -83l8 -83l2 -38q4 42 5 81t5 79q2 10 3 21t1 23h30l-20 -244h-46q-4 48 -9 96t-7 98q-2 -36 -5 -73t-7 -73l-4 -48h-46l-12 136l-12 -136h-44q-6 48 -11 96t-7 98l-4 -73t-6 -73l-6 -48h-46l-12 140l-10 -140h-46
q-6 48 -10 96t-6 96q-2 -36 -5 -72t-7 -72l-6 -48h-44l-22 244h30q6 -52 9 -102t5 -102q4 38 6 77t8 77l6 50h38q6 -42 10 -83t6 -83l4 -38l4 81t6 79l4 44h42l8 -102t6 -102q4 38 6 77t6 77q2 12 3 24t3 26h40q6 -42 9 -83t7 -83l2 -38q4 42 6 81t6 79zM1254 734h-1130v22
h1130v-22zM1254 -194h-1130v22h1130v-22zM790 -38h-36v244h36h23t21 -4q16 -8 21 -28t5 -36v-19t-2 -22t-7 -20t-15 -13l30 -102h-38l-22 96h-16v-96zM1032 16v-54h-32v244h32l24 -86t22 -86q-4 44 -4 86v86h32v-244h-34l-24 83t-22 83q2 -28 3 -56t3 -56zM656 -38h-34
l30 244h56l30 -244h-34l-8 58h-32zM1202 114q2 12 1 24t-5 24q-4 8 -11 13t-15 -5q-6 -8 -7 -21t-1 -23q-2 -12 -2 -24v-22v-24t2 -22q0 -10 2 -23t12 -17q10 -6 16 1t8 20t2 25v18h-24v28h58v-124h-26l-2 34q-2 -12 -7 -23t-17 -13q-10 -4 -21 1t-19 13q-14 18 -16 43
t-2 45q-2 26 -1 52t9 50q2 12 7 22t15 14q10 6 22 7t22 -3q12 -4 19 -14t10 -23t4 -26t1 -23zM274 330q4 8 11 14t17 8q8 2 16 -2t16 0l-18 -34q-2 -4 -5 -11t1 -9q4 -4 10 2t12 14q2 4 5 9t5 11l8 18q8 0 16 4l-20 -38l-5 -10t1 -10t10 2t10 12q4 10 10 20t10 18q4 10 8 19
t10 17q8 -2 14 4l-28 -56q-2 -4 -4 -9t-4 -11q-2 -4 -4 -12t6 -4q4 2 9 7t9 11q2 8 8 16q4 8 11 14t17 8q8 2 16 -2t18 0q-6 -8 -10 -17t-8 -17q-2 -4 -5 -11t-1 -9q4 -2 7 0t7 5t7 8t5 7v2l32 66q8 0 14 4q-6 -12 -11 -24t-13 -22q8 6 17 11t17 -7q6 -10 0 -23t-12 -21
q6 0 11 3t9 7l9 18t11 18l18 36q6 -2 12 4l-12 -28t-14 -28q-2 -4 -5 -9t-5 -11q-2 -2 -3 -5t-1 -6t1 -5t7 0q4 2 10 8t8 12q4 14 12 22q4 4 10 8t14 6t14 1t8 -11q0 -8 -4 -15t-12 -11t-17 -7t-15 -3q0 -6 4 -9t10 -3q12 0 23 7t17 17l4 -2q-8 -14 -23 -22t-31 -6
q-16 4 -16 18q-4 -4 -8 -9t-8 -7q-8 -4 -15 -1t-5 13v2q-2 -2 -4 -2q-4 -4 -12 -4h-8q-2 0 -3 -2t-3 -2q-10 -6 -21 -5t-17 11q-8 -8 -18 -12q-8 -2 -12 3t0 13q-6 -6 -14 -13t-18 -1q-6 4 -6 14q-6 -8 -14 -14q-8 -4 -15 -1t-7 11q-6 -8 -10 -10q-8 -4 -16 -1t-6 11
q-4 -4 -8 -7t-8 -5q-10 -2 -13 3t1 13h-2q-4 -6 -13 -13t-17 -1q-6 2 -7 7t1 9q-6 -4 -10 -6t-14 -2q-4 0 -5 -1t-5 -3t-11 -4t-12 -1t-8 5t-1 12q2 12 8 23l12 21q4 0 12 4q-2 -8 -5 -15t-7 -15q-2 -2 -5 -7t-5 -10t-2 -9t4 -4q10 -2 18 8t10 14q6 8 9 18t3 18q8 2 9 -5
t-1 -13q-4 -16 -18 -30q8 -2 15 3t11 11zM992 448q-10 0 -17 5t-10 13t-4 18t-1 18q-2 18 -2 39t6 39q2 8 8 15t14 7q20 6 32 -12q8 -18 8 -38v-38v-21t-4 -21t-11 -17t-19 -7zM438 448q-10 0 -17 5t-10 13t-4 18t-3 18v39t6 39q2 8 7 15t15 7q22 6 32 -12q8 -18 8 -38v-38
q0 -10 -1 -21t-4 -21t-10 -17t-19 -7zM916 -38h-34v244h34v-244zM274 450h-20v152h22h15t13 -2q10 -6 13 -17t3 -21t-2 -27t-14 -21l18 -64h-24l-12 60q-4 0 -6 1t-6 1v-62zM1056 484v-34h-20v152h18l16 -53t14 -53q-2 26 -2 53v53h20v-152h-22q-8 26 -15 52t-13 52
q2 -18 2 -35t2 -35zM138 450h-22v152h34q26 0 32 -26q4 -14 3 -32t-9 -32q-6 -10 -17 -11t-21 -1v-50zM502 484v-34h-20v152h18l16 -53t14 -53q-2 26 -3 53t-1 53h20v-152h-20q-8 26 -15 52t-13 52q2 -18 2 -35t2 -35zM574 450h-22l18 152h36l18 -152h-20l-6 36h-20z
M750 448q-14 0 -22 9t-10 21t-2 26v26v72h22v-106v-11t2 -9q2 -6 7 -8t9 2q6 6 6 14v14q2 12 1 24t-1 24v56h22v-72q0 -12 1 -26t-2 -26t-10 -21t-23 -9zM1140 350q4 0 12 4q-2 -6 -5 -11t-7 -9v-2q6 8 15 14t17 8q12 0 12 -9t-4 -17q-2 -4 -9 -15t-5 -15t6 -3t7 5t7 8t6 8
l18 38h-8l4 6h8l8 16q8 0 14 4l-10 -20h14l-4 -6h-14l-18 -38l-5 -10t-1 -10q4 -2 8 0t8 7l7 9t5 6l4 -2l-13 -17t-17 -11t-13 2t-1 10l-5 -5t-7 -5q-6 -4 -14 -2t-6 12q0 8 6 16t8 14q2 4 4 10t-4 6q-12 -2 -21 -14t-13 -20q-4 -6 -7 -12t-5 -12h-12l6 16v-2q-4 -2 -10 -4
h-10q-4 -6 -10 -8t-8 -2q-10 -4 -18 4q-8 6 -7 17t5 21q6 8 15 16t21 8q10 0 14 -6t4 -14t-3 -17t-7 -15q12 0 20 12zM354 520q-24 16 -26 40q-2 10 2 22t14 18q10 4 22 3t20 -9q10 -8 10 -19v-21h-12h-10v13t-4 11q-10 8 -15 1t-7 -15q0 -10 8 -17t16 -13t14 -14t8 -16
q2 -12 0 -22t-7 -18t-14 -13t-21 -3q-20 4 -22 20t-2 32h20v-11v-9q2 -6 8 -10t12 0q4 4 5 13t-1 15q-2 8 -7 13t-11 9zM820 520q-22 14 -26 40q-2 10 2 22t14 18q10 4 22 3t20 -9q10 -8 9 -19t-1 -21h-9h-11q0 6 1 13t-5 11q-8 8 -14 1t-6 -15q0 -10 7 -17t15 -13
q16 -12 22 -30q2 -12 1 -22t-7 -18t-15 -13t-21 -3q-20 4 -22 20t-2 32h22q0 -6 -1 -11t1 -9q2 -6 7 -10t11 0t7 13t-1 15q-2 8 -7 13t-13 9zM248 450h-56v152h56v-20h-34v-44h28v-22h-28v-46h34v-20zM924 450h-54v152h54v-20h-32v-44h28v-22h-28v-46h32v-20zM178 322
l-42 -2q-6 -8 -10 -17t-4 -19q-8 -2 -10 2t0 11t5 14t5 9l-14 -2l-6 8h24q10 18 25 35t35 27q6 4 16 5t12 -11q2 -4 0 -10t-4 -10q-6 -10 -10 -20t-10 -18q-2 -8 -8 -18t-4 -18q-8 -2 -10 2t0 10t5 12zM1212 602h22q-6 -22 -11 -43t-9 -43q-6 -16 -4 -33t2 -33h-24
q0 16 1 33t-3 33q-6 22 -11 43t-9 43h20l8 -39t6 -39q0 20 4 39zM850 290q-8 4 -6 11t4 13l18 36q6 0 14 4l-14 -28q-2 -4 -8 -14t-2 -14q6 -6 15 2t11 12q4 4 6 7t4 9l12 24q4 0 12 2q-4 -10 -8 -19t-10 -19l-5 -10t1 -10t10 2t10 12q4 10 10 20t10 18q4 10 8 19t10 17
q6 -2 14 4l-28 -56l-10 -20q-2 -4 -3 -12t7 -4t14 14q4 10 10 20t10 18q4 10 8 19t10 17q6 -2 14 4l-28 -56l-10 -20q0 -2 -1 -5l-2 -6t0 -5t7 0t11 9l9 13l4 -2l-11 -15t-13 -11q-6 -4 -13 -1t-7 11q-6 -6 -12 -10t-13 -1t-7 11q-4 -4 -9 -8t-11 -4q-8 0 -9 6t1 12
q-6 -8 -16 -15t-18 -1zM1164 450h-54v152h22v-134h32v-18zM684 450h-54v152h22v-134h32v-18zM790 84q6 0 12 -1t12 3q8 8 10 20t2 22q0 12 -2 25t-10 21q-4 4 -11 4h-13v-94zM724 350q6 0 14 4q-2 -6 -5 -11t-7 -9v-2q6 8 15 14t17 8q12 0 12 -9t-4 -17q-2 -4 -10 -15
t-4 -15q2 -4 6 -2t8 7t8 9t4 6l4 -2l-9 -13t-13 -13q-8 -4 -15 -2t-5 12q0 8 6 16t8 14q2 2 3 5t1 5t-1 4t-5 2q-10 -2 -19 -14t-13 -20l-12 -24h-12l4 8q-2 -2 -4 -3t-4 -3q-8 -4 -15 -1t-5 13q0 8 4 15t8 15q6 8 8 18q10 0 16 4l-20 -38l-5 -10t1 -10q2 -2 6 0t8 7l7 9
t5 6zM992 584q-6 0 -9 -7t-4 -17t0 -20t1 -14t-1 -14t0 -20t4 -17t9 -7t9 7t4 17t1 20v14v14t-1 20t-4 17t-9 7zM438 584q-6 0 -9 -7t-4 -17t0 -20t1 -14t-1 -14t0 -20t4 -17t9 -7t9 7t4 17t0 20t-1 14t1 14t0 20t-4 17t-9 7zM1240 602h22q0 -28 -1 -56t-3 -58h-14
q-2 30 -3 57t-1 57zM202 386q-8 2 -19 -7t-15 -13q-16 -18 -30 -40h42l14 28q0 2 3 7t5 11t3 10t-3 4zM1088 374q-4 -4 -6 0t0 8q-12 4 -17 -6t-7 -16h14l-4 -6h-14l-44 -90q-4 0 -14 -2l46 92h-14l2 6h16q2 8 7 16t15 10q6 2 16 -2q2 0 5 -4t-1 -6zM884 374q-4 -4 -6 0
t-2 8q-10 4 -16 -6t-8 -16h14l-2 -6h-14l-44 -90q-6 0 -14 -2l46 92h-16l4 6h14q4 8 9 16t15 10q6 2 14 -2q2 0 6 -4t0 -6zM672 94q-2 -10 -3 -20t-3 -20h28q-2 28 -7 58t-7 60l-4 -39zM138 518q4 0 9 -1t7 3q6 6 6 15v15v17t-6 13q-2 6 -7 5t-9 -1v-66zM1094 348
q-8 0 -15 -9t-11 -19t-4 -19t8 -9q6 0 13 9t12 20t5 19t-8 8zM978 -18q0 -10 -6 -15t-14 -5t-14 5t-6 15t6 15t14 5t14 -5t6 -15zM612 -18q0 -10 -6 -15t-14 -5t-14 5t-6 15t6 15t14 5t14 -5t6 -15zM512 346q-8 0 -13 -5t-10 -13t-8 -16t-7 -14q12 -8 22 0t14 16q2 2 5 7
t4 11t0 10t-7 4zM280 294q8 0 14 6t10 14t8 17t6 15q-10 4 -20 -4t-14 -16q-2 -2 -5 -7t-4 -10t-1 -10t6 -5zM274 526h8t8 2q6 4 7 12t1 16q0 6 -1 14t-7 12q-4 2 -7 2h-9v-58zM416 294q6 0 12 6t11 14t8 17t7 15q-12 4 -21 -4t-15 -16q0 -2 -3 -7t-5 -10t-1 -10t7 -5z
M588 324q-2 -4 -3 -7t-3 -7q12 0 25 10t13 22q0 8 -5 7t-11 -5q-4 -4 -8 -9t-8 -11zM582 532l-2 -24h16l-4 36l-4 36q0 -12 -2 -24zM1262 462q0 -6 -4 -9t-8 -3t-8 3t-4 9t4 10t8 4t8 -4t4 -10zM716 370q-4 -6 -11 -4t-5 10q0 4 4 5t8 0t5 -4t-1 -7zM376 370q-2 -6 -10 -4
t-6 10q2 4 5 5t7 0t6 -4t-2 -7zM1244 294q-4 -8 -12 -5t-4 11t12 4t4 -10zM1264 340q-2 -4 -5 -5t-6 0t-4 4t1 7q4 6 11 3t3 -9z" />
    <glyph glyph-name="exclam" unicode="!" horiz-adv-x="101" 
d="M38 189l-6 464h37l-6 -464h-25zM50 59q13 0 22 -9t9 -22t-9 -21.5t-22 -8.5q-12 0 -21 8.5t-9 21.5t9 22t21 9z" />
    <glyph glyph-name="m" unicode="m" horiz-adv-x="534" 
d="M451 0v344q0 18 1 46.5t-1 59t-9 58t-24 43.5q-11 10 -24 12.5t-26 -0.5t-24.5 -11.5t-20.5 -20.5q-18 -25 -26.5 -54t-12.5 -58q0 -17 -0.5 -33t-0.5 -32q0 -37 -0.5 -73.5t-0.5 -72.5v-208h-38v344q0 38 1 76t-7 75q-4 17 -10 31.5t-17 24.5q-10 10 -24.5 13.5
t-28.5 -1.5q-13 -4 -23.5 -12.5t-18.5 -19.5q-13 -17 -20.5 -37.5t-12.5 -40.5v-453h-38v578h13q11 0 18 -7t7 -18v-33q5 12 14 24q9 13 22 25t32 18q20 6 41 2t38 -15q18 -13 28.5 -32t15.5 -39l3 -12q5 14 11.5 27.5t15.5 25.5q9 13 21.5 25t32.5 18t40.5 2t37.5 -15
q18 -13 28.5 -32t15.5 -39q11 -36 10 -74t-1 -75v-354h-38z" />
    <glyph glyph-name="l" unicode="l" 
d="M45 0v700h38v-700h-38z" />
    <glyph glyph-name="k" unicode="k" horiz-adv-x="335" 
d="M318 578l-138 -294q11 -5 21 -11.5t19 -15.5q13 -15 20.5 -34t12.5 -38q5 -20 8 -41l6 -42l4 -30t7 -27.5t15.5 -21.5t29.5 -10v-26q-10 2 -19 3t-18 5q-21 9 -33 27.5t-18 41.5t-8 47.5t-4 44.5q-2 16 -4.5 32t-8 30t-15.5 25.5t-25 17.5l-87 -185v-76h-38v700h38v-565
l101 216l37.5 80.5l33.5 71l24.5 52t10.5 23.5h28z" />
    <glyph glyph-name="j" unicode="j" horiz-adv-x="129" 
d="M83 578v-541q0 -24 -4.5 -51t-18.5 -50q-6 -10 -13.5 -17t-15.5 -12q-13 -8 -35 -8v25q10 0 21 7t17 19t8.5 26.5t3 30.5t0.5 30v541h37zM65 675q11 0 18 -7.5t7 -18.5t-7 -18.5t-18 -7.5t-19 7.5t-8 18.5t8 18.5t19 7.5z" />
    <glyph glyph-name="i" unicode="i" 
d="M45 0v578h37v-578h-37zM64 623q-11 0 -19 7.5t-8 18.5t8 18.5t19 7.5t18 -7.5t7 -18.5t-7 -18.5t-18 -7.5z" />
    <glyph glyph-name="h" unicode="h" horiz-adv-x="391" 
d="M307 0v38v58.5v69v71.5t-0.5 65t-0.5 49q0 38 -2 77t-16 75q-6 17 -15.5 30.5t-23.5 21.5q-29 16 -60 8q-14 -3 -26 -11t-22 -19q-19 -20 -33 -43.5t-26 -48.5v-441h-37v700h37v-208q10 16 20 30t23 28q11 11 25 21.5t33 15.5q41 11 79 -8q20 -10 34 -26.5t23 -35.5
q17 -35 21.5 -72.5t4.5 -75.5v-369h-38z" />
    <glyph glyph-name="g" unicode="g" horiz-adv-x="382" 
d="M337 578v-112v-119.5v-120v-112.5q-1 -36 -9 -71.5t-30 -65.5q-12 -17 -28 -30t-33 -21q-30 -13 -64.5 -11t-63.5 16q-23 12 -42 32q-5 5 -8.5 10.5l-6.5 10.5q-4 5 -6 11l30 23q16 -27 26.5 -39.5t21.5 -20.5q22 -15 50 -17.5t52 9.5q14 7 25.5 18.5t21.5 25.5
q17 27 21.5 58t4.5 62v23q-10 -20 -22.5 -39t-29.5 -34q-16 -15 -38 -22t-48 -2q-25 4 -46.5 19.5t-35.5 37.5q-29 43 -38 94.5t-11 102.5q-2 52 5 104.5t30 99.5q11 23 27 42.5t37 32.5q29 18 63.5 17.5t62.5 -19.5q14 -11 24.5 -24t19.5 -28v34q0 11 7 18t18 7h13z
M299 463l-16 35.5t-20 32.5q-9 11 -21.5 20t-29.5 12q-17 4 -35 1t-33 -14q-16 -11 -28 -28t-20 -38q-19 -45 -23.5 -93t-3.5 -96q1 -45 7 -93t29 -88q11 -20 26 -32q14 -12 33.5 -16.5t37.5 0.5q16 4 30 17q27 23 42.5 56.5t24.5 68.5v255z" />
    <glyph glyph-name="f" unicode="f" horiz-adv-x="154" 
d="M84 401h50v-25h-50v-97t-0.5 -109.5t-0.5 -100.5v-69h-38v376h-25v25h25v140q0 25 4.5 51t19.5 50q6 10 13.5 17t15.5 12q13 8 35 8v-25q-11 0 -21 -7q-11 -7 -16.5 -19t-8 -26.5t-3 -30.5t-0.5 -30v-140z" />
    <glyph glyph-name="e" unicode="e" horiz-adv-x="354" 
d="M289 555q18 -19 30.5 -45t14.5 -52l-239 -356q8 -18 18.5 -33.5t24.5 -26.5q14 -12 30.5 -18t31.5 -6q16 -1 29 4.5t24 13.5q19 14 32 34t24 40l13 -4q-7 -26 -18.5 -49t-30.5 -43q-13 -14 -31 -22t-41 -10q-20 -1 -43.5 7t-43.5 24q-19 16 -32.5 36.5t-23.5 43.5
q-20 48 -25 98t-3 101t11.5 101.5t32.5 97.5q11 23 25.5 42t34.5 33t42.5 19.5t42.5 3.5q23 -2 40.5 -11.5t29.5 -22.5zM297 448q-3 23 -9 45.5t-22 42.5q-7 10 -19 18t-29 10t-35 -3t-34 -16q-30 -22 -51 -66q-20 -43 -26.5 -90.5t-7.5 -95.5q-1 -40 3 -81.5t17 -80.5z" />
    <glyph glyph-name="d" unicode="d" horiz-adv-x="383" 
d="M338 700v-700h-13q-11 0 -18 7t-7 18v54q-14 -26 -33 -47t-45 -35q-20 -11 -45 -10t-48 15q-22 13 -37.5 34t-26.5 45q-21 48 -27.5 101.5t-7.5 105.5q0 52 8 105.5t31 101.5q11 23 26.5 43.5t37.5 34.5q29 20 65.5 17.5t62.5 -25.5q13 -11 22 -24.5t17 -27.5v187h38z
M300 453q-7 19 -15 36.5t-19 34.5q-8 12 -20 22.5t-29 15.5q-37 11 -69 -11q-17 -11 -29 -29.5t-20 -39.5q-18 -47 -23.5 -96t-5.5 -98t4.5 -98.5t21.5 -96.5q8 -21 19.5 -39t27.5 -29q17 -11 35 -12.5t33 6.5q35 17 56 50.5t33 68.5v315z" />
    <glyph glyph-name="c" unicode="c" horiz-adv-x="351" 
d="M296 465q-5 31 -16 51t-24 31q-23 18 -54 17q-20 -1 -37 -9t-30.5 -21.5t-24 -30.5t-17.5 -35q-17 -43 -23.5 -89t-6.5 -92q0 -47 6 -94.5t25 -89.5q8 -20 20 -36.5t27 -27.5q25 -20 55.5 -21t57.5 19q18 14 30.5 33.5t23.5 39.5l13 -4q-8 -33 -26 -65.5t-51 -47.5
q-32 -14 -65 -9t-61 26q-20 15 -34 35t-24 43q-26 59 -30 122.5t3 126.5q3 28 8.5 58.5t16 59.5t25.5 55t38 46q17 16 38.5 24.5t41.5 8.5t38 -4t35 -16q21 -16 36 -39.5t21 -48.5l-35 -16v0z" />
    <glyph glyph-name="b" unicode="b" horiz-adv-x="376" 
d="M244 578q28 -15 46 -41t29 -56.5t16.5 -63.5t7.5 -62q5 -65 0.5 -132.5t-30.5 -128.5q-11 -23 -24.5 -44.5t-33.5 -36.5q-37 -31 -87 -24q-44 5 -70 32q-14 14 -24 31.5t-18 35.5q-11 25 -11 51v561h38v-190q13 21 30 39t39 30q20 12 45 11t47 -12zM307 273
q0 54 -4 109.5t-24 106.5q-8 21 -19.5 38.5t-28.5 27.5q-16 8 -33.5 9.5t-34.5 -6.5q-29 -16 -48.5 -43.5t-31.5 -57.5v-369q13 -31 32 -50q9 -10 23.5 -16.5t31.5 -8.5q40 -3 67 21q23 20 35 48.5t19 57.5q16 63 16 133z" />
    <glyph glyph-name="grave" unicode="`" horiz-adv-x="195" 
d="M163 617l-143 71l18 33l137 -81z" />
    <glyph glyph-name="ring" unicode="&#x2da;" horiz-adv-x="150" 
d="M75 612q-23 0 -39 15.5t-16 38.5t16 39t39 16t39 -16t16 -39t-16 -38.5t-39 -15.5zM75 696q-12 0 -20.5 -9t-8.5 -21t8.5 -20.5t20.5 -8.5t20.5 8.5t8.5 20.5t-8.5 21t-20.5 9z" />
    <glyph glyph-name="breve" unicode="&#x2d8;" horiz-adv-x="251" 
d="M126 627q-23 0 -47.5 5t-41.5 22q-18 18 -16 45l27 2q4 -19 16.5 -26t32.5 -9q13 -2 30.5 -2.5t33.5 2t28.5 10.5t15.5 25l26 -2q0 -13 -3.5 -24t-12.5 -21q-17 -17 -41.5 -22t-47.5 -5z" />
    <glyph glyph-name="macron" unicode="&#xaf;" horiz-adv-x="235" 
d="M215 654h-195v25h195v-25z" />
    <glyph glyph-name="circumflex" unicode="&#x2c6;" horiz-adv-x="248" 
d="M33 630l-13 22l104 67l104 -67l-13 -22l-91 46z" />
    <glyph glyph-name="registered" unicode="&#xae;" horiz-adv-x="522" 
d="M261 678q55 0 99.5 -28t76 -79t48.5 -123.5t17 -161.5q0 -90 -17 -162.5t-48.5 -124t-76 -79.5t-99.5 -28t-99.5 28t-76 79.5t-48.5 124t-17 162.5q0 89 17 161.5t48.5 123.5t76 79t99.5 28zM261 -82q49 0 89 26t68 74t43 116t15 152t-15 151.5t-43 115.5t-68 74t-89 26
t-89 -26t-68 -74t-43.5 -115.5t-15.5 -151.5t15.5 -152t43.5 -116t68 -74t89 -26zM365 220q-14 -22 -32 -39t-38 -31q14 -7 26.5 -16t21.5 -25q6 -11 8.5 -23t4.5 -25q1 -9 -1 -21.5t3 -20.5q2 -5 8.5 -6t11.5 -1v-25q-17 -2 -30.5 4.5t-22.5 26.5q-7 19 -6.5 39t-7.5 39
q-5 14 -16 24t-25 15q-21 -12 -43.5 -20.5t-45.5 -15.5v-63q0 -13 13 -13h6v-25h-76v25h7q12 0 12 13v502q0 5 -4 9t-9 3h-6v25q23 -1 46 -0.5t46 0t45 -4.5t44 -14q35 -15 59 -43t36 -65q17 -57 7.5 -117.5t-42.5 -110.5zM181 124q38 7 74 29t62 54q18 23 30.5 51t19 58.5
t6 61t-9.5 59.5q-8 27 -24.5 50.5t-46.5 40.5q-26 14 -54 18t-57 5v-427z" />
    <glyph glyph-name="dieresis" unicode="&#xa8;" horiz-adv-x="172" 
d="M46 636q-11 0 -18.5 7.5t-7.5 18.5t7.5 18.5t18.5 7.5t18.5 -7.5t7.5 -18.5t-7.5 -18.5t-18.5 -7.5zM126 636q-11 0 -18.5 7.5t-7.5 18.5t7.5 18.5t18.5 7.5t18.5 -7.5t7.5 -18.5t-7.5 -18.5t-18.5 -7.5z" />
    <glyph glyph-name="ogonek" unicode="&#x2db;" horiz-adv-x="167" 
d="M102 -33q-14 -14 -25.5 -29.5t-16.5 -34.5q-4 -19 3 -36q3 -6 10 -9.5t14 -1.5q6 2 11.5 6l10.5 8t9 9l18 -9q-8 -12 -17 -22.5t-23 -15.5q-15 -7 -32.5 -3.5t-28.5 17.5q-14 18 -14 39t11 41q9 16 24.5 31.5l24.5 24.5q5 4 10.5 9.5l10.5 10.5l13 11h32l-19 -19
l-15.5 -15.5t-10.5 -11.5z" />
    <glyph glyph-name="cedilla" unicode="&#xb8;" horiz-adv-x="219" 
d="M110 0l-15 -43q21 1 46 -3t42 -21q15 -15 15.5 -32.5t-11 -31.5t-34.5 -22.5t-54 -5.5q-13 1 -27 3.5l-25 4.5q-14 3 -27 5l9 22q13 -3 26 -5q25 -5 46 -5q23 0 36 5t18 13t2.5 16.5t-9.5 15.5q-8 8 -23 11.5t-29 5.5q-17 1 -36 0l24 67h26z" />
    <glyph glyph-name="tilde" unicode="&#x2dc;" horiz-adv-x="252" 
d="M79 664q-12 -1 -22.5 -7t-18.5 -14l-18 18q11 8 20.5 17t22.5 14q15 6 30.5 5t30.5 -6q13 -5 25.5 -11.5t26.5 -8.5q12 -1 22 4.5t18 13.5l16 -19l-19 -15.5t-21 -12.5q-14 -5 -29 -3t-29 7t-27 12t-28 6z" />
    <glyph glyph-name="caron" unicode="&#x2c7;" horiz-adv-x="247" 
d="M20 686l12 22l92 -46l91 46l12 -22l-103 -68z" />
    <glyph glyph-name="acute" unicode="&#xb4;" horiz-adv-x="195" 
d="M32 617l-12 23l137 81l18 -33z" />
    <glyph glyph-name="colon" unicode=":" horiz-adv-x="101" 
d="M51 59q13 0 21.5 -9t8.5 -22t-8.5 -21.5t-21.5 -8.5t-22 8.5t-9 21.5t9 22t22 9zM51 493q13 0 21.5 -9t8.5 -22t-8.5 -21.5t-21.5 -8.5t-22 8.5t-9 21.5t9 22t22 9z" />
    <glyph glyph-name="asterisk" unicode="*" horiz-adv-x="285" 
d="M265 481l-98 -60l98 -59l-13 -22l-97 59v-110h-25v110l-97 -59l-13 22l98 59l-98 60l13 21l97 -58v110h25v-110l97 58z" />
    <glyph glyph-name="comma" unicode="," horiz-adv-x="104" 
d="M51 59q6 0 12.5 -2.5t12 -8.5t7.5 -17t-1 -28t-13.5 -40t-24.5 -44l-19 12q6 14 10 27q8 25 10 40q-11 2 -18 10.5t-7 19.5q0 13 8.5 22t22.5 9z" />
    <glyph glyph-name="question" unicode="?" horiz-adv-x="313" 
d="M281 586q11 -29 11 -58.5t-7 -58t-20.5 -55.5t-29.5 -51q-13 -21 -27.5 -41t-26.5 -41t-19.5 -43.5t-7.5 -48.5h-25q1 22 4.5 43.5t12.5 41.5q11 26 25 49l28 46q13 22 25.5 47.5t21 52t10 53.5t-5.5 54q-10 37 -37 58t-64 19q-31 -2 -51.5 -23.5t-31.5 -50.5
q-18 -58 3 -115l-22 -12q-14 17 -20 38t-7 43q0 31 13 63t40 54q16 14 36 21t41 8t41.5 -5t37.5 -18q36 -26 52 -70zM141 59q13 0 22 -9t9 -22t-9 -21.5t-22 -8.5t-21.5 8.5t-8.5 21.5t8.5 22t21.5 9z" />
    <glyph glyph-name="equal" unicode="=" horiz-adv-x="298" 
d="M20 270h258v-25h-258v25zM20 346h258v-26h-258v26z" />
    <glyph glyph-name="numbersign" unicode="#" horiz-adv-x="273" 
d="M209 434h44v-25h-47l-31 -227h40v-26h-43l-12 -91l-25 3l12 88h-63l-12 -91l-25 3l12 88h-39v26h42l30 227h-34v25h38l11 81l25 -3l-11 -78h62l11 81l25 -3zM180 409h-62l-30 -227h62z" />
    <glyph glyph-name="percent" unicode="%" horiz-adv-x="423" 
d="M240 215q30 12 59 8.5t52.5 -18.5t37.5 -41t14 -60q0 -29 -11.5 -56t-37.5 -45q-20 -13 -43.5 -17t-46 1t-42.5 18t-33 33q-14 22 -16.5 49t4 51.5t23 45t40.5 31.5zM298 11q34 5 50.5 33t17.5 61q1 21 -8 41.5t-25 34t-37 17.5t-43 -9q-17 -10 -26.5 -26t-13 -34.5
t-1 -37.5t9.5 -36q10 -24 30 -35t46 -9zM203 369q-20 -13 -43.5 -17t-46.5 1t-43 18t-32 33q-14 22 -17 49t4 52t23 45.5t41 31.5q26 10 57 8.5t57 -18.5q24 -16 36.5 -43t13 -57t-11.5 -58t-38 -45zM101 556q-17 -11 -26.5 -27t-13 -34.5t-1 -38t9.5 -35.5q6 -15 19.5 -26
t29.5 -15.5t33.5 -1.5t31.5 16t22 33.5t8 42t-7 42.5t-23 35q-15 15 -39 17.5t-44 -8.5zM396 571l-346 -578l-21 13l345 578z" />
    <glyph glyph-name="ampersand" unicode="&#x26;" horiz-adv-x="482" 
d="M359 437q27 13 54 10q14 -2 25.5 -8l23.5 -12l-15 -20q-16 10 -32.5 8t-31.5 -9q-14 -5 -26.5 -10t-26.5 -10q19 -12 35 -28t27 -39q12 -23 15 -49.5t-2 -52.5t-17.5 -50t-32.5 -43q-23 -21 -53 -33.5t-62.5 -15.5t-65 3.5t-60.5 22.5q-30 17 -51.5 45t-32.5 61
q-11 34 -9.5 69.5t13.5 67.5t35.5 58t53.5 40q21 10 41 14q-13 7 -18 22.5t-3 30.5q1 13 7.5 24t16.5 18.5t22.5 11.5t25.5 3q15 -1 29.5 -6t26 -14.5t17.5 -23.5t4 -32t-13 -28.5t-26 -16.5t-32 -8t-31 -3t-27.5 -6t-26.5 -12q-23 -14 -40.5 -36t-26.5 -49q-10 -27 -11 -56
t7 -58q7 -28 23 -52t41 -40q22 -15 49.5 -21t55.5 -3.5t54 14t44 32.5q28 30 36 73.5t-8 84.5q-20 54 -75 76q-8 1 -16 1.5t-16 2.5l4 24q15 -4 28 -2t25.5 7t24.5 11.5t24 11.5zM189 526q-12 -14 -10.5 -29t10.5 -25t23.5 -12t29.5 10q11 8 15 27t-7 33q-11 15 -29 14
t-32 -18z" />
    <glyph glyph-name="plus" unicode="+" horiz-adv-x="297" 
d="M161 308h116v-26h-116v-116h-25v116h-116v26h116v116h25v-116z" />
    <glyph glyph-name="dollar" unicode="$" horiz-adv-x="312" 
d="M195 295q22 -17 41.5 -36.5t33.5 -43.5q14 -23 19 -51t1 -55.5t-17.5 -53t-36.5 -42.5q-18 -15 -41 -21v-32h-25v28q-12 -1 -26 0v-28h-25v33q-14 5 -26 11.5t-21 15.5q-22 20 -33.5 46t-18.5 55l37 6q2 -24 9.5 -47t24.5 -40q11 -12 28 -20v285q-20 17 -37 36.5
t-28 45.5q-16 38 -10.5 81t30.5 75q17 23 45 36v38h25v-29q3 1 7.5 1.5t18.5 0.5v27h25v-32q8 -2 19.5 -9t18.5 -14q21 -20 33 -47t18 -55q-9 -2 -18.5 -3l-18.5 -2q-2 23 -9.5 46.5t-23.5 41.5q-7 7 -19 14v-262zM220 34q17 14 26.5 34t11.5 42.5t-3 45t-17 40.5
q-9 14 -20 26t-23 23v-226q12 5 25 15zM170 266l-26 19v-271q6 -2 13 -2t13 1v253zM170 565q-7 0 -13.5 -0.5t-12.5 -2.5v-228q7 -5 13 -10t13 -10v251zM119 550q-13 -8 -24 -23q-12 -17 -17.5 -39.5t-3.5 -43.5q2 -26 14.5 -46t30.5 -41v193z" />
    <glyph glyph-name="yen" unicode="&#xa5;" horiz-adv-x="434" 
d="M414 552h-22q-8 0 -11 -7l-147 -316v-22h79v-25h-79v-26h79v-25h-79v-93q0 -13 13 -13h12v-25h-88v25h13q12 0 12 13v93h-78v25h78v26h-78v25h78v20l-144 318q-3 7 -11 7h-21v26h88v-26h-18l132 -290l134 290h-18v26h76v-26z" />
    <glyph glyph-name="sterling" unicode="&#xa3;" horiz-adv-x="386" 
d="M289 37q23 2 35.5 20t17.5 39q12 -5 24 -6l-10 -29.5t-13 -26.5t-19.5 -20.5t-28.5 -12.5q-29 -6 -58 3t-58 16q-11 3 -24 4.5t-25.5 0t-22.5 -6.5t-15 -14l-28 8q-1 55 -1 110v110h-43v25h43v25h-43v26h43q1 31 1 61.5v60.5q0 31 5 63t25 57q21 25 58 28v-26
q-9 0 -18.5 -5.5t-15.5 -14.5q-9 -14 -12.5 -31.5t-4.5 -35.5t0 -36.5t1 -34.5v-43t1 -43h112v-26h-112v-25h112v-25h-112v-94.5t-1 -94.5q30 15 66 12q30 -3 60.5 -12.5t60.5 -5.5z" />
    <glyph glyph-name="Euro" unicode="&#x20ac;" horiz-adv-x="376" 
d="M234 565q-38 -4 -63 -33.5t-39 -65.5q-13 -33 -19.5 -70.5t-8.5 -75.5h111v-25h-112v-25h112v-25h-112q1 -14 2 -26.5t3 -25.5q4 -23 9 -44t13 -41q6 -15 15 -30.5t22 -28.5t28.5 -22t34.5 -10q18 0 33.5 7.5t28 20t23 28t19.5 31.5l12 -4q-5 -21 -14.5 -42t-24 -37.5
t-34 -27t-43.5 -11.5t-44.5 8t-38 25t-30.5 36.5t-22 42.5q-14 35 -20 73.5t-7 77.5h-48v25h48v25h-48v25h51q4 38 11.5 77.5t23.5 78.5q8 19 19.5 38.5t27 36t35.5 27.5t44 12q33 2 61.5 -16t44.5 -51l7.5 -15.5t5.5 -13.5q3 -7 5 -14l-36 -11q-2 8 -5 18t-7 21
q-9 22 -27 41t-47 16z" />
    <glyph glyph-name="bar" unicode="|" horiz-adv-x="65" 
d="M20 666h25v-755h-25v755z" />
    <glyph glyph-name="less" unicode="&#x3c;" horiz-adv-x="174" 
d="M154 428l-89 -148l89 -148l-22 -14l-112 162l112 161z" />
    <glyph glyph-name="greater" unicode="&#x3e;" horiz-adv-x="174" 
d="M154 280l-112 -162l-22 14l89 148l-89 148l22 13z" />
    <glyph glyph-name="at" unicode="@" horiz-adv-x="533" 
d="M282 678q68 0 117.5 -36t78.5 -105q18 -43 26 -93.5t8.5 -103t-6 -104t-19 -97t-30 -81.5t-38.5 -57h-7q-11 -1 -18.5 6.5t-7.5 18.5v50q-12 -26 -31 -46q-14 -16 -34 -27t-43 -14q-24 -4 -48 0.5t-44 18.5q-21 14 -36 35t-22 45q-8 24 -7.5 49t7.5 49q7 23 18.5 43.5
t26.5 37.5q23 26 50.5 46t56.5 38l27.5 15.5t32.5 20t29 22.5t17 23q1 17 -0.5 33.5t-7.5 31.5q-10 32 -36 50t-61 18q-25 0 -48.5 -11t-36.5 -35q-8 -15 -12 -31t-5 -33l-38 1q-1 21 7 42.5t20 38.5q20 26 49 40.5t64 12.5q42 0 77.5 -19.5t52.5 -60.5q8 -19 10 -38t3 -39
v-120q0 -30 -0.5 -74.5t-0.5 -85.5v-71.5v-33.5q24 38 40.5 97.5t21.5 126t-2 134t-29 121.5q-51 126 -172 126q-37 0 -66 -11.5t-51.5 -30t-39 -41t-27.5 -44.5q-32 -63 -44 -139t-8 -150t21.5 -138t46.5 -103q27 -37 62.5 -57t75.5 -21q32 -1 59 10.5t44 32.5l20 -16
q-22 -26 -54.5 -39.5t-69.5 -13.5q-46 2 -86.5 24.5t-71.5 64.5q-33 46 -51.5 116t-21 148t11.5 155t44 137q35 70 87.5 105.5t118.5 35.5zM338 46q20 23 31 51t16 59v237q-20 -18 -43 -32l-46 -28q-28 -18 -54 -38t-46 -47q-24 -31 -33 -71t0 -80q5 -19 15 -36t25 -29
q15 -13 34 -17t38 -2q38 6 63 33z" />
    <glyph glyph-name="copyright" unicode="&#xa9;" horiz-adv-x="522" 
d="M261 590q23 2 42.5 -6.5t35.5 -24t27.5 -36t18.5 -43.5l-36 -10l-11 34q-5 11 -11.5 22.5t-15.5 20.5t-21 14t-27 4q-16 -2 -31.5 -9t-28.5 -21q-26 -26 -42 -69q-20 -53 -25.5 -109.5t-3.5 -112.5q1 -26 5 -53.5t11.5 -54t20 -51t32.5 -42.5q28 -24 57 -26q19 0 34 7.5
t28 20t23.5 28t19.5 31.5l12 -4q-5 -21 -14.5 -42t-23.5 -37.5t-33.5 -27t-44.5 -11.5q-23 -1 -44.5 8t-38.5 25q-33 32 -52 79q-23 57 -26 119.5t3 122.5q3 28 9 58t15.5 58.5t23.5 54.5t35 47q17 16 37 25.5t40 10.5zM261 678q55 0 99.5 -28t76 -79t48.5 -123.5t17 -161.5
q0 -90 -17 -162.5t-48.5 -124t-76 -79.5t-99.5 -28t-99.5 28t-76 79.5t-48.5 124t-17 162.5q0 89 17 161.5t48.5 123.5t76 79t99.5 28zM261 -82q49 0 89 26t68 74t43.5 116t15.5 152t-15.5 151.5t-43.5 115.5t-68 74t-89 26t-89 -26t-68 -74t-43.5 -115.5t-15.5 -151.5
t15.5 -152t43.5 -116t68 -74t89 -26z" />
    <glyph glyph-name="quotedblright" unicode="&#x201d;" horiz-adv-x="213" 
d="M153 691q17 0 28.5 -11.5t11.5 -28.5q0 -32 -12.5 -62.5t-31.5 -57.5q-2 1 -5 4l-6 6l-8 8q9 14 14 30.5t8 32.5q-16 1 -27 12t-11 28t11.5 28t27.5 11zM60 691q17 0 28 -11.5t11 -28.5q0 -32 -12.5 -62.5t-31.5 -57.5q-2 1 -5 4l-6 6l-8 8q9 14 14 30t8 33q-16 1 -27 12
t-11 28t11.5 28t28.5 11z" />
    <glyph glyph-name="quotedblleft" unicode="&#x201c;" horiz-adv-x="213" 
d="M62 623q16 -1 27 -12.5t11 -27.5q0 -17 -11.5 -28t-28.5 -11t-28.5 11.5t-11.5 28.5q0 32 13 62.5t32 57.5q2 -2 5 -4.5t6 -5.5q4 -4 7 -8q-8 -14 -12.5 -30t-8.5 -33zM193 583q0 -17 -11 -28t-28 -11t-28.5 11.5t-11.5 28.5q0 32 12.5 62.5t31.5 57.5q6 -4 12 -10
q4 -4 7 -8q-9 -14 -14.5 -31t-7.5 -32q16 -1 27 -12.5t11 -27.5z" />
    <glyph glyph-name="quotedbl" unicode="&#x22;" horiz-adv-x="141" 
d="M90 540l-7 151h38l-6 -151h-25zM27 540l-7 151h38l-6 -151h-25z" />
    <glyph glyph-name="underscore" unicode="_" horiz-adv-x="298" 
d="M20 10h258v-25h-258v25z" />
    <glyph glyph-name="hyphen" unicode="-" horiz-adv-x="235" 
d="M20 308h195v-25h-195v25z" />
    <glyph glyph-name="bracketleft" unicode="[" horiz-adv-x="147" 
d="M20 666l107 13v-25h-69v-730h69v-25l-107 12v755z" />
    <glyph glyph-name="bracketright" unicode="]" horiz-adv-x="147" 
d="M20 679l107 -13v-755l-107 -12v25h69v730h-69v25z" />
    <glyph glyph-name="braceleft" unicode="{" horiz-adv-x="155" 
d="M52 337q5 20 5 41t-2 42q-2 20 -3 40l-2 40q-2 36 2 75t24 71q9 14 24.5 23.5t23.5 11.5l10 -24q-21 -9 -32 -28q-14 -25 -17.5 -52t-1.5 -56t6 -58t5 -57.5t-4 -55t-21 -49.5l-9 -11l9 -11q16 -23 21.5 -50t4.5 -55.5t-4.5 -57.5t-5.5 -57.5t1 -55.5t17 -50
q12 -19 32 -30l-12 -23q-29 13 -46 36q-22 31 -26 70t-2 76q2 39 7 81t-4 81q-5 23 -20 36l-12 10l12 11q15 13 20 36z" />
    <glyph glyph-name="braceright" unicode="}" horiz-adv-x="155" 
d="M103 337q5 -23 20 -36l12 -11l-12 -10q-15 -13 -20 -36q-9 -39 -4 -81t7 -81q2 -37 -2 -76t-26 -70q-18 -23 -46 -36l-12 23q20 11 32 30q13 23 16.5 50t1.5 55.5t-5.5 57.5t-4.5 57.5t4 55.5t22 50l9 11l-9 11q-16 23 -21 49.5t-4 55t5 57.5t6 58t-1.5 56t-17.5 52
q-11 19 -32 28l10 24q8 -2 23.5 -11.5t24.5 -23.5q20 -32 24 -71t2 -75l-2 -40t-3 -40q-2 -21 -2 -42t5 -41z" />
    <glyph glyph-name="parenleft" unicode="(" horiz-adv-x="159" 
d="M139 662q-21 -30 -34.5 -64t-22 -69.5t-13 -72t-7.5 -72.5q-7 -81 -2.5 -163t22.5 -161q8 -38 21.5 -73t35.5 -67l-20 -16q-24 30 -40.5 64.5t-27 71.5t-16.5 75t-10 76q-8 86 -3 172.5t28 170.5q11 39 27 75t42 68l20 -15v0z" />
    <glyph glyph-name="parenright" unicode=")" horiz-adv-x="160" 
d="M40 678q24 -30 40.5 -64.5t27 -71.5t17 -75.5t9.5 -75.5q8 -86 3 -173t-28 -170q-11 -39 -27 -75t-41 -68l-21 15q41 60 56.5 133t21.5 144q6 81 2 163.5t-22 161.5q-9 38 -22.5 73t-34.5 67q5 5 9.5 8.5z" />
    <glyph glyph-name="fraction" unicode="&#x2044;" horiz-adv-x="271" 
d="M251 663l-207 -755l-24 7l207 754z" />
    <glyph glyph-name="germandbls" unicode="&#xdf;" horiz-adv-x="378" 
d="M227 445q33 -12 52.5 -26.5t33.5 -31.5q26 -34 35.5 -76t9.5 -84t-9.5 -85t-33.5 -79q-12 -18 -28.5 -33t-36.5 -25t-41 -13.5t-42 -4.5v25q38 0 70 18q31 18 50 51q18 33 24.5 70t7.5 74q2 37 -5 74t-28 68q-20 32 -53 46.5t-73 15.5v25q43 2 69 30t28 70q-1 18 -4 37
t-15 33q-18 21 -48 27.5t-60 -4.5q-29 -10 -38 -36t-9 -58v-515q0 -13 12 -13h13v-25h-88v25h12q13 0 13 13v515q0 27 9.5 55t32.5 47q14 11 32 17t37 7t38 -2t35 -10q22 -9 37.5 -27.5t22.5 -41.5t5.5 -48t-11.5 -48q-16 -36 -56 -57z" />
    <glyph glyph-name="eth" unicode="&#xf0;" horiz-adv-x="363" 
d="M200 617q32 -28 60 -59.5t46 -70.5q23 -49 30.5 -103t5.5 -107q-2 -54 -13.5 -106.5t-38.5 -100.5q-11 -17 -24 -33t-30 -28q-18 -12 -39 -17t-42.5 -2.5t-41 13t-34.5 28.5q-14 17 -23 35.5t-15 37.5q-17 53 -19.5 109.5t2.5 111.5q2 25 7 51.5t14 52t23.5 47.5t35.5 38
q29 23 66 26t69 -17q12 -7 26 -19q-17 29 -39 53t-48 46l-55 -35l-13 21l48 31l-48 36l15 20l27.5 -21l27.5 -21l71 46l14 -21zM304 279q2 37 0 74.5t-10 73.5q-14 25 -34 49t-52 35q-22 7 -45.5 2t-40.5 -21q-25 -22 -38 -55.5t-18.5 -72t-5.5 -77.5t1 -71q2 -42 8.5 -87
t32.5 -80q9 -14 23 -22.5t30.5 -11.5t33.5 0.5t31 14.5t24.5 25t18.5 30q22 45 30.5 95t10.5 99z" />
    <glyph glyph-name="Thorn" unicode="&#xde;" horiz-adv-x="408" 
d="M277 553q17 -10 32 -23t28 -30q27 -34 39 -76.5t11.5 -86.5t-14.5 -86.5t-39 -76.5q-24 -31 -56 -52.5t-69 -32.5q-32 -10 -63 -11l-63 -2v-38q0 -13 13 -13h12v-25h-88v25h13q12 0 12 13v590q0 13 -12 13h-13v25h88v-25h-12q-13 0 -13 -13v-37q20 -1 39 -0.5t39 -1.5
q31 -4 60.5 -12t55.5 -24zM306 195q21 31 31 67t10 73q1 38 -7 75.5t-31 68.5q-10 15 -22.5 26.5t-26.5 20.5q-39 25 -85 33t-92 7v-465q32 0 63.5 4.5t60.5 15.5t54 29t45 45z" />
    <glyph glyph-name="thorn" unicode="&#xfe;" horiz-adv-x="376" 
d="M252 578q28 -15 46.5 -41t29.5 -56.5t16.5 -63.5t7.5 -62q5 -65 0 -133t-31 -128q-10 -24 -23.5 -45t-33.5 -36q-19 -16 -40.5 -21.5t-46.5 -3.5q-45 6 -70 33l-16 18v-102q0 -13 13 -13h13v-25h-89v25h13q13 0 13 13v686l-24 -9l-10 11l75 75l18 -18q-22 -22 -22 -47
v-125q14 21 30.5 39t38.5 30q21 11 45.5 11t46.5 -12zM315 272q1 55 -3 110.5t-24 106.5q-8 21 -20 38.5t-29 27.5q-15 8 -32.5 9.5t-34.5 -6.5q-29 -16 -48.5 -43.5t-32.5 -57.5v-370q7 -14 14 -26t18 -23q20 -22 55 -25q19 -2 36 2.5t32 18.5q23 20 34.5 48.5t19.5 57.5
q8 32 11.5 65.5t3.5 66.5z" />
    <glyph glyph-name="one" unicode="1" horiz-adv-x="1372" 
d="M408 206h42l8 -102t6 -102q2 38 5 77t7 77l6 50h40l8 -83l8 -83l2 -38q4 42 5 81t5 79q2 10 3 21t1 23h30l-20 -244h-46q-4 48 -9 96t-7 98q-2 -36 -5 -73t-7 -73l-4 -48h-46l-12 136l-12 -136h-44q-6 48 -11 96t-7 98l-4 -73t-6 -73l-6 -48h-46l-12 140l-10 -140h-46
q-6 48 -10 96t-6 96q-2 -36 -5 -72t-7 -72l-6 -48h-44l-22 244h30q6 -52 9 -102t5 -102q4 38 6 77t8 77l6 50h38q6 -42 10 -83t6 -83l4 -38l4 81t6 79l4 44h42l8 -102t6 -102q4 38 6 77t6 77q2 12 3 24t3 26h40q6 -42 9 -83t7 -83l2 -38q4 42 6 81t6 79zM1254 734h-1130v22
h1130v-22zM1254 -194h-1130v22h1130v-22zM790 -38h-36v244h36h23t21 -4q16 -8 21 -28t5 -36v-19t-2 -22t-7 -20t-15 -13l30 -102h-38l-22 96h-16v-96zM1032 16v-54h-32v244h32l24 -86t22 -86q-4 44 -4 86v86h32v-244h-34l-24 83t-22 83q2 -28 3 -56t3 -56zM656 -38h-34
l30 244h56l30 -244h-34l-8 58h-32zM1202 114q2 12 1 24t-5 24q-4 8 -11 13t-15 -5q-6 -8 -7 -21t-1 -23q-2 -12 -2 -24v-22v-24t2 -22q0 -10 2 -23t12 -17q10 -6 16 1t8 20t2 25v18h-24v28h58v-124h-26l-2 34q-2 -12 -7 -23t-17 -13q-10 -4 -21 1t-19 13q-14 18 -16 43
t-2 45q-2 26 -1 52t9 50q2 12 7 22t15 14q10 6 22 7t22 -3q12 -4 19 -14t10 -23t4 -26t1 -23zM274 330q4 8 11 14t17 8q8 2 16 -2t16 0l-18 -34q-2 -4 -5 -11t1 -9q4 -4 10 2t12 14q2 4 5 9t5 11l8 18q8 0 16 4l-20 -38l-5 -10t1 -10t10 2t10 12q4 10 10 20t10 18q4 10 8 19
t10 17q8 -2 14 4l-28 -56q-2 -4 -4 -9t-4 -11q-2 -4 -4 -12t6 -4q4 2 9 7t9 11q2 8 8 16q4 8 11 14t17 8q8 2 16 -2t18 0q-6 -8 -10 -17t-8 -17q-2 -4 -5 -11t-1 -9q4 -2 7 0t7 5t7 8t5 7v2l32 66q8 0 14 4q-6 -12 -11 -24t-13 -22q8 6 17 11t17 -7q6 -10 0 -23t-12 -21
q6 0 11 3t9 7l9 18t11 18l18 36q6 -2 12 4l-12 -28t-14 -28q-2 -4 -5 -9t-5 -11q-2 -2 -3 -5t-1 -6t1 -5t7 0q4 2 10 8t8 12q4 14 12 22q4 4 10 8t14 6t14 1t8 -11q0 -8 -4 -15t-12 -11t-17 -7t-15 -3q0 -6 4 -9t10 -3q12 0 23 7t17 17l4 -2q-8 -14 -23 -22t-31 -6
q-16 4 -16 18q-4 -4 -8 -9t-8 -7q-8 -4 -15 -1t-5 13v2q-2 -2 -4 -2q-4 -4 -12 -4h-8q-2 0 -3 -2t-3 -2q-10 -6 -21 -5t-17 11q-8 -8 -18 -12q-8 -2 -12 3t0 13q-6 -6 -14 -13t-18 -1q-6 4 -6 14q-6 -8 -14 -14q-8 -4 -15 -1t-7 11q-6 -8 -10 -10q-8 -4 -16 -1t-6 11
q-4 -4 -8 -7t-8 -5q-10 -2 -13 3t1 13h-2q-4 -6 -13 -13t-17 -1q-6 2 -7 7t1 9q-6 -4 -10 -6t-14 -2q-4 0 -5 -1t-5 -3t-11 -4t-12 -1t-8 5t-1 12q2 12 8 23l12 21q4 0 12 4q-2 -8 -5 -15t-7 -15q-2 -2 -5 -7t-5 -10t-2 -9t4 -4q10 -2 18 8t10 14q6 8 9 18t3 18q8 2 9 -5
t-1 -13q-4 -16 -18 -30q8 -2 15 3t11 11zM992 448q-10 0 -17 5t-10 13t-4 18t-1 18q-2 18 -2 39t6 39q2 8 8 15t14 7q20 6 32 -12q8 -18 8 -38v-38v-21t-4 -21t-11 -17t-19 -7zM438 448q-10 0 -17 5t-10 13t-4 18t-3 18v39t6 39q2 8 7 15t15 7q22 6 32 -12q8 -18 8 -38v-38
q0 -10 -1 -21t-4 -21t-10 -17t-19 -7zM916 -38h-34v244h34v-244zM274 450h-20v152h22h15t13 -2q10 -6 13 -17t3 -21t-2 -27t-14 -21l18 -64h-24l-12 60q-4 0 -6 1t-6 1v-62zM1056 484v-34h-20v152h18l16 -53t14 -53q-2 26 -2 53v53h20v-152h-22q-8 26 -15 52t-13 52
q2 -18 2 -35t2 -35zM138 450h-22v152h34q26 0 32 -26q4 -14 3 -32t-9 -32q-6 -10 -17 -11t-21 -1v-50zM502 484v-34h-20v152h18l16 -53t14 -53q-2 26 -3 53t-1 53h20v-152h-20q-8 26 -15 52t-13 52q2 -18 2 -35t2 -35zM574 450h-22l18 152h36l18 -152h-20l-6 36h-20z
M750 448q-14 0 -22 9t-10 21t-2 26v26v72h22v-106v-11t2 -9q2 -6 7 -8t9 2q6 6 6 14v14q2 12 1 24t-1 24v56h22v-72q0 -12 1 -26t-2 -26t-10 -21t-23 -9zM1140 350q4 0 12 4q-2 -6 -5 -11t-7 -9v-2q6 8 15 14t17 8q12 0 12 -9t-4 -17q-2 -4 -9 -15t-5 -15t6 -3t7 5t7 8t6 8
l18 38h-8l4 6h8l8 16q8 0 14 4l-10 -20h14l-4 -6h-14l-18 -38l-5 -10t-1 -10q4 -2 8 0t8 7l7 9t5 6l4 -2l-13 -17t-17 -11t-13 2t-1 10l-5 -5t-7 -5q-6 -4 -14 -2t-6 12q0 8 6 16t8 14q2 4 4 10t-4 6q-12 -2 -21 -14t-13 -20q-4 -6 -7 -12t-5 -12h-12l6 16v-2q-4 -2 -10 -4
h-10q-4 -6 -10 -8t-8 -2q-10 -4 -18 4q-8 6 -7 17t5 21q6 8 15 16t21 8q10 0 14 -6t4 -14t-3 -17t-7 -15q12 0 20 12zM354 520q-24 16 -26 40q-2 10 2 22t14 18q10 4 22 3t20 -9q10 -8 10 -19v-21h-12h-10v13t-4 11q-10 8 -15 1t-7 -15q0 -10 8 -17t16 -13t14 -14t8 -16
q2 -12 0 -22t-7 -18t-14 -13t-21 -3q-20 4 -22 20t-2 32h20v-11v-9q2 -6 8 -10t12 0q4 4 5 13t-1 15q-2 8 -7 13t-11 9zM820 520q-22 14 -26 40q-2 10 2 22t14 18q10 4 22 3t20 -9q10 -8 9 -19t-1 -21h-9h-11q0 6 1 13t-5 11q-8 8 -14 1t-6 -15q0 -10 7 -17t15 -13
q16 -12 22 -30q2 -12 1 -22t-7 -18t-15 -13t-21 -3q-20 4 -22 20t-2 32h22q0 -6 -1 -11t1 -9q2 -6 7 -10t11 0t7 13t-1 15q-2 8 -7 13t-13 9zM248 450h-56v152h56v-20h-34v-44h28v-22h-28v-46h34v-20zM924 450h-54v152h54v-20h-32v-44h28v-22h-28v-46h32v-20zM178 322
l-42 -2q-6 -8 -10 -17t-4 -19q-8 -2 -10 2t0 11t5 14t5 9l-14 -2l-6 8h24q10 18 25 35t35 27q6 4 16 5t12 -11q2 -4 0 -10t-4 -10q-6 -10 -10 -20t-10 -18q-2 -8 -8 -18t-4 -18q-8 -2 -10 2t0 10t5 12zM1212 602h22q-6 -22 -11 -43t-9 -43q-6 -16 -4 -33t2 -33h-24
q0 16 1 33t-3 33q-6 22 -11 43t-9 43h20l8 -39t6 -39q0 20 4 39zM850 290q-8 4 -6 11t4 13l18 36q6 0 14 4l-14 -28q-2 -4 -8 -14t-2 -14q6 -6 15 2t11 12q4 4 6 7t4 9l12 24q4 0 12 2q-4 -10 -8 -19t-10 -19l-5 -10t1 -10t10 2t10 12q4 10 10 20t10 18q4 10 8 19t10 17
q6 -2 14 4l-28 -56l-10 -20q-2 -4 -3 -12t7 -4t14 14q4 10 10 20t10 18q4 10 8 19t10 17q6 -2 14 4l-28 -56l-10 -20q0 -2 -1 -5l-2 -6t0 -5t7 0t11 9l9 13l4 -2l-11 -15t-13 -11q-6 -4 -13 -1t-7 11q-6 -6 -12 -10t-13 -1t-7 11q-4 -4 -9 -8t-11 -4q-8 0 -9 6t1 12
q-6 -8 -16 -15t-18 -1zM1164 450h-54v152h22v-134h32v-18zM684 450h-54v152h22v-134h32v-18zM790 84q6 0 12 -1t12 3q8 8 10 20t2 22q0 12 -2 25t-10 21q-4 4 -11 4h-13v-94zM724 350q6 0 14 4q-2 -6 -5 -11t-7 -9v-2q6 8 15 14t17 8q12 0 12 -9t-4 -17q-2 -4 -10 -15
t-4 -15q2 -4 6 -2t8 7t8 9t4 6l4 -2l-9 -13t-13 -13q-8 -4 -15 -2t-5 12q0 8 6 16t8 14q2 2 3 5t1 5t-1 4t-5 2q-10 -2 -19 -14t-13 -20l-12 -24h-12l4 8q-2 -2 -4 -3t-4 -3q-8 -4 -15 -1t-5 13q0 8 4 15t8 15q6 8 8 18q10 0 16 4l-20 -38l-5 -10t1 -10q2 -2 6 0t8 7l7 9
t5 6zM992 584q-6 0 -9 -7t-4 -17t0 -20t1 -14t-1 -14t0 -20t4 -17t9 -7t9 7t4 17t1 20v14v14t-1 20t-4 17t-9 7zM438 584q-6 0 -9 -7t-4 -17t0 -20t1 -14t-1 -14t0 -20t4 -17t9 -7t9 7t4 17t0 20t-1 14t1 14t0 20t-4 17t-9 7zM1240 602h22q0 -28 -1 -56t-3 -58h-14
q-2 30 -3 57t-1 57zM202 386q-8 2 -19 -7t-15 -13q-16 -18 -30 -40h42l14 28q0 2 3 7t5 11t3 10t-3 4zM1088 374q-4 -4 -6 0t0 8q-12 4 -17 -6t-7 -16h14l-4 -6h-14l-44 -90q-4 0 -14 -2l46 92h-14l2 6h16q2 8 7 16t15 10q6 2 16 -2q2 0 5 -4t-1 -6zM884 374q-4 -4 -6 0
t-2 8q-10 4 -16 -6t-8 -16h14l-2 -6h-14l-44 -90q-6 0 -14 -2l46 92h-16l4 6h14q4 8 9 16t15 10q6 2 14 -2q2 0 6 -4t0 -6zM672 94q-2 -10 -3 -20t-3 -20h28q-2 28 -7 58t-7 60l-4 -39zM138 518q4 0 9 -1t7 3q6 6 6 15v15v17t-6 13q-2 6 -7 5t-9 -1v-66zM1094 348
q-8 0 -15 -9t-11 -19t-4 -19t8 -9q6 0 13 9t12 20t5 19t-8 8zM978 -18q0 -10 -6 -15t-14 -5t-14 5t-6 15t6 15t14 5t14 -5t6 -15zM612 -18q0 -10 -6 -15t-14 -5t-14 5t-6 15t6 15t14 5t14 -5t6 -15zM512 346q-8 0 -13 -5t-10 -13t-8 -16t-7 -14q12 -8 22 0t14 16q2 2 5 7
t4 11t0 10t-7 4zM280 294q8 0 14 6t10 14t8 17t6 15q-10 4 -20 -4t-14 -16q-2 -2 -5 -7t-4 -10t-1 -10t6 -5zM274 526h8t8 2q6 4 7 12t1 16q0 6 -1 14t-7 12q-4 2 -7 2h-9v-58zM416 294q6 0 12 6t11 14t8 17t7 15q-12 4 -21 -4t-15 -16q0 -2 -3 -7t-5 -10t-1 -10t7 -5z
M588 324q-2 -4 -3 -7t-3 -7q12 0 25 10t13 22q0 8 -5 7t-11 -5q-4 -4 -8 -9t-8 -11zM582 532l-2 -24h16l-4 36l-4 36q0 -12 -2 -24zM1262 462q0 -6 -4 -9t-8 -3t-8 3t-4 9t4 10t8 4t8 -4t4 -10zM716 370q-4 -6 -11 -4t-5 10q0 4 4 5t8 0t5 -4t-1 -7zM376 370q-2 -6 -10 -4
t-6 10q2 4 5 5t7 0t6 -4t-2 -7zM1244 294q-4 -8 -12 -5t-4 11t12 4t4 -10zM1264 340q-2 -4 -5 -5t-6 0t-4 4t1 7q4 6 11 3t3 -9z" />
    <glyph glyph-name="two" unicode="2" horiz-adv-x="1372" 
d="M408 206h42l8 -102t6 -102q2 38 5 77t7 77l6 50h40l8 -83l8 -83l2 -38q4 42 5 81t5 79q2 10 3 21t1 23h30l-20 -244h-46q-4 48 -9 96t-7 98q-2 -36 -5 -73t-7 -73l-4 -48h-46l-12 136l-12 -136h-44q-6 48 -11 96t-7 98l-4 -73t-6 -73l-6 -48h-46l-12 140l-10 -140h-46
q-6 48 -10 96t-6 96q-2 -36 -5 -72t-7 -72l-6 -48h-44l-22 244h30q6 -52 9 -102t5 -102q4 38 6 77t8 77l6 50h38q6 -42 10 -83t6 -83l4 -38l4 81t6 79l4 44h42l8 -102t6 -102q4 38 6 77t6 77q2 12 3 24t3 26h40q6 -42 9 -83t7 -83l2 -38q4 42 6 81t6 79zM1254 734h-1130v22
h1130v-22zM1254 -194h-1130v22h1130v-22zM790 -38h-36v244h36h23t21 -4q16 -8 21 -28t5 -36v-19t-2 -22t-7 -20t-15 -13l30 -102h-38l-22 96h-16v-96zM1032 16v-54h-32v244h32l24 -86t22 -86q-4 44 -4 86v86h32v-244h-34l-24 83t-22 83q2 -28 3 -56t3 -56zM656 -38h-34
l30 244h56l30 -244h-34l-8 58h-32zM1202 114q2 12 1 24t-5 24q-4 8 -11 13t-15 -5q-6 -8 -7 -21t-1 -23q-2 -12 -2 -24v-22v-24t2 -22q0 -10 2 -23t12 -17q10 -6 16 1t8 20t2 25v18h-24v28h58v-124h-26l-2 34q-2 -12 -7 -23t-17 -13q-10 -4 -21 1t-19 13q-14 18 -16 43
t-2 45q-2 26 -1 52t9 50q2 12 7 22t15 14q10 6 22 7t22 -3q12 -4 19 -14t10 -23t4 -26t1 -23zM274 330q4 8 11 14t17 8q8 2 16 -2t16 0l-18 -34q-2 -4 -5 -11t1 -9q4 -4 10 2t12 14q2 4 5 9t5 11l8 18q8 0 16 4l-20 -38l-5 -10t1 -10t10 2t10 12q4 10 10 20t10 18q4 10 8 19
t10 17q8 -2 14 4l-28 -56q-2 -4 -4 -9t-4 -11q-2 -4 -4 -12t6 -4q4 2 9 7t9 11q2 8 8 16q4 8 11 14t17 8q8 2 16 -2t18 0q-6 -8 -10 -17t-8 -17q-2 -4 -5 -11t-1 -9q4 -2 7 0t7 5t7 8t5 7v2l32 66q8 0 14 4q-6 -12 -11 -24t-13 -22q8 6 17 11t17 -7q6 -10 0 -23t-12 -21
q6 0 11 3t9 7l9 18t11 18l18 36q6 -2 12 4l-12 -28t-14 -28q-2 -4 -5 -9t-5 -11q-2 -2 -3 -5t-1 -6t1 -5t7 0q4 2 10 8t8 12q4 14 12 22q4 4 10 8t14 6t14 1t8 -11q0 -8 -4 -15t-12 -11t-17 -7t-15 -3q0 -6 4 -9t10 -3q12 0 23 7t17 17l4 -2q-8 -14 -23 -22t-31 -6
q-16 4 -16 18q-4 -4 -8 -9t-8 -7q-8 -4 -15 -1t-5 13v2q-2 -2 -4 -2q-4 -4 -12 -4h-8q-2 0 -3 -2t-3 -2q-10 -6 -21 -5t-17 11q-8 -8 -18 -12q-8 -2 -12 3t0 13q-6 -6 -14 -13t-18 -1q-6 4 -6 14q-6 -8 -14 -14q-8 -4 -15 -1t-7 11q-6 -8 -10 -10q-8 -4 -16 -1t-6 11
q-4 -4 -8 -7t-8 -5q-10 -2 -13 3t1 13h-2q-4 -6 -13 -13t-17 -1q-6 2 -7 7t1 9q-6 -4 -10 -6t-14 -2q-4 0 -5 -1t-5 -3t-11 -4t-12 -1t-8 5t-1 12q2 12 8 23l12 21q4 0 12 4q-2 -8 -5 -15t-7 -15q-2 -2 -5 -7t-5 -10t-2 -9t4 -4q10 -2 18 8t10 14q6 8 9 18t3 18q8 2 9 -5
t-1 -13q-4 -16 -18 -30q8 -2 15 3t11 11zM992 448q-10 0 -17 5t-10 13t-4 18t-1 18q-2 18 -2 39t6 39q2 8 8 15t14 7q20 6 32 -12q8 -18 8 -38v-38v-21t-4 -21t-11 -17t-19 -7zM438 448q-10 0 -17 5t-10 13t-4 18t-3 18v39t6 39q2 8 7 15t15 7q22 6 32 -12q8 -18 8 -38v-38
q0 -10 -1 -21t-4 -21t-10 -17t-19 -7zM916 -38h-34v244h34v-244zM274 450h-20v152h22h15t13 -2q10 -6 13 -17t3 -21t-2 -27t-14 -21l18 -64h-24l-12 60q-4 0 -6 1t-6 1v-62zM1056 484v-34h-20v152h18l16 -53t14 -53q-2 26 -2 53v53h20v-152h-22q-8 26 -15 52t-13 52
q2 -18 2 -35t2 -35zM138 450h-22v152h34q26 0 32 -26q4 -14 3 -32t-9 -32q-6 -10 -17 -11t-21 -1v-50zM502 484v-34h-20v152h18l16 -53t14 -53q-2 26 -3 53t-1 53h20v-152h-20q-8 26 -15 52t-13 52q2 -18 2 -35t2 -35zM574 450h-22l18 152h36l18 -152h-20l-6 36h-20z
M750 448q-14 0 -22 9t-10 21t-2 26v26v72h22v-106v-11t2 -9q2 -6 7 -8t9 2q6 6 6 14v14q2 12 1 24t-1 24v56h22v-72q0 -12 1 -26t-2 -26t-10 -21t-23 -9zM1140 350q4 0 12 4q-2 -6 -5 -11t-7 -9v-2q6 8 15 14t17 8q12 0 12 -9t-4 -17q-2 -4 -9 -15t-5 -15t6 -3t7 5t7 8t6 8
l18 38h-8l4 6h8l8 16q8 0 14 4l-10 -20h14l-4 -6h-14l-18 -38l-5 -10t-1 -10q4 -2 8 0t8 7l7 9t5 6l4 -2l-13 -17t-17 -11t-13 2t-1 10l-5 -5t-7 -5q-6 -4 -14 -2t-6 12q0 8 6 16t8 14q2 4 4 10t-4 6q-12 -2 -21 -14t-13 -20q-4 -6 -7 -12t-5 -12h-12l6 16v-2q-4 -2 -10 -4
h-10q-4 -6 -10 -8t-8 -2q-10 -4 -18 4q-8 6 -7 17t5 21q6 8 15 16t21 8q10 0 14 -6t4 -14t-3 -17t-7 -15q12 0 20 12zM354 520q-24 16 -26 40q-2 10 2 22t14 18q10 4 22 3t20 -9q10 -8 10 -19v-21h-12h-10v13t-4 11q-10 8 -15 1t-7 -15q0 -10 8 -17t16 -13t14 -14t8 -16
q2 -12 0 -22t-7 -18t-14 -13t-21 -3q-20 4 -22 20t-2 32h20v-11v-9q2 -6 8 -10t12 0q4 4 5 13t-1 15q-2 8 -7 13t-11 9zM820 520q-22 14 -26 40q-2 10 2 22t14 18q10 4 22 3t20 -9q10 -8 9 -19t-1 -21h-9h-11q0 6 1 13t-5 11q-8 8 -14 1t-6 -15q0 -10 7 -17t15 -13
q16 -12 22 -30q2 -12 1 -22t-7 -18t-15 -13t-21 -3q-20 4 -22 20t-2 32h22q0 -6 -1 -11t1 -9q2 -6 7 -10t11 0t7 13t-1 15q-2 8 -7 13t-13 9zM248 450h-56v152h56v-20h-34v-44h28v-22h-28v-46h34v-20zM924 450h-54v152h54v-20h-32v-44h28v-22h-28v-46h32v-20zM178 322
l-42 -2q-6 -8 -10 -17t-4 -19q-8 -2 -10 2t0 11t5 14t5 9l-14 -2l-6 8h24q10 18 25 35t35 27q6 4 16 5t12 -11q2 -4 0 -10t-4 -10q-6 -10 -10 -20t-10 -18q-2 -8 -8 -18t-4 -18q-8 -2 -10 2t0 10t5 12zM1212 602h22q-6 -22 -11 -43t-9 -43q-6 -16 -4 -33t2 -33h-24
q0 16 1 33t-3 33q-6 22 -11 43t-9 43h20l8 -39t6 -39q0 20 4 39zM850 290q-8 4 -6 11t4 13l18 36q6 0 14 4l-14 -28q-2 -4 -8 -14t-2 -14q6 -6 15 2t11 12q4 4 6 7t4 9l12 24q4 0 12 2q-4 -10 -8 -19t-10 -19l-5 -10t1 -10t10 2t10 12q4 10 10 20t10 18q4 10 8 19t10 17
q6 -2 14 4l-28 -56l-10 -20q-2 -4 -3 -12t7 -4t14 14q4 10 10 20t10 18q4 10 8 19t10 17q6 -2 14 4l-28 -56l-10 -20q0 -2 -1 -5l-2 -6t0 -5t7 0t11 9l9 13l4 -2l-11 -15t-13 -11q-6 -4 -13 -1t-7 11q-6 -6 -12 -10t-13 -1t-7 11q-4 -4 -9 -8t-11 -4q-8 0 -9 6t1 12
q-6 -8 -16 -15t-18 -1zM1164 450h-54v152h22v-134h32v-18zM684 450h-54v152h22v-134h32v-18zM790 84q6 0 12 -1t12 3q8 8 10 20t2 22q0 12 -2 25t-10 21q-4 4 -11 4h-13v-94zM724 350q6 0 14 4q-2 -6 -5 -11t-7 -9v-2q6 8 15 14t17 8q12 0 12 -9t-4 -17q-2 -4 -10 -15
t-4 -15q2 -4 6 -2t8 7t8 9t4 6l4 -2l-9 -13t-13 -13q-8 -4 -15 -2t-5 12q0 8 6 16t8 14q2 2 3 5t1 5t-1 4t-5 2q-10 -2 -19 -14t-13 -20l-12 -24h-12l4 8q-2 -2 -4 -3t-4 -3q-8 -4 -15 -1t-5 13q0 8 4 15t8 15q6 8 8 18q10 0 16 4l-20 -38l-5 -10t1 -10q2 -2 6 0t8 7l7 9
t5 6zM992 584q-6 0 -9 -7t-4 -17t0 -20t1 -14t-1 -14t0 -20t4 -17t9 -7t9 7t4 17t1 20v14v14t-1 20t-4 17t-9 7zM438 584q-6 0 -9 -7t-4 -17t0 -20t1 -14t-1 -14t0 -20t4 -17t9 -7t9 7t4 17t0 20t-1 14t1 14t0 20t-4 17t-9 7zM1240 602h22q0 -28 -1 -56t-3 -58h-14
q-2 30 -3 57t-1 57zM202 386q-8 2 -19 -7t-15 -13q-16 -18 -30 -40h42l14 28q0 2 3 7t5 11t3 10t-3 4zM1088 374q-4 -4 -6 0t0 8q-12 4 -17 -6t-7 -16h14l-4 -6h-14l-44 -90q-4 0 -14 -2l46 92h-14l2 6h16q2 8 7 16t15 10q6 2 16 -2q2 0 5 -4t-1 -6zM884 374q-4 -4 -6 0
t-2 8q-10 4 -16 -6t-8 -16h14l-2 -6h-14l-44 -90q-6 0 -14 -2l46 92h-16l4 6h14q4 8 9 16t15 10q6 2 14 -2q2 0 6 -4t0 -6zM672 94q-2 -10 -3 -20t-3 -20h28q-2 28 -7 58t-7 60l-4 -39zM138 518q4 0 9 -1t7 3q6 6 6 15v15v17t-6 13q-2 6 -7 5t-9 -1v-66zM1094 348
q-8 0 -15 -9t-11 -19t-4 -19t8 -9q6 0 13 9t12 20t5 19t-8 8zM978 -18q0 -10 -6 -15t-14 -5t-14 5t-6 15t6 15t14 5t14 -5t6 -15zM612 -18q0 -10 -6 -15t-14 -5t-14 5t-6 15t6 15t14 5t14 -5t6 -15zM512 346q-8 0 -13 -5t-10 -13t-8 -16t-7 -14q12 -8 22 0t14 16q2 2 5 7
t4 11t0 10t-7 4zM280 294q8 0 14 6t10 14t8 17t6 15q-10 4 -20 -4t-14 -16q-2 -2 -5 -7t-4 -10t-1 -10t6 -5zM274 526h8t8 2q6 4 7 12t1 16q0 6 -1 14t-7 12q-4 2 -7 2h-9v-58zM416 294q6 0 12 6t11 14t8 17t7 15q-12 4 -21 -4t-15 -16q0 -2 -3 -7t-5 -10t-1 -10t7 -5z
M588 324q-2 -4 -3 -7t-3 -7q12 0 25 10t13 22q0 8 -5 7t-11 -5q-4 -4 -8 -9t-8 -11zM582 532l-2 -24h16l-4 36l-4 36q0 -12 -2 -24zM1262 462q0 -6 -4 -9t-8 -3t-8 3t-4 9t4 10t8 4t8 -4t4 -10zM716 370q-4 -6 -11 -4t-5 10q0 4 4 5t8 0t5 -4t-1 -7zM376 370q-2 -6 -10 -4
t-6 10q2 4 5 5t7 0t6 -4t-2 -7zM1244 294q-4 -8 -12 -5t-4 11t12 4t4 -10zM1264 340q-2 -4 -5 -5t-6 0t-4 4t1 7q4 6 11 3t3 -9z" />
    <glyph glyph-name="three" unicode="3" horiz-adv-x="1372" 
d="M408 206h42l8 -102t6 -102q2 38 5 77t7 77l6 50h40l8 -83l8 -83l2 -38q4 42 5 81t5 79q2 10 3 21t1 23h30l-20 -244h-46q-4 48 -9 96t-7 98q-2 -36 -5 -73t-7 -73l-4 -48h-46l-12 136l-12 -136h-44q-6 48 -11 96t-7 98l-4 -73t-6 -73l-6 -48h-46l-12 140l-10 -140h-46
q-6 48 -10 96t-6 96q-2 -36 -5 -72t-7 -72l-6 -48h-44l-22 244h30q6 -52 9 -102t5 -102q4 38 6 77t8 77l6 50h38q6 -42 10 -83t6 -83l4 -38l4 81t6 79l4 44h42l8 -102t6 -102q4 38 6 77t6 77q2 12 3 24t3 26h40q6 -42 9 -83t7 -83l2 -38q4 42 6 81t6 79zM1254 734h-1130v22
h1130v-22zM1254 -194h-1130v22h1130v-22zM790 -38h-36v244h36h23t21 -4q16 -8 21 -28t5 -36v-19t-2 -22t-7 -20t-15 -13l30 -102h-38l-22 96h-16v-96zM1032 16v-54h-32v244h32l24 -86t22 -86q-4 44 -4 86v86h32v-244h-34l-24 83t-22 83q2 -28 3 -56t3 -56zM656 -38h-34
l30 244h56l30 -244h-34l-8 58h-32zM1202 114q2 12 1 24t-5 24q-4 8 -11 13t-15 -5q-6 -8 -7 -21t-1 -23q-2 -12 -2 -24v-22v-24t2 -22q0 -10 2 -23t12 -17q10 -6 16 1t8 20t2 25v18h-24v28h58v-124h-26l-2 34q-2 -12 -7 -23t-17 -13q-10 -4 -21 1t-19 13q-14 18 -16 43
t-2 45q-2 26 -1 52t9 50q2 12 7 22t15 14q10 6 22 7t22 -3q12 -4 19 -14t10 -23t4 -26t1 -23zM274 330q4 8 11 14t17 8q8 2 16 -2t16 0l-18 -34q-2 -4 -5 -11t1 -9q4 -4 10 2t12 14q2 4 5 9t5 11l8 18q8 0 16 4l-20 -38l-5 -10t1 -10t10 2t10 12q4 10 10 20t10 18q4 10 8 19
t10 17q8 -2 14 4l-28 -56q-2 -4 -4 -9t-4 -11q-2 -4 -4 -12t6 -4q4 2 9 7t9 11q2 8 8 16q4 8 11 14t17 8q8 2 16 -2t18 0q-6 -8 -10 -17t-8 -17q-2 -4 -5 -11t-1 -9q4 -2 7 0t7 5t7 8t5 7v2l32 66q8 0 14 4q-6 -12 -11 -24t-13 -22q8 6 17 11t17 -7q6 -10 0 -23t-12 -21
q6 0 11 3t9 7l9 18t11 18l18 36q6 -2 12 4l-12 -28t-14 -28q-2 -4 -5 -9t-5 -11q-2 -2 -3 -5t-1 -6t1 -5t7 0q4 2 10 8t8 12q4 14 12 22q4 4 10 8t14 6t14 1t8 -11q0 -8 -4 -15t-12 -11t-17 -7t-15 -3q0 -6 4 -9t10 -3q12 0 23 7t17 17l4 -2q-8 -14 -23 -22t-31 -6
q-16 4 -16 18q-4 -4 -8 -9t-8 -7q-8 -4 -15 -1t-5 13v2q-2 -2 -4 -2q-4 -4 -12 -4h-8q-2 0 -3 -2t-3 -2q-10 -6 -21 -5t-17 11q-8 -8 -18 -12q-8 -2 -12 3t0 13q-6 -6 -14 -13t-18 -1q-6 4 -6 14q-6 -8 -14 -14q-8 -4 -15 -1t-7 11q-6 -8 -10 -10q-8 -4 -16 -1t-6 11
q-4 -4 -8 -7t-8 -5q-10 -2 -13 3t1 13h-2q-4 -6 -13 -13t-17 -1q-6 2 -7 7t1 9q-6 -4 -10 -6t-14 -2q-4 0 -5 -1t-5 -3t-11 -4t-12 -1t-8 5t-1 12q2 12 8 23l12 21q4 0 12 4q-2 -8 -5 -15t-7 -15q-2 -2 -5 -7t-5 -10t-2 -9t4 -4q10 -2 18 8t10 14q6 8 9 18t3 18q8 2 9 -5
t-1 -13q-4 -16 -18 -30q8 -2 15 3t11 11zM992 448q-10 0 -17 5t-10 13t-4 18t-1 18q-2 18 -2 39t6 39q2 8 8 15t14 7q20 6 32 -12q8 -18 8 -38v-38v-21t-4 -21t-11 -17t-19 -7zM438 448q-10 0 -17 5t-10 13t-4 18t-3 18v39t6 39q2 8 7 15t15 7q22 6 32 -12q8 -18 8 -38v-38
q0 -10 -1 -21t-4 -21t-10 -17t-19 -7zM916 -38h-34v244h34v-244zM274 450h-20v152h22h15t13 -2q10 -6 13 -17t3 -21t-2 -27t-14 -21l18 -64h-24l-12 60q-4 0 -6 1t-6 1v-62zM1056 484v-34h-20v152h18l16 -53t14 -53q-2 26 -2 53v53h20v-152h-22q-8 26 -15 52t-13 52
q2 -18 2 -35t2 -35zM138 450h-22v152h34q26 0 32 -26q4 -14 3 -32t-9 -32q-6 -10 -17 -11t-21 -1v-50zM502 484v-34h-20v152h18l16 -53t14 -53q-2 26 -3 53t-1 53h20v-152h-20q-8 26 -15 52t-13 52q2 -18 2 -35t2 -35zM574 450h-22l18 152h36l18 -152h-20l-6 36h-20z
M750 448q-14 0 -22 9t-10 21t-2 26v26v72h22v-106v-11t2 -9q2 -6 7 -8t9 2q6 6 6 14v14q2 12 1 24t-1 24v56h22v-72q0 -12 1 -26t-2 -26t-10 -21t-23 -9zM1140 350q4 0 12 4q-2 -6 -5 -11t-7 -9v-2q6 8 15 14t17 8q12 0 12 -9t-4 -17q-2 -4 -9 -15t-5 -15t6 -3t7 5t7 8t6 8
l18 38h-8l4 6h8l8 16q8 0 14 4l-10 -20h14l-4 -6h-14l-18 -38l-5 -10t-1 -10q4 -2 8 0t8 7l7 9t5 6l4 -2l-13 -17t-17 -11t-13 2t-1 10l-5 -5t-7 -5q-6 -4 -14 -2t-6 12q0 8 6 16t8 14q2 4 4 10t-4 6q-12 -2 -21 -14t-13 -20q-4 -6 -7 -12t-5 -12h-12l6 16v-2q-4 -2 -10 -4
h-10q-4 -6 -10 -8t-8 -2q-10 -4 -18 4q-8 6 -7 17t5 21q6 8 15 16t21 8q10 0 14 -6t4 -14t-3 -17t-7 -15q12 0 20 12zM354 520q-24 16 -26 40q-2 10 2 22t14 18q10 4 22 3t20 -9q10 -8 10 -19v-21h-12h-10v13t-4 11q-10 8 -15 1t-7 -15q0 -10 8 -17t16 -13t14 -14t8 -16
q2 -12 0 -22t-7 -18t-14 -13t-21 -3q-20 4 -22 20t-2 32h20v-11v-9q2 -6 8 -10t12 0q4 4 5 13t-1 15q-2 8 -7 13t-11 9zM820 520q-22 14 -26 40q-2 10 2 22t14 18q10 4 22 3t20 -9q10 -8 9 -19t-1 -21h-9h-11q0 6 1 13t-5 11q-8 8 -14 1t-6 -15q0 -10 7 -17t15 -13
q16 -12 22 -30q2 -12 1 -22t-7 -18t-15 -13t-21 -3q-20 4 -22 20t-2 32h22q0 -6 -1 -11t1 -9q2 -6 7 -10t11 0t7 13t-1 15q-2 8 -7 13t-13 9zM248 450h-56v152h56v-20h-34v-44h28v-22h-28v-46h34v-20zM924 450h-54v152h54v-20h-32v-44h28v-22h-28v-46h32v-20zM178 322
l-42 -2q-6 -8 -10 -17t-4 -19q-8 -2 -10 2t0 11t5 14t5 9l-14 -2l-6 8h24q10 18 25 35t35 27q6 4 16 5t12 -11q2 -4 0 -10t-4 -10q-6 -10 -10 -20t-10 -18q-2 -8 -8 -18t-4 -18q-8 -2 -10 2t0 10t5 12zM1212 602h22q-6 -22 -11 -43t-9 -43q-6 -16 -4 -33t2 -33h-24
q0 16 1 33t-3 33q-6 22 -11 43t-9 43h20l8 -39t6 -39q0 20 4 39zM850 290q-8 4 -6 11t4 13l18 36q6 0 14 4l-14 -28q-2 -4 -8 -14t-2 -14q6 -6 15 2t11 12q4 4 6 7t4 9l12 24q4 0 12 2q-4 -10 -8 -19t-10 -19l-5 -10t1 -10t10 2t10 12q4 10 10 20t10 18q4 10 8 19t10 17
q6 -2 14 4l-28 -56l-10 -20q-2 -4 -3 -12t7 -4t14 14q4 10 10 20t10 18q4 10 8 19t10 17q6 -2 14 4l-28 -56l-10 -20q0 -2 -1 -5l-2 -6t0 -5t7 0t11 9l9 13l4 -2l-11 -15t-13 -11q-6 -4 -13 -1t-7 11q-6 -6 -12 -10t-13 -1t-7 11q-4 -4 -9 -8t-11 -4q-8 0 -9 6t1 12
q-6 -8 -16 -15t-18 -1zM1164 450h-54v152h22v-134h32v-18zM684 450h-54v152h22v-134h32v-18zM790 84q6 0 12 -1t12 3q8 8 10 20t2 22q0 12 -2 25t-10 21q-4 4 -11 4h-13v-94zM724 350q6 0 14 4q-2 -6 -5 -11t-7 -9v-2q6 8 15 14t17 8q12 0 12 -9t-4 -17q-2 -4 -10 -15
t-4 -15q2 -4 6 -2t8 7t8 9t4 6l4 -2l-9 -13t-13 -13q-8 -4 -15 -2t-5 12q0 8 6 16t8 14q2 2 3 5t1 5t-1 4t-5 2q-10 -2 -19 -14t-13 -20l-12 -24h-12l4 8q-2 -2 -4 -3t-4 -3q-8 -4 -15 -1t-5 13q0 8 4 15t8 15q6 8 8 18q10 0 16 4l-20 -38l-5 -10t1 -10q2 -2 6 0t8 7l7 9
t5 6zM992 584q-6 0 -9 -7t-4 -17t0 -20t1 -14t-1 -14t0 -20t4 -17t9 -7t9 7t4 17t1 20v14v14t-1 20t-4 17t-9 7zM438 584q-6 0 -9 -7t-4 -17t0 -20t1 -14t-1 -14t0 -20t4 -17t9 -7t9 7t4 17t0 20t-1 14t1 14t0 20t-4 17t-9 7zM1240 602h22q0 -28 -1 -56t-3 -58h-14
q-2 30 -3 57t-1 57zM202 386q-8 2 -19 -7t-15 -13q-16 -18 -30 -40h42l14 28q0 2 3 7t5 11t3 10t-3 4zM1088 374q-4 -4 -6 0t0 8q-12 4 -17 -6t-7 -16h14l-4 -6h-14l-44 -90q-4 0 -14 -2l46 92h-14l2 6h16q2 8 7 16t15 10q6 2 16 -2q2 0 5 -4t-1 -6zM884 374q-4 -4 -6 0
t-2 8q-10 4 -16 -6t-8 -16h14l-2 -6h-14l-44 -90q-6 0 -14 -2l46 92h-16l4 6h14q4 8 9 16t15 10q6 2 14 -2q2 0 6 -4t0 -6zM672 94q-2 -10 -3 -20t-3 -20h28q-2 28 -7 58t-7 60l-4 -39zM138 518q4 0 9 -1t7 3q6 6 6 15v15v17t-6 13q-2 6 -7 5t-9 -1v-66zM1094 348
q-8 0 -15 -9t-11 -19t-4 -19t8 -9q6 0 13 9t12 20t5 19t-8 8zM978 -18q0 -10 -6 -15t-14 -5t-14 5t-6 15t6 15t14 5t14 -5t6 -15zM612 -18q0 -10 -6 -15t-14 -5t-14 5t-6 15t6 15t14 5t14 -5t6 -15zM512 346q-8 0 -13 -5t-10 -13t-8 -16t-7 -14q12 -8 22 0t14 16q2 2 5 7
t4 11t0 10t-7 4zM280 294q8 0 14 6t10 14t8 17t6 15q-10 4 -20 -4t-14 -16q-2 -2 -5 -7t-4 -10t-1 -10t6 -5zM274 526h8t8 2q6 4 7 12t1 16q0 6 -1 14t-7 12q-4 2 -7 2h-9v-58zM416 294q6 0 12 6t11 14t8 17t7 15q-12 4 -21 -4t-15 -16q0 -2 -3 -7t-5 -10t-1 -10t7 -5z
M588 324q-2 -4 -3 -7t-3 -7q12 0 25 10t13 22q0 8 -5 7t-11 -5q-4 -4 -8 -9t-8 -11zM582 532l-2 -24h16l-4 36l-4 36q0 -12 -2 -24zM1262 462q0 -6 -4 -9t-8 -3t-8 3t-4 9t4 10t8 4t8 -4t4 -10zM716 370q-4 -6 -11 -4t-5 10q0 4 4 5t8 0t5 -4t-1 -7zM376 370q-2 -6 -10 -4
t-6 10q2 4 5 5t7 0t6 -4t-2 -7zM1244 294q-4 -8 -12 -5t-4 11t12 4t4 -10zM1264 340q-2 -4 -5 -5t-6 0t-4 4t1 7q4 6 11 3t3 -9z" />
    <glyph glyph-name="four" unicode="4" horiz-adv-x="1372" 
d="M408 206h42l8 -102t6 -102q2 38 5 77t7 77l6 50h40l8 -83l8 -83l2 -38q4 42 5 81t5 79q2 10 3 21t1 23h30l-20 -244h-46q-4 48 -9 96t-7 98q-2 -36 -5 -73t-7 -73l-4 -48h-46l-12 136l-12 -136h-44q-6 48 -11 96t-7 98l-4 -73t-6 -73l-6 -48h-46l-12 140l-10 -140h-46
q-6 48 -10 96t-6 96q-2 -36 -5 -72t-7 -72l-6 -48h-44l-22 244h30q6 -52 9 -102t5 -102q4 38 6 77t8 77l6 50h38q6 -42 10 -83t6 -83l4 -38l4 81t6 79l4 44h42l8 -102t6 -102q4 38 6 77t6 77q2 12 3 24t3 26h40q6 -42 9 -83t7 -83l2 -38q4 42 6 81t6 79zM1254 734h-1130v22
h1130v-22zM1254 -194h-1130v22h1130v-22zM790 -38h-36v244h36h23t21 -4q16 -8 21 -28t5 -36v-19t-2 -22t-7 -20t-15 -13l30 -102h-38l-22 96h-16v-96zM1032 16v-54h-32v244h32l24 -86t22 -86q-4 44 -4 86v86h32v-244h-34l-24 83t-22 83q2 -28 3 -56t3 -56zM656 -38h-34
l30 244h56l30 -244h-34l-8 58h-32zM1202 114q2 12 1 24t-5 24q-4 8 -11 13t-15 -5q-6 -8 -7 -21t-1 -23q-2 -12 -2 -24v-22v-24t2 -22q0 -10 2 -23t12 -17q10 -6 16 1t8 20t2 25v18h-24v28h58v-124h-26l-2 34q-2 -12 -7 -23t-17 -13q-10 -4 -21 1t-19 13q-14 18 -16 43
t-2 45q-2 26 -1 52t9 50q2 12 7 22t15 14q10 6 22 7t22 -3q12 -4 19 -14t10 -23t4 -26t1 -23zM274 330q4 8 11 14t17 8q8 2 16 -2t16 0l-18 -34q-2 -4 -5 -11t1 -9q4 -4 10 2t12 14q2 4 5 9t5 11l8 18q8 0 16 4l-20 -38l-5 -10t1 -10t10 2t10 12q4 10 10 20t10 18q4 10 8 19
t10 17q8 -2 14 4l-28 -56q-2 -4 -4 -9t-4 -11q-2 -4 -4 -12t6 -4q4 2 9 7t9 11q2 8 8 16q4 8 11 14t17 8q8 2 16 -2t18 0q-6 -8 -10 -17t-8 -17q-2 -4 -5 -11t-1 -9q4 -2 7 0t7 5t7 8t5 7v2l32 66q8 0 14 4q-6 -12 -11 -24t-13 -22q8 6 17 11t17 -7q6 -10 0 -23t-12 -21
q6 0 11 3t9 7l9 18t11 18l18 36q6 -2 12 4l-12 -28t-14 -28q-2 -4 -5 -9t-5 -11q-2 -2 -3 -5t-1 -6t1 -5t7 0q4 2 10 8t8 12q4 14 12 22q4 4 10 8t14 6t14 1t8 -11q0 -8 -4 -15t-12 -11t-17 -7t-15 -3q0 -6 4 -9t10 -3q12 0 23 7t17 17l4 -2q-8 -14 -23 -22t-31 -6
q-16 4 -16 18q-4 -4 -8 -9t-8 -7q-8 -4 -15 -1t-5 13v2q-2 -2 -4 -2q-4 -4 -12 -4h-8q-2 0 -3 -2t-3 -2q-10 -6 -21 -5t-17 11q-8 -8 -18 -12q-8 -2 -12 3t0 13q-6 -6 -14 -13t-18 -1q-6 4 -6 14q-6 -8 -14 -14q-8 -4 -15 -1t-7 11q-6 -8 -10 -10q-8 -4 -16 -1t-6 11
q-4 -4 -8 -7t-8 -5q-10 -2 -13 3t1 13h-2q-4 -6 -13 -13t-17 -1q-6 2 -7 7t1 9q-6 -4 -10 -6t-14 -2q-4 0 -5 -1t-5 -3t-11 -4t-12 -1t-8 5t-1 12q2 12 8 23l12 21q4 0 12 4q-2 -8 -5 -15t-7 -15q-2 -2 -5 -7t-5 -10t-2 -9t4 -4q10 -2 18 8t10 14q6 8 9 18t3 18q8 2 9 -5
t-1 -13q-4 -16 -18 -30q8 -2 15 3t11 11zM992 448q-10 0 -17 5t-10 13t-4 18t-1 18q-2 18 -2 39t6 39q2 8 8 15t14 7q20 6 32 -12q8 -18 8 -38v-38v-21t-4 -21t-11 -17t-19 -7zM438 448q-10 0 -17 5t-10 13t-4 18t-3 18v39t6 39q2 8 7 15t15 7q22 6 32 -12q8 -18 8 -38v-38
q0 -10 -1 -21t-4 -21t-10 -17t-19 -7zM916 -38h-34v244h34v-244zM274 450h-20v152h22h15t13 -2q10 -6 13 -17t3 -21t-2 -27t-14 -21l18 -64h-24l-12 60q-4 0 -6 1t-6 1v-62zM1056 484v-34h-20v152h18l16 -53t14 -53q-2 26 -2 53v53h20v-152h-22q-8 26 -15 52t-13 52
q2 -18 2 -35t2 -35zM138 450h-22v152h34q26 0 32 -26q4 -14 3 -32t-9 -32q-6 -10 -17 -11t-21 -1v-50zM502 484v-34h-20v152h18l16 -53t14 -53q-2 26 -3 53t-1 53h20v-152h-20q-8 26 -15 52t-13 52q2 -18 2 -35t2 -35zM574 450h-22l18 152h36l18 -152h-20l-6 36h-20z
M750 448q-14 0 -22 9t-10 21t-2 26v26v72h22v-106v-11t2 -9q2 -6 7 -8t9 2q6 6 6 14v14q2 12 1 24t-1 24v56h22v-72q0 -12 1 -26t-2 -26t-10 -21t-23 -9zM1140 350q4 0 12 4q-2 -6 -5 -11t-7 -9v-2q6 8 15 14t17 8q12 0 12 -9t-4 -17q-2 -4 -9 -15t-5 -15t6 -3t7 5t7 8t6 8
l18 38h-8l4 6h8l8 16q8 0 14 4l-10 -20h14l-4 -6h-14l-18 -38l-5 -10t-1 -10q4 -2 8 0t8 7l7 9t5 6l4 -2l-13 -17t-17 -11t-13 2t-1 10l-5 -5t-7 -5q-6 -4 -14 -2t-6 12q0 8 6 16t8 14q2 4 4 10t-4 6q-12 -2 -21 -14t-13 -20q-4 -6 -7 -12t-5 -12h-12l6 16v-2q-4 -2 -10 -4
h-10q-4 -6 -10 -8t-8 -2q-10 -4 -18 4q-8 6 -7 17t5 21q6 8 15 16t21 8q10 0 14 -6t4 -14t-3 -17t-7 -15q12 0 20 12zM354 520q-24 16 -26 40q-2 10 2 22t14 18q10 4 22 3t20 -9q10 -8 10 -19v-21h-12h-10v13t-4 11q-10 8 -15 1t-7 -15q0 -10 8 -17t16 -13t14 -14t8 -16
q2 -12 0 -22t-7 -18t-14 -13t-21 -3q-20 4 -22 20t-2 32h20v-11v-9q2 -6 8 -10t12 0q4 4 5 13t-1 15q-2 8 -7 13t-11 9zM820 520q-22 14 -26 40q-2 10 2 22t14 18q10 4 22 3t20 -9q10 -8 9 -19t-1 -21h-9h-11q0 6 1 13t-5 11q-8 8 -14 1t-6 -15q0 -10 7 -17t15 -13
q16 -12 22 -30q2 -12 1 -22t-7 -18t-15 -13t-21 -3q-20 4 -22 20t-2 32h22q0 -6 -1 -11t1 -9q2 -6 7 -10t11 0t7 13t-1 15q-2 8 -7 13t-13 9zM248 450h-56v152h56v-20h-34v-44h28v-22h-28v-46h34v-20zM924 450h-54v152h54v-20h-32v-44h28v-22h-28v-46h32v-20zM178 322
l-42 -2q-6 -8 -10 -17t-4 -19q-8 -2 -10 2t0 11t5 14t5 9l-14 -2l-6 8h24q10 18 25 35t35 27q6 4 16 5t12 -11q2 -4 0 -10t-4 -10q-6 -10 -10 -20t-10 -18q-2 -8 -8 -18t-4 -18q-8 -2 -10 2t0 10t5 12zM1212 602h22q-6 -22 -11 -43t-9 -43q-6 -16 -4 -33t2 -33h-24
q0 16 1 33t-3 33q-6 22 -11 43t-9 43h20l8 -39t6 -39q0 20 4 39zM850 290q-8 4 -6 11t4 13l18 36q6 0 14 4l-14 -28q-2 -4 -8 -14t-2 -14q6 -6 15 2t11 12q4 4 6 7t4 9l12 24q4 0 12 2q-4 -10 -8 -19t-10 -19l-5 -10t1 -10t10 2t10 12q4 10 10 20t10 18q4 10 8 19t10 17
q6 -2 14 4l-28 -56l-10 -20q-2 -4 -3 -12t7 -4t14 14q4 10 10 20t10 18q4 10 8 19t10 17q6 -2 14 4l-28 -56l-10 -20q0 -2 -1 -5l-2 -6t0 -5t7 0t11 9l9 13l4 -2l-11 -15t-13 -11q-6 -4 -13 -1t-7 11q-6 -6 -12 -10t-13 -1t-7 11q-4 -4 -9 -8t-11 -4q-8 0 -9 6t1 12
q-6 -8 -16 -15t-18 -1zM1164 450h-54v152h22v-134h32v-18zM684 450h-54v152h22v-134h32v-18zM790 84q6 0 12 -1t12 3q8 8 10 20t2 22q0 12 -2 25t-10 21q-4 4 -11 4h-13v-94zM724 350q6 0 14 4q-2 -6 -5 -11t-7 -9v-2q6 8 15 14t17 8q12 0 12 -9t-4 -17q-2 -4 -10 -15
t-4 -15q2 -4 6 -2t8 7t8 9t4 6l4 -2l-9 -13t-13 -13q-8 -4 -15 -2t-5 12q0 8 6 16t8 14q2 2 3 5t1 5t-1 4t-5 2q-10 -2 -19 -14t-13 -20l-12 -24h-12l4 8q-2 -2 -4 -3t-4 -3q-8 -4 -15 -1t-5 13q0 8 4 15t8 15q6 8 8 18q10 0 16 4l-20 -38l-5 -10t1 -10q2 -2 6 0t8 7l7 9
t5 6zM992 584q-6 0 -9 -7t-4 -17t0 -20t1 -14t-1 -14t0 -20t4 -17t9 -7t9 7t4 17t1 20v14v14t-1 20t-4 17t-9 7zM438 584q-6 0 -9 -7t-4 -17t0 -20t1 -14t-1 -14t0 -20t4 -17t9 -7t9 7t4 17t0 20t-1 14t1 14t0 20t-4 17t-9 7zM1240 602h22q0 -28 -1 -56t-3 -58h-14
q-2 30 -3 57t-1 57zM202 386q-8 2 -19 -7t-15 -13q-16 -18 -30 -40h42l14 28q0 2 3 7t5 11t3 10t-3 4zM1088 374q-4 -4 -6 0t0 8q-12 4 -17 -6t-7 -16h14l-4 -6h-14l-44 -90q-4 0 -14 -2l46 92h-14l2 6h16q2 8 7 16t15 10q6 2 16 -2q2 0 5 -4t-1 -6zM884 374q-4 -4 -6 0
t-2 8q-10 4 -16 -6t-8 -16h14l-2 -6h-14l-44 -90q-6 0 -14 -2l46 92h-16l4 6h14q4 8 9 16t15 10q6 2 14 -2q2 0 6 -4t0 -6zM672 94q-2 -10 -3 -20t-3 -20h28q-2 28 -7 58t-7 60l-4 -39zM138 518q4 0 9 -1t7 3q6 6 6 15v15v17t-6 13q-2 6 -7 5t-9 -1v-66zM1094 348
q-8 0 -15 -9t-11 -19t-4 -19t8 -9q6 0 13 9t12 20t5 19t-8 8zM978 -18q0 -10 -6 -15t-14 -5t-14 5t-6 15t6 15t14 5t14 -5t6 -15zM612 -18q0 -10 -6 -15t-14 -5t-14 5t-6 15t6 15t14 5t14 -5t6 -15zM512 346q-8 0 -13 -5t-10 -13t-8 -16t-7 -14q12 -8 22 0t14 16q2 2 5 7
t4 11t0 10t-7 4zM280 294q8 0 14 6t10 14t8 17t6 15q-10 4 -20 -4t-14 -16q-2 -2 -5 -7t-4 -10t-1 -10t6 -5zM274 526h8t8 2q6 4 7 12t1 16q0 6 -1 14t-7 12q-4 2 -7 2h-9v-58zM416 294q6 0 12 6t11 14t8 17t7 15q-12 4 -21 -4t-15 -16q0 -2 -3 -7t-5 -10t-1 -10t7 -5z
M588 324q-2 -4 -3 -7t-3 -7q12 0 25 10t13 22q0 8 -5 7t-11 -5q-4 -4 -8 -9t-8 -11zM582 532l-2 -24h16l-4 36l-4 36q0 -12 -2 -24zM1262 462q0 -6 -4 -9t-8 -3t-8 3t-4 9t4 10t8 4t8 -4t4 -10zM716 370q-4 -6 -11 -4t-5 10q0 4 4 5t8 0t5 -4t-1 -7zM376 370q-2 -6 -10 -4
t-6 10q2 4 5 5t7 0t6 -4t-2 -7zM1244 294q-4 -8 -12 -5t-4 11t12 4t4 -10zM1264 340q-2 -4 -5 -5t-6 0t-4 4t1 7q4 6 11 3t3 -9z" />
    <glyph glyph-name="five" unicode="5" horiz-adv-x="1372" 
d="M408 206h42l8 -102t6 -102q2 38 5 77t7 77l6 50h40l8 -83l8 -83l2 -38q4 42 5 81t5 79q2 10 3 21t1 23h30l-20 -244h-46q-4 48 -9 96t-7 98q-2 -36 -5 -73t-7 -73l-4 -48h-46l-12 136l-12 -136h-44q-6 48 -11 96t-7 98l-4 -73t-6 -73l-6 -48h-46l-12 140l-10 -140h-46
q-6 48 -10 96t-6 96q-2 -36 -5 -72t-7 -72l-6 -48h-44l-22 244h30q6 -52 9 -102t5 -102q4 38 6 77t8 77l6 50h38q6 -42 10 -83t6 -83l4 -38l4 81t6 79l4 44h42l8 -102t6 -102q4 38 6 77t6 77q2 12 3 24t3 26h40q6 -42 9 -83t7 -83l2 -38q4 42 6 81t6 79zM1254 734h-1130v22
h1130v-22zM1254 -194h-1130v22h1130v-22zM790 -38h-36v244h36h23t21 -4q16 -8 21 -28t5 -36v-19t-2 -22t-7 -20t-15 -13l30 -102h-38l-22 96h-16v-96zM1032 16v-54h-32v244h32l24 -86t22 -86q-4 44 -4 86v86h32v-244h-34l-24 83t-22 83q2 -28 3 -56t3 -56zM656 -38h-34
l30 244h56l30 -244h-34l-8 58h-32zM1202 114q2 12 1 24t-5 24q-4 8 -11 13t-15 -5q-6 -8 -7 -21t-1 -23q-2 -12 -2 -24v-22v-24t2 -22q0 -10 2 -23t12 -17q10 -6 16 1t8 20t2 25v18h-24v28h58v-124h-26l-2 34q-2 -12 -7 -23t-17 -13q-10 -4 -21 1t-19 13q-14 18 -16 43
t-2 45q-2 26 -1 52t9 50q2 12 7 22t15 14q10 6 22 7t22 -3q12 -4 19 -14t10 -23t4 -26t1 -23zM274 330q4 8 11 14t17 8q8 2 16 -2t16 0l-18 -34q-2 -4 -5 -11t1 -9q4 -4 10 2t12 14q2 4 5 9t5 11l8 18q8 0 16 4l-20 -38l-5 -10t1 -10t10 2t10 12q4 10 10 20t10 18q4 10 8 19
t10 17q8 -2 14 4l-28 -56q-2 -4 -4 -9t-4 -11q-2 -4 -4 -12t6 -4q4 2 9 7t9 11q2 8 8 16q4 8 11 14t17 8q8 2 16 -2t18 0q-6 -8 -10 -17t-8 -17q-2 -4 -5 -11t-1 -9q4 -2 7 0t7 5t7 8t5 7v2l32 66q8 0 14 4q-6 -12 -11 -24t-13 -22q8 6 17 11t17 -7q6 -10 0 -23t-12 -21
q6 0 11 3t9 7l9 18t11 18l18 36q6 -2 12 4l-12 -28t-14 -28q-2 -4 -5 -9t-5 -11q-2 -2 -3 -5t-1 -6t1 -5t7 0q4 2 10 8t8 12q4 14 12 22q4 4 10 8t14 6t14 1t8 -11q0 -8 -4 -15t-12 -11t-17 -7t-15 -3q0 -6 4 -9t10 -3q12 0 23 7t17 17l4 -2q-8 -14 -23 -22t-31 -6
q-16 4 -16 18q-4 -4 -8 -9t-8 -7q-8 -4 -15 -1t-5 13v2q-2 -2 -4 -2q-4 -4 -12 -4h-8q-2 0 -3 -2t-3 -2q-10 -6 -21 -5t-17 11q-8 -8 -18 -12q-8 -2 -12 3t0 13q-6 -6 -14 -13t-18 -1q-6 4 -6 14q-6 -8 -14 -14q-8 -4 -15 -1t-7 11q-6 -8 -10 -10q-8 -4 -16 -1t-6 11
q-4 -4 -8 -7t-8 -5q-10 -2 -13 3t1 13h-2q-4 -6 -13 -13t-17 -1q-6 2 -7 7t1 9q-6 -4 -10 -6t-14 -2q-4 0 -5 -1t-5 -3t-11 -4t-12 -1t-8 5t-1 12q2 12 8 23l12 21q4 0 12 4q-2 -8 -5 -15t-7 -15q-2 -2 -5 -7t-5 -10t-2 -9t4 -4q10 -2 18 8t10 14q6 8 9 18t3 18q8 2 9 -5
t-1 -13q-4 -16 -18 -30q8 -2 15 3t11 11zM992 448q-10 0 -17 5t-10 13t-4 18t-1 18q-2 18 -2 39t6 39q2 8 8 15t14 7q20 6 32 -12q8 -18 8 -38v-38v-21t-4 -21t-11 -17t-19 -7zM438 448q-10 0 -17 5t-10 13t-4 18t-3 18v39t6 39q2 8 7 15t15 7q22 6 32 -12q8 -18 8 -38v-38
q0 -10 -1 -21t-4 -21t-10 -17t-19 -7zM916 -38h-34v244h34v-244zM274 450h-20v152h22h15t13 -2q10 -6 13 -17t3 -21t-2 -27t-14 -21l18 -64h-24l-12 60q-4 0 -6 1t-6 1v-62zM1056 484v-34h-20v152h18l16 -53t14 -53q-2 26 -2 53v53h20v-152h-22q-8 26 -15 52t-13 52
q2 -18 2 -35t2 -35zM138 450h-22v152h34q26 0 32 -26q4 -14 3 -32t-9 -32q-6 -10 -17 -11t-21 -1v-50zM502 484v-34h-20v152h18l16 -53t14 -53q-2 26 -3 53t-1 53h20v-152h-20q-8 26 -15 52t-13 52q2 -18 2 -35t2 -35zM574 450h-22l18 152h36l18 -152h-20l-6 36h-20z
M750 448q-14 0 -22 9t-10 21t-2 26v26v72h22v-106v-11t2 -9q2 -6 7 -8t9 2q6 6 6 14v14q2 12 1 24t-1 24v56h22v-72q0 -12 1 -26t-2 -26t-10 -21t-23 -9zM1140 350q4 0 12 4q-2 -6 -5 -11t-7 -9v-2q6 8 15 14t17 8q12 0 12 -9t-4 -17q-2 -4 -9 -15t-5 -15t6 -3t7 5t7 8t6 8
l18 38h-8l4 6h8l8 16q8 0 14 4l-10 -20h14l-4 -6h-14l-18 -38l-5 -10t-1 -10q4 -2 8 0t8 7l7 9t5 6l4 -2l-13 -17t-17 -11t-13 2t-1 10l-5 -5t-7 -5q-6 -4 -14 -2t-6 12q0 8 6 16t8 14q2 4 4 10t-4 6q-12 -2 -21 -14t-13 -20q-4 -6 -7 -12t-5 -12h-12l6 16v-2q-4 -2 -10 -4
h-10q-4 -6 -10 -8t-8 -2q-10 -4 -18 4q-8 6 -7 17t5 21q6 8 15 16t21 8q10 0 14 -6t4 -14t-3 -17t-7 -15q12 0 20 12zM354 520q-24 16 -26 40q-2 10 2 22t14 18q10 4 22 3t20 -9q10 -8 10 -19v-21h-12h-10v13t-4 11q-10 8 -15 1t-7 -15q0 -10 8 -17t16 -13t14 -14t8 -16
q2 -12 0 -22t-7 -18t-14 -13t-21 -3q-20 4 -22 20t-2 32h20v-11v-9q2 -6 8 -10t12 0q4 4 5 13t-1 15q-2 8 -7 13t-11 9zM820 520q-22 14 -26 40q-2 10 2 22t14 18q10 4 22 3t20 -9q10 -8 9 -19t-1 -21h-9h-11q0 6 1 13t-5 11q-8 8 -14 1t-6 -15q0 -10 7 -17t15 -13
q16 -12 22 -30q2 -12 1 -22t-7 -18t-15 -13t-21 -3q-20 4 -22 20t-2 32h22q0 -6 -1 -11t1 -9q2 -6 7 -10t11 0t7 13t-1 15q-2 8 -7 13t-13 9zM248 450h-56v152h56v-20h-34v-44h28v-22h-28v-46h34v-20zM924 450h-54v152h54v-20h-32v-44h28v-22h-28v-46h32v-20zM178 322
l-42 -2q-6 -8 -10 -17t-4 -19q-8 -2 -10 2t0 11t5 14t5 9l-14 -2l-6 8h24q10 18 25 35t35 27q6 4 16 5t12 -11q2 -4 0 -10t-4 -10q-6 -10 -10 -20t-10 -18q-2 -8 -8 -18t-4 -18q-8 -2 -10 2t0 10t5 12zM1212 602h22q-6 -22 -11 -43t-9 -43q-6 -16 -4 -33t2 -33h-24
q0 16 1 33t-3 33q-6 22 -11 43t-9 43h20l8 -39t6 -39q0 20 4 39zM850 290q-8 4 -6 11t4 13l18 36q6 0 14 4l-14 -28q-2 -4 -8 -14t-2 -14q6 -6 15 2t11 12q4 4 6 7t4 9l12 24q4 0 12 2q-4 -10 -8 -19t-10 -19l-5 -10t1 -10t10 2t10 12q4 10 10 20t10 18q4 10 8 19t10 17
q6 -2 14 4l-28 -56l-10 -20q-2 -4 -3 -12t7 -4t14 14q4 10 10 20t10 18q4 10 8 19t10 17q6 -2 14 4l-28 -56l-10 -20q0 -2 -1 -5l-2 -6t0 -5t7 0t11 9l9 13l4 -2l-11 -15t-13 -11q-6 -4 -13 -1t-7 11q-6 -6 -12 -10t-13 -1t-7 11q-4 -4 -9 -8t-11 -4q-8 0 -9 6t1 12
q-6 -8 -16 -15t-18 -1zM1164 450h-54v152h22v-134h32v-18zM684 450h-54v152h22v-134h32v-18zM790 84q6 0 12 -1t12 3q8 8 10 20t2 22q0 12 -2 25t-10 21q-4 4 -11 4h-13v-94zM724 350q6 0 14 4q-2 -6 -5 -11t-7 -9v-2q6 8 15 14t17 8q12 0 12 -9t-4 -17q-2 -4 -10 -15
t-4 -15q2 -4 6 -2t8 7t8 9t4 6l4 -2l-9 -13t-13 -13q-8 -4 -15 -2t-5 12q0 8 6 16t8 14q2 2 3 5t1 5t-1 4t-5 2q-10 -2 -19 -14t-13 -20l-12 -24h-12l4 8q-2 -2 -4 -3t-4 -3q-8 -4 -15 -1t-5 13q0 8 4 15t8 15q6 8 8 18q10 0 16 4l-20 -38l-5 -10t1 -10q2 -2 6 0t8 7l7 9
t5 6zM992 584q-6 0 -9 -7t-4 -17t0 -20t1 -14t-1 -14t0 -20t4 -17t9 -7t9 7t4 17t1 20v14v14t-1 20t-4 17t-9 7zM438 584q-6 0 -9 -7t-4 -17t0 -20t1 -14t-1 -14t0 -20t4 -17t9 -7t9 7t4 17t0 20t-1 14t1 14t0 20t-4 17t-9 7zM1240 602h22q0 -28 -1 -56t-3 -58h-14
q-2 30 -3 57t-1 57zM202 386q-8 2 -19 -7t-15 -13q-16 -18 -30 -40h42l14 28q0 2 3 7t5 11t3 10t-3 4zM1088 374q-4 -4 -6 0t0 8q-12 4 -17 -6t-7 -16h14l-4 -6h-14l-44 -90q-4 0 -14 -2l46 92h-14l2 6h16q2 8 7 16t15 10q6 2 16 -2q2 0 5 -4t-1 -6zM884 374q-4 -4 -6 0
t-2 8q-10 4 -16 -6t-8 -16h14l-2 -6h-14l-44 -90q-6 0 -14 -2l46 92h-16l4 6h14q4 8 9 16t15 10q6 2 14 -2q2 0 6 -4t0 -6zM672 94q-2 -10 -3 -20t-3 -20h28q-2 28 -7 58t-7 60l-4 -39zM138 518q4 0 9 -1t7 3q6 6 6 15v15v17t-6 13q-2 6 -7 5t-9 -1v-66zM1094 348
q-8 0 -15 -9t-11 -19t-4 -19t8 -9q6 0 13 9t12 20t5 19t-8 8zM978 -18q0 -10 -6 -15t-14 -5t-14 5t-6 15t6 15t14 5t14 -5t6 -15zM612 -18q0 -10 -6 -15t-14 -5t-14 5t-6 15t6 15t14 5t14 -5t6 -15zM512 346q-8 0 -13 -5t-10 -13t-8 -16t-7 -14q12 -8 22 0t14 16q2 2 5 7
t4 11t0 10t-7 4zM280 294q8 0 14 6t10 14t8 17t6 15q-10 4 -20 -4t-14 -16q-2 -2 -5 -7t-4 -10t-1 -10t6 -5zM274 526h8t8 2q6 4 7 12t1 16q0 6 -1 14t-7 12q-4 2 -7 2h-9v-58zM416 294q6 0 12 6t11 14t8 17t7 15q-12 4 -21 -4t-15 -16q0 -2 -3 -7t-5 -10t-1 -10t7 -5z
M588 324q-2 -4 -3 -7t-3 -7q12 0 25 10t13 22q0 8 -5 7t-11 -5q-4 -4 -8 -9t-8 -11zM582 532l-2 -24h16l-4 36l-4 36q0 -12 -2 -24zM1262 462q0 -6 -4 -9t-8 -3t-8 3t-4 9t4 10t8 4t8 -4t4 -10zM716 370q-4 -6 -11 -4t-5 10q0 4 4 5t8 0t5 -4t-1 -7zM376 370q-2 -6 -10 -4
t-6 10q2 4 5 5t7 0t6 -4t-2 -7zM1244 294q-4 -8 -12 -5t-4 11t12 4t4 -10zM1264 340q-2 -4 -5 -5t-6 0t-4 4t1 7q4 6 11 3t3 -9z" />
    <glyph glyph-name="six" unicode="6" horiz-adv-x="1372" 
d="M408 206h42l8 -102t6 -102q2 38 5 77t7 77l6 50h40l8 -83l8 -83l2 -38q4 42 5 81t5 79q2 10 3 21t1 23h30l-20 -244h-46q-4 48 -9 96t-7 98q-2 -36 -5 -73t-7 -73l-4 -48h-46l-12 136l-12 -136h-44q-6 48 -11 96t-7 98l-4 -73t-6 -73l-6 -48h-46l-12 140l-10 -140h-46
q-6 48 -10 96t-6 96q-2 -36 -5 -72t-7 -72l-6 -48h-44l-22 244h30q6 -52 9 -102t5 -102q4 38 6 77t8 77l6 50h38q6 -42 10 -83t6 -83l4 -38l4 81t6 79l4 44h42l8 -102t6 -102q4 38 6 77t6 77q2 12 3 24t3 26h40q6 -42 9 -83t7 -83l2 -38q4 42 6 81t6 79zM1254 734h-1130v22
h1130v-22zM1254 -194h-1130v22h1130v-22zM790 -38h-36v244h36h23t21 -4q16 -8 21 -28t5 -36v-19t-2 -22t-7 -20t-15 -13l30 -102h-38l-22 96h-16v-96zM1032 16v-54h-32v244h32l24 -86t22 -86q-4 44 -4 86v86h32v-244h-34l-24 83t-22 83q2 -28 3 -56t3 -56zM656 -38h-34
l30 244h56l30 -244h-34l-8 58h-32zM1202 114q2 12 1 24t-5 24q-4 8 -11 13t-15 -5q-6 -8 -7 -21t-1 -23q-2 -12 -2 -24v-22v-24t2 -22q0 -10 2 -23t12 -17q10 -6 16 1t8 20t2 25v18h-24v28h58v-124h-26l-2 34q-2 -12 -7 -23t-17 -13q-10 -4 -21 1t-19 13q-14 18 -16 43
t-2 45q-2 26 -1 52t9 50q2 12 7 22t15 14q10 6 22 7t22 -3q12 -4 19 -14t10 -23t4 -26t1 -23zM274 330q4 8 11 14t17 8q8 2 16 -2t16 0l-18 -34q-2 -4 -5 -11t1 -9q4 -4 10 2t12 14q2 4 5 9t5 11l8 18q8 0 16 4l-20 -38l-5 -10t1 -10t10 2t10 12q4 10 10 20t10 18q4 10 8 19
t10 17q8 -2 14 4l-28 -56q-2 -4 -4 -9t-4 -11q-2 -4 -4 -12t6 -4q4 2 9 7t9 11q2 8 8 16q4 8 11 14t17 8q8 2 16 -2t18 0q-6 -8 -10 -17t-8 -17q-2 -4 -5 -11t-1 -9q4 -2 7 0t7 5t7 8t5 7v2l32 66q8 0 14 4q-6 -12 -11 -24t-13 -22q8 6 17 11t17 -7q6 -10 0 -23t-12 -21
q6 0 11 3t9 7l9 18t11 18l18 36q6 -2 12 4l-12 -28t-14 -28q-2 -4 -5 -9t-5 -11q-2 -2 -3 -5t-1 -6t1 -5t7 0q4 2 10 8t8 12q4 14 12 22q4 4 10 8t14 6t14 1t8 -11q0 -8 -4 -15t-12 -11t-17 -7t-15 -3q0 -6 4 -9t10 -3q12 0 23 7t17 17l4 -2q-8 -14 -23 -22t-31 -6
q-16 4 -16 18q-4 -4 -8 -9t-8 -7q-8 -4 -15 -1t-5 13v2q-2 -2 -4 -2q-4 -4 -12 -4h-8q-2 0 -3 -2t-3 -2q-10 -6 -21 -5t-17 11q-8 -8 -18 -12q-8 -2 -12 3t0 13q-6 -6 -14 -13t-18 -1q-6 4 -6 14q-6 -8 -14 -14q-8 -4 -15 -1t-7 11q-6 -8 -10 -10q-8 -4 -16 -1t-6 11
q-4 -4 -8 -7t-8 -5q-10 -2 -13 3t1 13h-2q-4 -6 -13 -13t-17 -1q-6 2 -7 7t1 9q-6 -4 -10 -6t-14 -2q-4 0 -5 -1t-5 -3t-11 -4t-12 -1t-8 5t-1 12q2 12 8 23l12 21q4 0 12 4q-2 -8 -5 -15t-7 -15q-2 -2 -5 -7t-5 -10t-2 -9t4 -4q10 -2 18 8t10 14q6 8 9 18t3 18q8 2 9 -5
t-1 -13q-4 -16 -18 -30q8 -2 15 3t11 11zM992 448q-10 0 -17 5t-10 13t-4 18t-1 18q-2 18 -2 39t6 39q2 8 8 15t14 7q20 6 32 -12q8 -18 8 -38v-38v-21t-4 -21t-11 -17t-19 -7zM438 448q-10 0 -17 5t-10 13t-4 18t-3 18v39t6 39q2 8 7 15t15 7q22 6 32 -12q8 -18 8 -38v-38
q0 -10 -1 -21t-4 -21t-10 -17t-19 -7zM916 -38h-34v244h34v-244zM274 450h-20v152h22h15t13 -2q10 -6 13 -17t3 -21t-2 -27t-14 -21l18 -64h-24l-12 60q-4 0 -6 1t-6 1v-62zM1056 484v-34h-20v152h18l16 -53t14 -53q-2 26 -2 53v53h20v-152h-22q-8 26 -15 52t-13 52
q2 -18 2 -35t2 -35zM138 450h-22v152h34q26 0 32 -26q4 -14 3 -32t-9 -32q-6 -10 -17 -11t-21 -1v-50zM502 484v-34h-20v152h18l16 -53t14 -53q-2 26 -3 53t-1 53h20v-152h-20q-8 26 -15 52t-13 52q2 -18 2 -35t2 -35zM574 450h-22l18 152h36l18 -152h-20l-6 36h-20z
M750 448q-14 0 -22 9t-10 21t-2 26v26v72h22v-106v-11t2 -9q2 -6 7 -8t9 2q6 6 6 14v14q2 12 1 24t-1 24v56h22v-72q0 -12 1 -26t-2 -26t-10 -21t-23 -9zM1140 350q4 0 12 4q-2 -6 -5 -11t-7 -9v-2q6 8 15 14t17 8q12 0 12 -9t-4 -17q-2 -4 -9 -15t-5 -15t6 -3t7 5t7 8t6 8
l18 38h-8l4 6h8l8 16q8 0 14 4l-10 -20h14l-4 -6h-14l-18 -38l-5 -10t-1 -10q4 -2 8 0t8 7l7 9t5 6l4 -2l-13 -17t-17 -11t-13 2t-1 10l-5 -5t-7 -5q-6 -4 -14 -2t-6 12q0 8 6 16t8 14q2 4 4 10t-4 6q-12 -2 -21 -14t-13 -20q-4 -6 -7 -12t-5 -12h-12l6 16v-2q-4 -2 -10 -4
h-10q-4 -6 -10 -8t-8 -2q-10 -4 -18 4q-8 6 -7 17t5 21q6 8 15 16t21 8q10 0 14 -6t4 -14t-3 -17t-7 -15q12 0 20 12zM354 520q-24 16 -26 40q-2 10 2 22t14 18q10 4 22 3t20 -9q10 -8 10 -19v-21h-12h-10v13t-4 11q-10 8 -15 1t-7 -15q0 -10 8 -17t16 -13t14 -14t8 -16
q2 -12 0 -22t-7 -18t-14 -13t-21 -3q-20 4 -22 20t-2 32h20v-11v-9q2 -6 8 -10t12 0q4 4 5 13t-1 15q-2 8 -7 13t-11 9zM820 520q-22 14 -26 40q-2 10 2 22t14 18q10 4 22 3t20 -9q10 -8 9 -19t-1 -21h-9h-11q0 6 1 13t-5 11q-8 8 -14 1t-6 -15q0 -10 7 -17t15 -13
q16 -12 22 -30q2 -12 1 -22t-7 -18t-15 -13t-21 -3q-20 4 -22 20t-2 32h22q0 -6 -1 -11t1 -9q2 -6 7 -10t11 0t7 13t-1 15q-2 8 -7 13t-13 9zM248 450h-56v152h56v-20h-34v-44h28v-22h-28v-46h34v-20zM924 450h-54v152h54v-20h-32v-44h28v-22h-28v-46h32v-20zM178 322
l-42 -2q-6 -8 -10 -17t-4 -19q-8 -2 -10 2t0 11t5 14t5 9l-14 -2l-6 8h24q10 18 25 35t35 27q6 4 16 5t12 -11q2 -4 0 -10t-4 -10q-6 -10 -10 -20t-10 -18q-2 -8 -8 -18t-4 -18q-8 -2 -10 2t0 10t5 12zM1212 602h22q-6 -22 -11 -43t-9 -43q-6 -16 -4 -33t2 -33h-24
q0 16 1 33t-3 33q-6 22 -11 43t-9 43h20l8 -39t6 -39q0 20 4 39zM850 290q-8 4 -6 11t4 13l18 36q6 0 14 4l-14 -28q-2 -4 -8 -14t-2 -14q6 -6 15 2t11 12q4 4 6 7t4 9l12 24q4 0 12 2q-4 -10 -8 -19t-10 -19l-5 -10t1 -10t10 2t10 12q4 10 10 20t10 18q4 10 8 19t10 17
q6 -2 14 4l-28 -56l-10 -20q-2 -4 -3 -12t7 -4t14 14q4 10 10 20t10 18q4 10 8 19t10 17q6 -2 14 4l-28 -56l-10 -20q0 -2 -1 -5l-2 -6t0 -5t7 0t11 9l9 13l4 -2l-11 -15t-13 -11q-6 -4 -13 -1t-7 11q-6 -6 -12 -10t-13 -1t-7 11q-4 -4 -9 -8t-11 -4q-8 0 -9 6t1 12
q-6 -8 -16 -15t-18 -1zM1164 450h-54v152h22v-134h32v-18zM684 450h-54v152h22v-134h32v-18zM790 84q6 0 12 -1t12 3q8 8 10 20t2 22q0 12 -2 25t-10 21q-4 4 -11 4h-13v-94zM724 350q6 0 14 4q-2 -6 -5 -11t-7 -9v-2q6 8 15 14t17 8q12 0 12 -9t-4 -17q-2 -4 -10 -15
t-4 -15q2 -4 6 -2t8 7t8 9t4 6l4 -2l-9 -13t-13 -13q-8 -4 -15 -2t-5 12q0 8 6 16t8 14q2 2 3 5t1 5t-1 4t-5 2q-10 -2 -19 -14t-13 -20l-12 -24h-12l4 8q-2 -2 -4 -3t-4 -3q-8 -4 -15 -1t-5 13q0 8 4 15t8 15q6 8 8 18q10 0 16 4l-20 -38l-5 -10t1 -10q2 -2 6 0t8 7l7 9
t5 6zM992 584q-6 0 -9 -7t-4 -17t0 -20t1 -14t-1 -14t0 -20t4 -17t9 -7t9 7t4 17t1 20v14v14t-1 20t-4 17t-9 7zM438 584q-6 0 -9 -7t-4 -17t0 -20t1 -14t-1 -14t0 -20t4 -17t9 -7t9 7t4 17t0 20t-1 14t1 14t0 20t-4 17t-9 7zM1240 602h22q0 -28 -1 -56t-3 -58h-14
q-2 30 -3 57t-1 57zM202 386q-8 2 -19 -7t-15 -13q-16 -18 -30 -40h42l14 28q0 2 3 7t5 11t3 10t-3 4zM1088 374q-4 -4 -6 0t0 8q-12 4 -17 -6t-7 -16h14l-4 -6h-14l-44 -90q-4 0 -14 -2l46 92h-14l2 6h16q2 8 7 16t15 10q6 2 16 -2q2 0 5 -4t-1 -6zM884 374q-4 -4 -6 0
t-2 8q-10 4 -16 -6t-8 -16h14l-2 -6h-14l-44 -90q-6 0 -14 -2l46 92h-16l4 6h14q4 8 9 16t15 10q6 2 14 -2q2 0 6 -4t0 -6zM672 94q-2 -10 -3 -20t-3 -20h28q-2 28 -7 58t-7 60l-4 -39zM138 518q4 0 9 -1t7 3q6 6 6 15v15v17t-6 13q-2 6 -7 5t-9 -1v-66zM1094 348
q-8 0 -15 -9t-11 -19t-4 -19t8 -9q6 0 13 9t12 20t5 19t-8 8zM978 -18q0 -10 -6 -15t-14 -5t-14 5t-6 15t6 15t14 5t14 -5t6 -15zM612 -18q0 -10 -6 -15t-14 -5t-14 5t-6 15t6 15t14 5t14 -5t6 -15zM512 346q-8 0 -13 -5t-10 -13t-8 -16t-7 -14q12 -8 22 0t14 16q2 2 5 7
t4 11t0 10t-7 4zM280 294q8 0 14 6t10 14t8 17t6 15q-10 4 -20 -4t-14 -16q-2 -2 -5 -7t-4 -10t-1 -10t6 -5zM274 526h8t8 2q6 4 7 12t1 16q0 6 -1 14t-7 12q-4 2 -7 2h-9v-58zM416 294q6 0 12 6t11 14t8 17t7 15q-12 4 -21 -4t-15 -16q0 -2 -3 -7t-5 -10t-1 -10t7 -5z
M588 324q-2 -4 -3 -7t-3 -7q12 0 25 10t13 22q0 8 -5 7t-11 -5q-4 -4 -8 -9t-8 -11zM582 532l-2 -24h16l-4 36l-4 36q0 -12 -2 -24zM1262 462q0 -6 -4 -9t-8 -3t-8 3t-4 9t4 10t8 4t8 -4t4 -10zM716 370q-4 -6 -11 -4t-5 10q0 4 4 5t8 0t5 -4t-1 -7zM376 370q-2 -6 -10 -4
t-6 10q2 4 5 5t7 0t6 -4t-2 -7zM1244 294q-4 -8 -12 -5t-4 11t12 4t4 -10zM1264 340q-2 -4 -5 -5t-6 0t-4 4t1 7q4 6 11 3t3 -9z" />
    <glyph glyph-name="seven" unicode="7" horiz-adv-x="1372" 
d="M408 206h42l8 -102t6 -102q2 38 5 77t7 77l6 50h40l8 -83l8 -83l2 -38q4 42 5 81t5 79q2 10 3 21t1 23h30l-20 -244h-46q-4 48 -9 96t-7 98q-2 -36 -5 -73t-7 -73l-4 -48h-46l-12 136l-12 -136h-44q-6 48 -11 96t-7 98l-4 -73t-6 -73l-6 -48h-46l-12 140l-10 -140h-46
q-6 48 -10 96t-6 96q-2 -36 -5 -72t-7 -72l-6 -48h-44l-22 244h30q6 -52 9 -102t5 -102q4 38 6 77t8 77l6 50h38q6 -42 10 -83t6 -83l4 -38l4 81t6 79l4 44h42l8 -102t6 -102q4 38 6 77t6 77q2 12 3 24t3 26h40q6 -42 9 -83t7 -83l2 -38q4 42 6 81t6 79zM1254 734h-1130v22
h1130v-22zM1254 -194h-1130v22h1130v-22zM790 -38h-36v244h36h23t21 -4q16 -8 21 -28t5 -36v-19t-2 -22t-7 -20t-15 -13l30 -102h-38l-22 96h-16v-96zM1032 16v-54h-32v244h32l24 -86t22 -86q-4 44 -4 86v86h32v-244h-34l-24 83t-22 83q2 -28 3 -56t3 -56zM656 -38h-34
l30 244h56l30 -244h-34l-8 58h-32zM1202 114q2 12 1 24t-5 24q-4 8 -11 13t-15 -5q-6 -8 -7 -21t-1 -23q-2 -12 -2 -24v-22v-24t2 -22q0 -10 2 -23t12 -17q10 -6 16 1t8 20t2 25v18h-24v28h58v-124h-26l-2 34q-2 -12 -7 -23t-17 -13q-10 -4 -21 1t-19 13q-14 18 -16 43
t-2 45q-2 26 -1 52t9 50q2 12 7 22t15 14q10 6 22 7t22 -3q12 -4 19 -14t10 -23t4 -26t1 -23zM274 330q4 8 11 14t17 8q8 2 16 -2t16 0l-18 -34q-2 -4 -5 -11t1 -9q4 -4 10 2t12 14q2 4 5 9t5 11l8 18q8 0 16 4l-20 -38l-5 -10t1 -10t10 2t10 12q4 10 10 20t10 18q4 10 8 19
t10 17q8 -2 14 4l-28 -56q-2 -4 -4 -9t-4 -11q-2 -4 -4 -12t6 -4q4 2 9 7t9 11q2 8 8 16q4 8 11 14t17 8q8 2 16 -2t18 0q-6 -8 -10 -17t-8 -17q-2 -4 -5 -11t-1 -9q4 -2 7 0t7 5t7 8t5 7v2l32 66q8 0 14 4q-6 -12 -11 -24t-13 -22q8 6 17 11t17 -7q6 -10 0 -23t-12 -21
q6 0 11 3t9 7l9 18t11 18l18 36q6 -2 12 4l-12 -28t-14 -28q-2 -4 -5 -9t-5 -11q-2 -2 -3 -5t-1 -6t1 -5t7 0q4 2 10 8t8 12q4 14 12 22q4 4 10 8t14 6t14 1t8 -11q0 -8 -4 -15t-12 -11t-17 -7t-15 -3q0 -6 4 -9t10 -3q12 0 23 7t17 17l4 -2q-8 -14 -23 -22t-31 -6
q-16 4 -16 18q-4 -4 -8 -9t-8 -7q-8 -4 -15 -1t-5 13v2q-2 -2 -4 -2q-4 -4 -12 -4h-8q-2 0 -3 -2t-3 -2q-10 -6 -21 -5t-17 11q-8 -8 -18 -12q-8 -2 -12 3t0 13q-6 -6 -14 -13t-18 -1q-6 4 -6 14q-6 -8 -14 -14q-8 -4 -15 -1t-7 11q-6 -8 -10 -10q-8 -4 -16 -1t-6 11
q-4 -4 -8 -7t-8 -5q-10 -2 -13 3t1 13h-2q-4 -6 -13 -13t-17 -1q-6 2 -7 7t1 9q-6 -4 -10 -6t-14 -2q-4 0 -5 -1t-5 -3t-11 -4t-12 -1t-8 5t-1 12q2 12 8 23l12 21q4 0 12 4q-2 -8 -5 -15t-7 -15q-2 -2 -5 -7t-5 -10t-2 -9t4 -4q10 -2 18 8t10 14q6 8 9 18t3 18q8 2 9 -5
t-1 -13q-4 -16 -18 -30q8 -2 15 3t11 11zM992 448q-10 0 -17 5t-10 13t-4 18t-1 18q-2 18 -2 39t6 39q2 8 8 15t14 7q20 6 32 -12q8 -18 8 -38v-38v-21t-4 -21t-11 -17t-19 -7zM438 448q-10 0 -17 5t-10 13t-4 18t-3 18v39t6 39q2 8 7 15t15 7q22 6 32 -12q8 -18 8 -38v-38
q0 -10 -1 -21t-4 -21t-10 -17t-19 -7zM916 -38h-34v244h34v-244zM274 450h-20v152h22h15t13 -2q10 -6 13 -17t3 -21t-2 -27t-14 -21l18 -64h-24l-12 60q-4 0 -6 1t-6 1v-62zM1056 484v-34h-20v152h18l16 -53t14 -53q-2 26 -2 53v53h20v-152h-22q-8 26 -15 52t-13 52
q2 -18 2 -35t2 -35zM138 450h-22v152h34q26 0 32 -26q4 -14 3 -32t-9 -32q-6 -10 -17 -11t-21 -1v-50zM502 484v-34h-20v152h18l16 -53t14 -53q-2 26 -3 53t-1 53h20v-152h-20q-8 26 -15 52t-13 52q2 -18 2 -35t2 -35zM574 450h-22l18 152h36l18 -152h-20l-6 36h-20z
M750 448q-14 0 -22 9t-10 21t-2 26v26v72h22v-106v-11t2 -9q2 -6 7 -8t9 2q6 6 6 14v14q2 12 1 24t-1 24v56h22v-72q0 -12 1 -26t-2 -26t-10 -21t-23 -9zM1140 350q4 0 12 4q-2 -6 -5 -11t-7 -9v-2q6 8 15 14t17 8q12 0 12 -9t-4 -17q-2 -4 -9 -15t-5 -15t6 -3t7 5t7 8t6 8
l18 38h-8l4 6h8l8 16q8 0 14 4l-10 -20h14l-4 -6h-14l-18 -38l-5 -10t-1 -10q4 -2 8 0t8 7l7 9t5 6l4 -2l-13 -17t-17 -11t-13 2t-1 10l-5 -5t-7 -5q-6 -4 -14 -2t-6 12q0 8 6 16t8 14q2 4 4 10t-4 6q-12 -2 -21 -14t-13 -20q-4 -6 -7 -12t-5 -12h-12l6 16v-2q-4 -2 -10 -4
h-10q-4 -6 -10 -8t-8 -2q-10 -4 -18 4q-8 6 -7 17t5 21q6 8 15 16t21 8q10 0 14 -6t4 -14t-3 -17t-7 -15q12 0 20 12zM354 520q-24 16 -26 40q-2 10 2 22t14 18q10 4 22 3t20 -9q10 -8 10 -19v-21h-12h-10v13t-4 11q-10 8 -15 1t-7 -15q0 -10 8 -17t16 -13t14 -14t8 -16
q2 -12 0 -22t-7 -18t-14 -13t-21 -3q-20 4 -22 20t-2 32h20v-11v-9q2 -6 8 -10t12 0q4 4 5 13t-1 15q-2 8 -7 13t-11 9zM820 520q-22 14 -26 40q-2 10 2 22t14 18q10 4 22 3t20 -9q10 -8 9 -19t-1 -21h-9h-11q0 6 1 13t-5 11q-8 8 -14 1t-6 -15q0 -10 7 -17t15 -13
q16 -12 22 -30q2 -12 1 -22t-7 -18t-15 -13t-21 -3q-20 4 -22 20t-2 32h22q0 -6 -1 -11t1 -9q2 -6 7 -10t11 0t7 13t-1 15q-2 8 -7 13t-13 9zM248 450h-56v152h56v-20h-34v-44h28v-22h-28v-46h34v-20zM924 450h-54v152h54v-20h-32v-44h28v-22h-28v-46h32v-20zM178 322
l-42 -2q-6 -8 -10 -17t-4 -19q-8 -2 -10 2t0 11t5 14t5 9l-14 -2l-6 8h24q10 18 25 35t35 27q6 4 16 5t12 -11q2 -4 0 -10t-4 -10q-6 -10 -10 -20t-10 -18q-2 -8 -8 -18t-4 -18q-8 -2 -10 2t0 10t5 12zM1212 602h22q-6 -22 -11 -43t-9 -43q-6 -16 -4 -33t2 -33h-24
q0 16 1 33t-3 33q-6 22 -11 43t-9 43h20l8 -39t6 -39q0 20 4 39zM850 290q-8 4 -6 11t4 13l18 36q6 0 14 4l-14 -28q-2 -4 -8 -14t-2 -14q6 -6 15 2t11 12q4 4 6 7t4 9l12 24q4 0 12 2q-4 -10 -8 -19t-10 -19l-5 -10t1 -10t10 2t10 12q4 10 10 20t10 18q4 10 8 19t10 17
q6 -2 14 4l-28 -56l-10 -20q-2 -4 -3 -12t7 -4t14 14q4 10 10 20t10 18q4 10 8 19t10 17q6 -2 14 4l-28 -56l-10 -20q0 -2 -1 -5l-2 -6t0 -5t7 0t11 9l9 13l4 -2l-11 -15t-13 -11q-6 -4 -13 -1t-7 11q-6 -6 -12 -10t-13 -1t-7 11q-4 -4 -9 -8t-11 -4q-8 0 -9 6t1 12
q-6 -8 -16 -15t-18 -1zM1164 450h-54v152h22v-134h32v-18zM684 450h-54v152h22v-134h32v-18zM790 84q6 0 12 -1t12 3q8 8 10 20t2 22q0 12 -2 25t-10 21q-4 4 -11 4h-13v-94zM724 350q6 0 14 4q-2 -6 -5 -11t-7 -9v-2q6 8 15 14t17 8q12 0 12 -9t-4 -17q-2 -4 -10 -15
t-4 -15q2 -4 6 -2t8 7t8 9t4 6l4 -2l-9 -13t-13 -13q-8 -4 -15 -2t-5 12q0 8 6 16t8 14q2 2 3 5t1 5t-1 4t-5 2q-10 -2 -19 -14t-13 -20l-12 -24h-12l4 8q-2 -2 -4 -3t-4 -3q-8 -4 -15 -1t-5 13q0 8 4 15t8 15q6 8 8 18q10 0 16 4l-20 -38l-5 -10t1 -10q2 -2 6 0t8 7l7 9
t5 6zM992 584q-6 0 -9 -7t-4 -17t0 -20t1 -14t-1 -14t0 -20t4 -17t9 -7t9 7t4 17t1 20v14v14t-1 20t-4 17t-9 7zM438 584q-6 0 -9 -7t-4 -17t0 -20t1 -14t-1 -14t0 -20t4 -17t9 -7t9 7t4 17t0 20t-1 14t1 14t0 20t-4 17t-9 7zM1240 602h22q0 -28 -1 -56t-3 -58h-14
q-2 30 -3 57t-1 57zM202 386q-8 2 -19 -7t-15 -13q-16 -18 -30 -40h42l14 28q0 2 3 7t5 11t3 10t-3 4zM1088 374q-4 -4 -6 0t0 8q-12 4 -17 -6t-7 -16h14l-4 -6h-14l-44 -90q-4 0 -14 -2l46 92h-14l2 6h16q2 8 7 16t15 10q6 2 16 -2q2 0 5 -4t-1 -6zM884 374q-4 -4 -6 0
t-2 8q-10 4 -16 -6t-8 -16h14l-2 -6h-14l-44 -90q-6 0 -14 -2l46 92h-16l4 6h14q4 8 9 16t15 10q6 2 14 -2q2 0 6 -4t0 -6zM672 94q-2 -10 -3 -20t-3 -20h28q-2 28 -7 58t-7 60l-4 -39zM138 518q4 0 9 -1t7 3q6 6 6 15v15v17t-6 13q-2 6 -7 5t-9 -1v-66zM1094 348
q-8 0 -15 -9t-11 -19t-4 -19t8 -9q6 0 13 9t12 20t5 19t-8 8zM978 -18q0 -10 -6 -15t-14 -5t-14 5t-6 15t6 15t14 5t14 -5t6 -15zM612 -18q0 -10 -6 -15t-14 -5t-14 5t-6 15t6 15t14 5t14 -5t6 -15zM512 346q-8 0 -13 -5t-10 -13t-8 -16t-7 -14q12 -8 22 0t14 16q2 2 5 7
t4 11t0 10t-7 4zM280 294q8 0 14 6t10 14t8 17t6 15q-10 4 -20 -4t-14 -16q-2 -2 -5 -7t-4 -10t-1 -10t6 -5zM274 526h8t8 2q6 4 7 12t1 16q0 6 -1 14t-7 12q-4 2 -7 2h-9v-58zM416 294q6 0 12 6t11 14t8 17t7 15q-12 4 -21 -4t-15 -16q0 -2 -3 -7t-5 -10t-1 -10t7 -5z
M588 324q-2 -4 -3 -7t-3 -7q12 0 25 10t13 22q0 8 -5 7t-11 -5q-4 -4 -8 -9t-8 -11zM582 532l-2 -24h16l-4 36l-4 36q0 -12 -2 -24zM1262 462q0 -6 -4 -9t-8 -3t-8 3t-4 9t4 10t8 4t8 -4t4 -10zM716 370q-4 -6 -11 -4t-5 10q0 4 4 5t8 0t5 -4t-1 -7zM376 370q-2 -6 -10 -4
t-6 10q2 4 5 5t7 0t6 -4t-2 -7zM1244 294q-4 -8 -12 -5t-4 11t12 4t4 -10zM1264 340q-2 -4 -5 -5t-6 0t-4 4t1 7q4 6 11 3t3 -9z" />
    <glyph glyph-name="eight" unicode="8" horiz-adv-x="1372" 
d="M408 206h42l8 -102t6 -102q2 38 5 77t7 77l6 50h40l8 -83l8 -83l2 -38q4 42 5 81t5 79q2 10 3 21t1 23h30l-20 -244h-46q-4 48 -9 96t-7 98q-2 -36 -5 -73t-7 -73l-4 -48h-46l-12 136l-12 -136h-44q-6 48 -11 96t-7 98l-4 -73t-6 -73l-6 -48h-46l-12 140l-10 -140h-46
q-6 48 -10 96t-6 96q-2 -36 -5 -72t-7 -72l-6 -48h-44l-22 244h30q6 -52 9 -102t5 -102q4 38 6 77t8 77l6 50h38q6 -42 10 -83t6 -83l4 -38l4 81t6 79l4 44h42l8 -102t6 -102q4 38 6 77t6 77q2 12 3 24t3 26h40q6 -42 9 -83t7 -83l2 -38q4 42 6 81t6 79zM1254 734h-1130v22
h1130v-22zM1254 -194h-1130v22h1130v-22zM790 -38h-36v244h36h23t21 -4q16 -8 21 -28t5 -36v-19t-2 -22t-7 -20t-15 -13l30 -102h-38l-22 96h-16v-96zM1032 16v-54h-32v244h32l24 -86t22 -86q-4 44 -4 86v86h32v-244h-34l-24 83t-22 83q2 -28 3 -56t3 -56zM656 -38h-34
l30 244h56l30 -244h-34l-8 58h-32zM1202 114q2 12 1 24t-5 24q-4 8 -11 13t-15 -5q-6 -8 -7 -21t-1 -23q-2 -12 -2 -24v-22v-24t2 -22q0 -10 2 -23t12 -17q10 -6 16 1t8 20t2 25v18h-24v28h58v-124h-26l-2 34q-2 -12 -7 -23t-17 -13q-10 -4 -21 1t-19 13q-14 18 -16 43
t-2 45q-2 26 -1 52t9 50q2 12 7 22t15 14q10 6 22 7t22 -3q12 -4 19 -14t10 -23t4 -26t1 -23zM274 330q4 8 11 14t17 8q8 2 16 -2t16 0l-18 -34q-2 -4 -5 -11t1 -9q4 -4 10 2t12 14q2 4 5 9t5 11l8 18q8 0 16 4l-20 -38l-5 -10t1 -10t10 2t10 12q4 10 10 20t10 18q4 10 8 19
t10 17q8 -2 14 4l-28 -56q-2 -4 -4 -9t-4 -11q-2 -4 -4 -12t6 -4q4 2 9 7t9 11q2 8 8 16q4 8 11 14t17 8q8 2 16 -2t18 0q-6 -8 -10 -17t-8 -17q-2 -4 -5 -11t-1 -9q4 -2 7 0t7 5t7 8t5 7v2l32 66q8 0 14 4q-6 -12 -11 -24t-13 -22q8 6 17 11t17 -7q6 -10 0 -23t-12 -21
q6 0 11 3t9 7l9 18t11 18l18 36q6 -2 12 4l-12 -28t-14 -28q-2 -4 -5 -9t-5 -11q-2 -2 -3 -5t-1 -6t1 -5t7 0q4 2 10 8t8 12q4 14 12 22q4 4 10 8t14 6t14 1t8 -11q0 -8 -4 -15t-12 -11t-17 -7t-15 -3q0 -6 4 -9t10 -3q12 0 23 7t17 17l4 -2q-8 -14 -23 -22t-31 -6
q-16 4 -16 18q-4 -4 -8 -9t-8 -7q-8 -4 -15 -1t-5 13v2q-2 -2 -4 -2q-4 -4 -12 -4h-8q-2 0 -3 -2t-3 -2q-10 -6 -21 -5t-17 11q-8 -8 -18 -12q-8 -2 -12 3t0 13q-6 -6 -14 -13t-18 -1q-6 4 -6 14q-6 -8 -14 -14q-8 -4 -15 -1t-7 11q-6 -8 -10 -10q-8 -4 -16 -1t-6 11
q-4 -4 -8 -7t-8 -5q-10 -2 -13 3t1 13h-2q-4 -6 -13 -13t-17 -1q-6 2 -7 7t1 9q-6 -4 -10 -6t-14 -2q-4 0 -5 -1t-5 -3t-11 -4t-12 -1t-8 5t-1 12q2 12 8 23l12 21q4 0 12 4q-2 -8 -5 -15t-7 -15q-2 -2 -5 -7t-5 -10t-2 -9t4 -4q10 -2 18 8t10 14q6 8 9 18t3 18q8 2 9 -5
t-1 -13q-4 -16 -18 -30q8 -2 15 3t11 11zM992 448q-10 0 -17 5t-10 13t-4 18t-1 18q-2 18 -2 39t6 39q2 8 8 15t14 7q20 6 32 -12q8 -18 8 -38v-38v-21t-4 -21t-11 -17t-19 -7zM438 448q-10 0 -17 5t-10 13t-4 18t-3 18v39t6 39q2 8 7 15t15 7q22 6 32 -12q8 -18 8 -38v-38
q0 -10 -1 -21t-4 -21t-10 -17t-19 -7zM916 -38h-34v244h34v-244zM274 450h-20v152h22h15t13 -2q10 -6 13 -17t3 -21t-2 -27t-14 -21l18 -64h-24l-12 60q-4 0 -6 1t-6 1v-62zM1056 484v-34h-20v152h18l16 -53t14 -53q-2 26 -2 53v53h20v-152h-22q-8 26 -15 52t-13 52
q2 -18 2 -35t2 -35zM138 450h-22v152h34q26 0 32 -26q4 -14 3 -32t-9 -32q-6 -10 -17 -11t-21 -1v-50zM502 484v-34h-20v152h18l16 -53t14 -53q-2 26 -3 53t-1 53h20v-152h-20q-8 26 -15 52t-13 52q2 -18 2 -35t2 -35zM574 450h-22l18 152h36l18 -152h-20l-6 36h-20z
M750 448q-14 0 -22 9t-10 21t-2 26v26v72h22v-106v-11t2 -9q2 -6 7 -8t9 2q6 6 6 14v14q2 12 1 24t-1 24v56h22v-72q0 -12 1 -26t-2 -26t-10 -21t-23 -9zM1140 350q4 0 12 4q-2 -6 -5 -11t-7 -9v-2q6 8 15 14t17 8q12 0 12 -9t-4 -17q-2 -4 -9 -15t-5 -15t6 -3t7 5t7 8t6 8
l18 38h-8l4 6h8l8 16q8 0 14 4l-10 -20h14l-4 -6h-14l-18 -38l-5 -10t-1 -10q4 -2 8 0t8 7l7 9t5 6l4 -2l-13 -17t-17 -11t-13 2t-1 10l-5 -5t-7 -5q-6 -4 -14 -2t-6 12q0 8 6 16t8 14q2 4 4 10t-4 6q-12 -2 -21 -14t-13 -20q-4 -6 -7 -12t-5 -12h-12l6 16v-2q-4 -2 -10 -4
h-10q-4 -6 -10 -8t-8 -2q-10 -4 -18 4q-8 6 -7 17t5 21q6 8 15 16t21 8q10 0 14 -6t4 -14t-3 -17t-7 -15q12 0 20 12zM354 520q-24 16 -26 40q-2 10 2 22t14 18q10 4 22 3t20 -9q10 -8 10 -19v-21h-12h-10v13t-4 11q-10 8 -15 1t-7 -15q0 -10 8 -17t16 -13t14 -14t8 -16
q2 -12 0 -22t-7 -18t-14 -13t-21 -3q-20 4 -22 20t-2 32h20v-11v-9q2 -6 8 -10t12 0q4 4 5 13t-1 15q-2 8 -7 13t-11 9zM820 520q-22 14 -26 40q-2 10 2 22t14 18q10 4 22 3t20 -9q10 -8 9 -19t-1 -21h-9h-11q0 6 1 13t-5 11q-8 8 -14 1t-6 -15q0 -10 7 -17t15 -13
q16 -12 22 -30q2 -12 1 -22t-7 -18t-15 -13t-21 -3q-20 4 -22 20t-2 32h22q0 -6 -1 -11t1 -9q2 -6 7 -10t11 0t7 13t-1 15q-2 8 -7 13t-13 9zM248 450h-56v152h56v-20h-34v-44h28v-22h-28v-46h34v-20zM924 450h-54v152h54v-20h-32v-44h28v-22h-28v-46h32v-20zM178 322
l-42 -2q-6 -8 -10 -17t-4 -19q-8 -2 -10 2t0 11t5 14t5 9l-14 -2l-6 8h24q10 18 25 35t35 27q6 4 16 5t12 -11q2 -4 0 -10t-4 -10q-6 -10 -10 -20t-10 -18q-2 -8 -8 -18t-4 -18q-8 -2 -10 2t0 10t5 12zM1212 602h22q-6 -22 -11 -43t-9 -43q-6 -16 -4 -33t2 -33h-24
q0 16 1 33t-3 33q-6 22 -11 43t-9 43h20l8 -39t6 -39q0 20 4 39zM850 290q-8 4 -6 11t4 13l18 36q6 0 14 4l-14 -28q-2 -4 -8 -14t-2 -14q6 -6 15 2t11 12q4 4 6 7t4 9l12 24q4 0 12 2q-4 -10 -8 -19t-10 -19l-5 -10t1 -10t10 2t10 12q4 10 10 20t10 18q4 10 8 19t10 17
q6 -2 14 4l-28 -56l-10 -20q-2 -4 -3 -12t7 -4t14 14q4 10 10 20t10 18q4 10 8 19t10 17q6 -2 14 4l-28 -56l-10 -20q0 -2 -1 -5l-2 -6t0 -5t7 0t11 9l9 13l4 -2l-11 -15t-13 -11q-6 -4 -13 -1t-7 11q-6 -6 -12 -10t-13 -1t-7 11q-4 -4 -9 -8t-11 -4q-8 0 -9 6t1 12
q-6 -8 -16 -15t-18 -1zM1164 450h-54v152h22v-134h32v-18zM684 450h-54v152h22v-134h32v-18zM790 84q6 0 12 -1t12 3q8 8 10 20t2 22q0 12 -2 25t-10 21q-4 4 -11 4h-13v-94zM724 350q6 0 14 4q-2 -6 -5 -11t-7 -9v-2q6 8 15 14t17 8q12 0 12 -9t-4 -17q-2 -4 -10 -15
t-4 -15q2 -4 6 -2t8 7t8 9t4 6l4 -2l-9 -13t-13 -13q-8 -4 -15 -2t-5 12q0 8 6 16t8 14q2 2 3 5t1 5t-1 4t-5 2q-10 -2 -19 -14t-13 -20l-12 -24h-12l4 8q-2 -2 -4 -3t-4 -3q-8 -4 -15 -1t-5 13q0 8 4 15t8 15q6 8 8 18q10 0 16 4l-20 -38l-5 -10t1 -10q2 -2 6 0t8 7l7 9
t5 6zM992 584q-6 0 -9 -7t-4 -17t0 -20t1 -14t-1 -14t0 -20t4 -17t9 -7t9 7t4 17t1 20v14v14t-1 20t-4 17t-9 7zM438 584q-6 0 -9 -7t-4 -17t0 -20t1 -14t-1 -14t0 -20t4 -17t9 -7t9 7t4 17t0 20t-1 14t1 14t0 20t-4 17t-9 7zM1240 602h22q0 -28 -1 -56t-3 -58h-14
q-2 30 -3 57t-1 57zM202 386q-8 2 -19 -7t-15 -13q-16 -18 -30 -40h42l14 28q0 2 3 7t5 11t3 10t-3 4zM1088 374q-4 -4 -6 0t0 8q-12 4 -17 -6t-7 -16h14l-4 -6h-14l-44 -90q-4 0 -14 -2l46 92h-14l2 6h16q2 8 7 16t15 10q6 2 16 -2q2 0 5 -4t-1 -6zM884 374q-4 -4 -6 0
t-2 8q-10 4 -16 -6t-8 -16h14l-2 -6h-14l-44 -90q-6 0 -14 -2l46 92h-16l4 6h14q4 8 9 16t15 10q6 2 14 -2q2 0 6 -4t0 -6zM672 94q-2 -10 -3 -20t-3 -20h28q-2 28 -7 58t-7 60l-4 -39zM138 518q4 0 9 -1t7 3q6 6 6 15v15v17t-6 13q-2 6 -7 5t-9 -1v-66zM1094 348
q-8 0 -15 -9t-11 -19t-4 -19t8 -9q6 0 13 9t12 20t5 19t-8 8zM978 -18q0 -10 -6 -15t-14 -5t-14 5t-6 15t6 15t14 5t14 -5t6 -15zM612 -18q0 -10 -6 -15t-14 -5t-14 5t-6 15t6 15t14 5t14 -5t6 -15zM512 346q-8 0 -13 -5t-10 -13t-8 -16t-7 -14q12 -8 22 0t14 16q2 2 5 7
t4 11t0 10t-7 4zM280 294q8 0 14 6t10 14t8 17t6 15q-10 4 -20 -4t-14 -16q-2 -2 -5 -7t-4 -10t-1 -10t6 -5zM274 526h8t8 2q6 4 7 12t1 16q0 6 -1 14t-7 12q-4 2 -7 2h-9v-58zM416 294q6 0 12 6t11 14t8 17t7 15q-12 4 -21 -4t-15 -16q0 -2 -3 -7t-5 -10t-1 -10t7 -5z
M588 324q-2 -4 -3 -7t-3 -7q12 0 25 10t13 22q0 8 -5 7t-11 -5q-4 -4 -8 -9t-8 -11zM582 532l-2 -24h16l-4 36l-4 36q0 -12 -2 -24zM1262 462q0 -6 -4 -9t-8 -3t-8 3t-4 9t4 10t8 4t8 -4t4 -10zM716 370q-4 -6 -11 -4t-5 10q0 4 4 5t8 0t5 -4t-1 -7zM376 370q-2 -6 -10 -4
t-6 10q2 4 5 5t7 0t6 -4t-2 -7zM1244 294q-4 -8 -12 -5t-4 11t12 4t4 -10zM1264 340q-2 -4 -5 -5t-6 0t-4 4t1 7q4 6 11 3t3 -9z" />
    <glyph glyph-name="nine" unicode="9" horiz-adv-x="1372" 
d="M408 206h42l8 -102t6 -102q2 38 5 77t7 77l6 50h40l8 -83l8 -83l2 -38q4 42 5 81t5 79q2 10 3 21t1 23h30l-20 -244h-46q-4 48 -9 96t-7 98q-2 -36 -5 -73t-7 -73l-4 -48h-46l-12 136l-12 -136h-44q-6 48 -11 96t-7 98l-4 -73t-6 -73l-6 -48h-46l-12 140l-10 -140h-46
q-6 48 -10 96t-6 96q-2 -36 -5 -72t-7 -72l-6 -48h-44l-22 244h30q6 -52 9 -102t5 -102q4 38 6 77t8 77l6 50h38q6 -42 10 -83t6 -83l4 -38l4 81t6 79l4 44h42l8 -102t6 -102q4 38 6 77t6 77q2 12 3 24t3 26h40q6 -42 9 -83t7 -83l2 -38q4 42 6 81t6 79zM1254 734h-1130v22
h1130v-22zM1254 -194h-1130v22h1130v-22zM790 -38h-36v244h36h23t21 -4q16 -8 21 -28t5 -36v-19t-2 -22t-7 -20t-15 -13l30 -102h-38l-22 96h-16v-96zM1032 16v-54h-32v244h32l24 -86t22 -86q-4 44 -4 86v86h32v-244h-34l-24 83t-22 83q2 -28 3 -56t3 -56zM656 -38h-34
l30 244h56l30 -244h-34l-8 58h-32zM1202 114q2 12 1 24t-5 24q-4 8 -11 13t-15 -5q-6 -8 -7 -21t-1 -23q-2 -12 -2 -24v-22v-24t2 -22q0 -10 2 -23t12 -17q10 -6 16 1t8 20t2 25v18h-24v28h58v-124h-26l-2 34q-2 -12 -7 -23t-17 -13q-10 -4 -21 1t-19 13q-14 18 -16 43
t-2 45q-2 26 -1 52t9 50q2 12 7 22t15 14q10 6 22 7t22 -3q12 -4 19 -14t10 -23t4 -26t1 -23zM274 330q4 8 11 14t17 8q8 2 16 -2t16 0l-18 -34q-2 -4 -5 -11t1 -9q4 -4 10 2t12 14q2 4 5 9t5 11l8 18q8 0 16 4l-20 -38l-5 -10t1 -10t10 2t10 12q4 10 10 20t10 18q4 10 8 19
t10 17q8 -2 14 4l-28 -56q-2 -4 -4 -9t-4 -11q-2 -4 -4 -12t6 -4q4 2 9 7t9 11q2 8 8 16q4 8 11 14t17 8q8 2 16 -2t18 0q-6 -8 -10 -17t-8 -17q-2 -4 -5 -11t-1 -9q4 -2 7 0t7 5t7 8t5 7v2l32 66q8 0 14 4q-6 -12 -11 -24t-13 -22q8 6 17 11t17 -7q6 -10 0 -23t-12 -21
q6 0 11 3t9 7l9 18t11 18l18 36q6 -2 12 4l-12 -28t-14 -28q-2 -4 -5 -9t-5 -11q-2 -2 -3 -5t-1 -6t1 -5t7 0q4 2 10 8t8 12q4 14 12 22q4 4 10 8t14 6t14 1t8 -11q0 -8 -4 -15t-12 -11t-17 -7t-15 -3q0 -6 4 -9t10 -3q12 0 23 7t17 17l4 -2q-8 -14 -23 -22t-31 -6
q-16 4 -16 18q-4 -4 -8 -9t-8 -7q-8 -4 -15 -1t-5 13v2q-2 -2 -4 -2q-4 -4 -12 -4h-8q-2 0 -3 -2t-3 -2q-10 -6 -21 -5t-17 11q-8 -8 -18 -12q-8 -2 -12 3t0 13q-6 -6 -14 -13t-18 -1q-6 4 -6 14q-6 -8 -14 -14q-8 -4 -15 -1t-7 11q-6 -8 -10 -10q-8 -4 -16 -1t-6 11
q-4 -4 -8 -7t-8 -5q-10 -2 -13 3t1 13h-2q-4 -6 -13 -13t-17 -1q-6 2 -7 7t1 9q-6 -4 -10 -6t-14 -2q-4 0 -5 -1t-5 -3t-11 -4t-12 -1t-8 5t-1 12q2 12 8 23l12 21q4 0 12 4q-2 -8 -5 -15t-7 -15q-2 -2 -5 -7t-5 -10t-2 -9t4 -4q10 -2 18 8t10 14q6 8 9 18t3 18q8 2 9 -5
t-1 -13q-4 -16 -18 -30q8 -2 15 3t11 11zM992 448q-10 0 -17 5t-10 13t-4 18t-1 18q-2 18 -2 39t6 39q2 8 8 15t14 7q20 6 32 -12q8 -18 8 -38v-38v-21t-4 -21t-11 -17t-19 -7zM438 448q-10 0 -17 5t-10 13t-4 18t-3 18v39t6 39q2 8 7 15t15 7q22 6 32 -12q8 -18 8 -38v-38
q0 -10 -1 -21t-4 -21t-10 -17t-19 -7zM916 -38h-34v244h34v-244zM274 450h-20v152h22h15t13 -2q10 -6 13 -17t3 -21t-2 -27t-14 -21l18 -64h-24l-12 60q-4 0 -6 1t-6 1v-62zM1056 484v-34h-20v152h18l16 -53t14 -53q-2 26 -2 53v53h20v-152h-22q-8 26 -15 52t-13 52
q2 -18 2 -35t2 -35zM138 450h-22v152h34q26 0 32 -26q4 -14 3 -32t-9 -32q-6 -10 -17 -11t-21 -1v-50zM502 484v-34h-20v152h18l16 -53t14 -53q-2 26 -3 53t-1 53h20v-152h-20q-8 26 -15 52t-13 52q2 -18 2 -35t2 -35zM574 450h-22l18 152h36l18 -152h-20l-6 36h-20z
M750 448q-14 0 -22 9t-10 21t-2 26v26v72h22v-106v-11t2 -9q2 -6 7 -8t9 2q6 6 6 14v14q2 12 1 24t-1 24v56h22v-72q0 -12 1 -26t-2 -26t-10 -21t-23 -9zM1140 350q4 0 12 4q-2 -6 -5 -11t-7 -9v-2q6 8 15 14t17 8q12 0 12 -9t-4 -17q-2 -4 -9 -15t-5 -15t6 -3t7 5t7 8t6 8
l18 38h-8l4 6h8l8 16q8 0 14 4l-10 -20h14l-4 -6h-14l-18 -38l-5 -10t-1 -10q4 -2 8 0t8 7l7 9t5 6l4 -2l-13 -17t-17 -11t-13 2t-1 10l-5 -5t-7 -5q-6 -4 -14 -2t-6 12q0 8 6 16t8 14q2 4 4 10t-4 6q-12 -2 -21 -14t-13 -20q-4 -6 -7 -12t-5 -12h-12l6 16v-2q-4 -2 -10 -4
h-10q-4 -6 -10 -8t-8 -2q-10 -4 -18 4q-8 6 -7 17t5 21q6 8 15 16t21 8q10 0 14 -6t4 -14t-3 -17t-7 -15q12 0 20 12zM354 520q-24 16 -26 40q-2 10 2 22t14 18q10 4 22 3t20 -9q10 -8 10 -19v-21h-12h-10v13t-4 11q-10 8 -15 1t-7 -15q0 -10 8 -17t16 -13t14 -14t8 -16
q2 -12 0 -22t-7 -18t-14 -13t-21 -3q-20 4 -22 20t-2 32h20v-11v-9q2 -6 8 -10t12 0q4 4 5 13t-1 15q-2 8 -7 13t-11 9zM820 520q-22 14 -26 40q-2 10 2 22t14 18q10 4 22 3t20 -9q10 -8 9 -19t-1 -21h-9h-11q0 6 1 13t-5 11q-8 8 -14 1t-6 -15q0 -10 7 -17t15 -13
q16 -12 22 -30q2 -12 1 -22t-7 -18t-15 -13t-21 -3q-20 4 -22 20t-2 32h22q0 -6 -1 -11t1 -9q2 -6 7 -10t11 0t7 13t-1 15q-2 8 -7 13t-13 9zM248 450h-56v152h56v-20h-34v-44h28v-22h-28v-46h34v-20zM924 450h-54v152h54v-20h-32v-44h28v-22h-28v-46h32v-20zM178 322
l-42 -2q-6 -8 -10 -17t-4 -19q-8 -2 -10 2t0 11t5 14t5 9l-14 -2l-6 8h24q10 18 25 35t35 27q6 4 16 5t12 -11q2 -4 0 -10t-4 -10q-6 -10 -10 -20t-10 -18q-2 -8 -8 -18t-4 -18q-8 -2 -10 2t0 10t5 12zM1212 602h22q-6 -22 -11 -43t-9 -43q-6 -16 -4 -33t2 -33h-24
q0 16 1 33t-3 33q-6 22 -11 43t-9 43h20l8 -39t6 -39q0 20 4 39zM850 290q-8 4 -6 11t4 13l18 36q6 0 14 4l-14 -28q-2 -4 -8 -14t-2 -14q6 -6 15 2t11 12q4 4 6 7t4 9l12 24q4 0 12 2q-4 -10 -8 -19t-10 -19l-5 -10t1 -10t10 2t10 12q4 10 10 20t10 18q4 10 8 19t10 17
q6 -2 14 4l-28 -56l-10 -20q-2 -4 -3 -12t7 -4t14 14q4 10 10 20t10 18q4 10 8 19t10 17q6 -2 14 4l-28 -56l-10 -20q0 -2 -1 -5l-2 -6t0 -5t7 0t11 9l9 13l4 -2l-11 -15t-13 -11q-6 -4 -13 -1t-7 11q-6 -6 -12 -10t-13 -1t-7 11q-4 -4 -9 -8t-11 -4q-8 0 -9 6t1 12
q-6 -8 -16 -15t-18 -1zM1164 450h-54v152h22v-134h32v-18zM684 450h-54v152h22v-134h32v-18zM790 84q6 0 12 -1t12 3q8 8 10 20t2 22q0 12 -2 25t-10 21q-4 4 -11 4h-13v-94zM724 350q6 0 14 4q-2 -6 -5 -11t-7 -9v-2q6 8 15 14t17 8q12 0 12 -9t-4 -17q-2 -4 -10 -15
t-4 -15q2 -4 6 -2t8 7t8 9t4 6l4 -2l-9 -13t-13 -13q-8 -4 -15 -2t-5 12q0 8 6 16t8 14q2 2 3 5t1 5t-1 4t-5 2q-10 -2 -19 -14t-13 -20l-12 -24h-12l4 8q-2 -2 -4 -3t-4 -3q-8 -4 -15 -1t-5 13q0 8 4 15t8 15q6 8 8 18q10 0 16 4l-20 -38l-5 -10t1 -10q2 -2 6 0t8 7l7 9
t5 6zM992 584q-6 0 -9 -7t-4 -17t0 -20t1 -14t-1 -14t0 -20t4 -17t9 -7t9 7t4 17t1 20v14v14t-1 20t-4 17t-9 7zM438 584q-6 0 -9 -7t-4 -17t0 -20t1 -14t-1 -14t0 -20t4 -17t9 -7t9 7t4 17t0 20t-1 14t1 14t0 20t-4 17t-9 7zM1240 602h22q0 -28 -1 -56t-3 -58h-14
q-2 30 -3 57t-1 57zM202 386q-8 2 -19 -7t-15 -13q-16 -18 -30 -40h42l14 28q0 2 3 7t5 11t3 10t-3 4zM1088 374q-4 -4 -6 0t0 8q-12 4 -17 -6t-7 -16h14l-4 -6h-14l-44 -90q-4 0 -14 -2l46 92h-14l2 6h16q2 8 7 16t15 10q6 2 16 -2q2 0 5 -4t-1 -6zM884 374q-4 -4 -6 0
t-2 8q-10 4 -16 -6t-8 -16h14l-2 -6h-14l-44 -90q-6 0 -14 -2l46 92h-16l4 6h14q4 8 9 16t15 10q6 2 14 -2q2 0 6 -4t0 -6zM672 94q-2 -10 -3 -20t-3 -20h28q-2 28 -7 58t-7 60l-4 -39zM138 518q4 0 9 -1t7 3q6 6 6 15v15v17t-6 13q-2 6 -7 5t-9 -1v-66zM1094 348
q-8 0 -15 -9t-11 -19t-4 -19t8 -9q6 0 13 9t12 20t5 19t-8 8zM978 -18q0 -10 -6 -15t-14 -5t-14 5t-6 15t6 15t14 5t14 -5t6 -15zM612 -18q0 -10 -6 -15t-14 -5t-14 5t-6 15t6 15t14 5t14 -5t6 -15zM512 346q-8 0 -13 -5t-10 -13t-8 -16t-7 -14q12 -8 22 0t14 16q2 2 5 7
t4 11t0 10t-7 4zM280 294q8 0 14 6t10 14t8 17t6 15q-10 4 -20 -4t-14 -16q-2 -2 -5 -7t-4 -10t-1 -10t6 -5zM274 526h8t8 2q6 4 7 12t1 16q0 6 -1 14t-7 12q-4 2 -7 2h-9v-58zM416 294q6 0 12 6t11 14t8 17t7 15q-12 4 -21 -4t-15 -16q0 -2 -3 -7t-5 -10t-1 -10t7 -5z
M588 324q-2 -4 -3 -7t-3 -7q12 0 25 10t13 22q0 8 -5 7t-11 -5q-4 -4 -8 -9t-8 -11zM582 532l-2 -24h16l-4 36l-4 36q0 -12 -2 -24zM1262 462q0 -6 -4 -9t-8 -3t-8 3t-4 9t4 10t8 4t8 -4t4 -10zM716 370q-4 -6 -11 -4t-5 10q0 4 4 5t8 0t5 -4t-1 -7zM376 370q-2 -6 -10 -4
t-6 10q2 4 5 5t7 0t6 -4t-2 -7zM1244 294q-4 -8 -12 -5t-4 11t12 4t4 -10zM1264 340q-2 -4 -5 -5t-6 0t-4 4t1 7q4 6 11 3t3 -9z" />
    <glyph glyph-name="B" unicode="B" horiz-adv-x="370" 
d="M305 312q26 -27 37 -67q11 -38 6.5 -79.5t-24.5 -74.5q-14 -26 -35 -43t-46 -28t-53.5 -15.5t-56.5 -4.5h-88v666h63q30 0 59.5 -4t55.5 -19q27 -16 45 -44q12 -20 17 -44t2.5 -48t-11 -47t-23.5 -41q-13 -17 -30 -28.5t-36 -19.5q33 -5 63 -18.5t55 -40.5zM294 107
q10 21 15 45.5t3.5 49t-9.5 48t-23 41.5q-18 24 -45 38q-35 19 -74 22t-78 2v-328h45q24 0 48 4t46 13t40.5 25t31.5 40zM83 378q27 0 56 5t56 23q9 6 17.5 14t15.5 19q14 20 19 45t3 50q-2 23 -12.5 44.5t-31.5 38.5q-23 16 -50.5 20t-54.5 4h-18v-263z" />
    <glyph glyph-name="E" unicode="E" horiz-adv-x="325" 
d="M83 25h209v-25h-247v666h222v-25h-184v-174h155v-25h-155v-417z" />
    <glyph glyph-name="R" unicode="R" horiz-adv-x="370" 
d="M229 644q37 -17 65.5 -48.5t42.5 -75.5q14 -48 11.5 -100.5t-19.5 -99.5q-17 -45 -47 -82t-68 -64q31 -16 51.5 -40t20.5 -68q0 -9 -0.5 -19t1.5 -18t8 -12.5t19 -3.5v-26q-7 1 -13.5 1.5t-12.5 2.5q-24 6 -32 31q-8 22 -8 45.5t-9 45.5q-7 17 -19.5 28t-29.5 18l-14 -8
q-23 -12 -46 -20t-47 -15v-116h-38l-1 666q26 -1 49 0t44.5 -0.5t44 -6t47.5 -15.5zM309 406q2 26 0.5 52t-9.5 51q-10 33 -30.5 61t-54.5 45q-31 16 -64.5 21.5t-67.5 5.5v-501q13 1 29.5 7t33.5 14.5t32.5 18.5t26.5 19q48 39 73.5 92.5t30.5 113.5z" />
    <glyph glyph-name="G" unicode="G" horiz-adv-x="406" 
d="M342 570q-6 20 -18.5 38.5t-32.5 30.5q-19 12 -40 14t-41.5 -4t-38.5 -18.5t-31 -30.5q-20 -26 -32.5 -56.5t-20 -63.5t-11.5 -66.5t-5 -64.5q-2 -53 1 -105.5t18 -103.5q8 -29 22.5 -54.5t34.5 -43.5t46 -25t50 -2t41 21t27 36q23 44 22 93.5t-14 95.5h-53v25h98v-212
h-22q-2 -4 -3.5 -7.5t-3.5 -7.5q-13 -24 -35.5 -43t-51.5 -26q-31 -7 -62.5 2t-55.5 29q-26 21 -43.5 49t-28.5 59q-19 54 -24.5 112t-1.5 115q4 69 22 138.5t63 124.5q17 20 39 34t46.5 21t50.5 5t51 -15q20 -10 34 -23t23 -26q9 -14 14.5 -28.5t10.5 -31.5l-35 -13z" />
    <glyph glyph-name="M" unicode="M" horiz-adv-x="497" 
d="M451 666v-666h-38v578l-155 -410l-32 -3l-156 411v-576h-25v666h32l171 -453l173 453h30z" />
    <glyph glyph-name="N" unicode="N" horiz-adv-x="430" 
d="M385 666v-674h-43l-272 594v-586h-25v666h30l284 -621v621h26z" />
    <glyph glyph-name="H" unicode="H" horiz-adv-x="400" 
d="M355 666v-666h-38v427h-234v-427h-38v666h38v-214h234v214h38z" />
    <glyph glyph-name="Y" unicode="Y" horiz-adv-x="394" 
d="M374 666l-160 -433v-233h-38v228l-157 438h42l140 -395l146 395h27z" />
    <glyph glyph-name="I" unicode="I" 
d="M83 666v-666h-38v666h38z" />
    <glyph glyph-name="D" unicode="D" horiz-adv-x="413" 
d="M276 618q40 -29 66 -75q31 -53 39 -113t3 -120q-3 -35 -10 -70.5t-19.5 -68.5t-32.5 -63t-48 -53q-18 -16 -38 -26t-40 -17q-21 -7 -39 -9.5t-35.5 -2.5t-35.5 0.5t-40 -0.5v666q14 0 36.5 1t51.5 -1q38 -2 74.5 -13.5t67.5 -34.5zM347 335q2 49 -5 98t-30 93
q-11 20 -24.5 36.5t-30.5 30.5q-38 29 -82.5 38.5t-91.5 10.5v-618q26 0 52.5 3t51.5 12q37 13 67 40q26 24 43.5 54t28 64t15.5 69t6 69z" />
    <glyph glyph-name="J" unicode="J" 
d="M83 666v-644q0 -21 -3 -42.5t-9.5 -42t-18.5 -38t-30 -29.5q-17 -12 -36 -18l-8 23l12 7.5t13 9.5q13 11 21.5 27t13 33.5t6 35.5t1.5 35v643h38z" />
    <glyph glyph-name="L" unicode="L" horiz-adv-x="325" 
d="M46 0v666h38v-641h208v-25h-246z" />
    <glyph glyph-name="F" unicode="F" horiz-adv-x="277" 
d="M268 666v-25h-185v-174h155v-25h-155v-442h-38v666h223z" />
    <glyph glyph-name="C" unicode="C" horiz-adv-x="381" 
d="M318 571l-15.5 33.5t-23.5 30.5q-12 11 -28.5 15.5t-32.5 2.5q-19 -2 -37.5 -11t-33.5 -25q-16 -16 -28 -36.5t-21 -43.5q-19 -51 -25.5 -103t-7.5 -106q-1 -52 6 -105t27 -101q8 -18 19 -36.5t26 -33.5t33.5 -24.5t41.5 -9.5q17 0 32 6t27 15q21 16 35.5 37.5t25.5 44.5
l13 -4q-8 -29 -20.5 -54.5t-33.5 -46.5q-14 -13 -34 -23t-45 -11q-27 -1 -50.5 9.5t-43 28t-35 40.5t-25.5 48q-28 66 -32.5 137.5t3.5 142.5q3 32 9.5 66t17 66.5t26.5 62t40 53.5q18 18 41 29t46 13q21 2 42.5 -3t38.5 -17q24 -17 41 -43.5t24 -55.5l-33 -15z" />
    <glyph glyph-name="K" unicode="K" horiz-adv-x="363" 
d="M354 666l-154 -349q25 -15 39 -37.5t22 -49t11.5 -55.5t6.5 -57l4 -43.5t13 -40.5q12 -21 39 -22v-25q-20 2 -35.5 8t-27.5 23q-12 16 -19 36t-10 41t-4.5 42.5t-3.5 41.5q-2 15 -4 32t-6.5 32.5t-12.5 28.5t-22 22l-107 -243v-51h-38v666h38v-552l243 552h28z" />
    <glyph glyph-name="P" unicode="P" horiz-adv-x="345" 
d="M222 638q32 -20 57 -54q38 -54 44 -120t-14 -127q-19 -59 -56 -107.5t-86 -85.5q-20 -15 -40.5 -27t-42.5 -23v-94h-38v666h41.5t45.5 -2t46 -8t43 -18zM188 196q44 46 69.5 106t27.5 123q1 37 -7 72.5t-28 66.5q-20 29 -45 47q-27 19 -58 25t-63 6v-521q23 11 51 30
t53 45z" />
    <glyph glyph-name="Q" unicode="Q" horiz-adv-x="456" 
d="M427 333q0 -41 -4 -83.5t-15 -83.5t-31 -77.5t-53 -64.5l-28 -20q6 -20 8 -42.5t13 -41.5q7 -12 19.5 -17t25.5 -4v-25q-20 2 -38.5 5.5t-32.5 20.5q-16 19 -20.5 43t-8.5 49q-38 -10 -75.5 2t-66.5 41q-24 25 -40.5 56t-27 64.5t-16 68.5t-6.5 69q-2 51 1.5 102
t17.5 101q10 37 27 72t44 63q21 22 47 33.5t53 13t54 -7.5t50 -28q33 -27 53 -64t31 -78t15 -84t4 -83zM287 31q5 3 10 7t8 7q28 27 44.5 61.5t25.5 73t11.5 78t2.5 75.5t-2.5 75.5t-11.5 78t-25.5 73t-44.5 61.5q-21 20 -51.5 29t-59.5 -2q-32 -11 -53 -37
q-21 -23 -34 -51.5t-20.5 -59t-11.5 -61.5t-6 -61q-2 -34 -1.5 -68.5t5.5 -68.5q6 -49 20.5 -98.5t47.5 -87.5q21 -26 53 -37q14 -5 30.5 -5t31.5 4q-5 20 -17 35.5t-38 22.5l8 24q11 -5 22 -9t22 -12q23 -19 34 -47z" />
    <glyph glyph-name="S" unicode="S" horiz-adv-x="346" 
d="M164 651q-20 -2 -40.5 -13.5t-34.5 -31.5t-19 -45.5t-2 -50.5q2 -26 15 -50t33 -44q22 -22 47.5 -41l50 -38.5t46.5 -41t38 -49.5q17 -30 20.5 -62t-1.5 -66q-6 -31 -22 -58t-40 -45q-23 -17 -49.5 -23t-54.5 -4q-12 1 -32.5 7.5t-40.5 23.5t-36.5 47.5t-21.5 79.5l25 6
q2 -24 9.5 -47t20.5 -42.5t32 -32t45 -15.5q21 -2 43.5 3.5t41.5 20.5q19 14 31 37t16 49q4 27 -1 54t-19 50q-21 33 -50 58t-59.5 48t-58 49t-44.5 62q-10 21 -14 44.5t-2 47t10 46t22 40.5q17 24 42 37.5t51 16.5q36 4 64.5 -7.5t49.5 -33.5t34 -51t17 -60l-26 -4
q-4 25 -14.5 49.5t-27 43.5t-40 29t-54.5 7z" />
    <glyph glyph-name="T" unicode="T" horiz-adv-x="353" 
d="M343 666v-25h-147v-641h-38v641h-148v25h333z" />
    <glyph glyph-name="U" unicode="U" horiz-adv-x="406" 
d="M359 666v-411v-31t-1 -33q-2 -32 -8 -66t-23 -66q-17 -33 -48.5 -52.5t-72.5 -19.5q-38 0 -71.5 17t-53.5 54q-18 32 -25 66t-10 67q-1 17 -1 33v31v411h38v-473q2 -31 6.5 -62t18.5 -59q28 -57 98 -60q31 0 57.5 14.5t42.5 44.5q14 28 20.5 59t8.5 63q1 16 1 31.5v30.5
v411h23z" />
    <glyph glyph-name="V" unicode="V" horiz-adv-x="390" 
d="M367 666l-153 -669l-43 -1l-148 670h39l137 -622l142 622h26z" />
    <glyph glyph-name="W" unicode="W" horiz-adv-x="547" 
d="M523 666l-114 -668l-44 -1l-92 565l-97 -564l-44 -1l-109 669h37l101 -608l102 598l32 1l99 -599l104 608h25z" />
    <glyph glyph-name="X" unicode="X" horiz-adv-x="356" 
d="M299 0q0 1 -6 14.5l-15 34.5l-20 47.5l-23 54.5l-62 146l-128 -297h-27l141 330l-141 336h41q0 -1 5.5 -14l14 -33.5l19.5 -46l22 -52.5l60 -142l61 142l23 52.5l20 46l14.5 33.5t5.5 14h28l-138 -320l146 -346h-41z" />
    <glyph glyph-name="Z" unicode="Z" horiz-adv-x="304" 
d="M291 0h-291v20l255 621h-235v25h279v-20l-256 -621h248v-25z" />
    <glyph glyph-name="o" unicode="o" horiz-adv-x="399" 
d="M283 557q27 -24 44 -56t26.5 -68t12.5 -73t3 -71q0 -35 -3 -72t-12 -72.5t-26 -67.5t-45 -56q-24 -20 -55 -29q-33 -9 -65.5 2.5t-56.5 37.5q-40 44 -56 102.5t-19 116.5q-2 46 1.5 91.5t14.5 90.5q8 31 22.5 61t36.5 53q12 13 26 23t31 15q32 11 63 2.5t57 -30.5z
M331 289q0 31 -3 61.5t-8 60.5q-7 34 -19 68t-37 58q-39 39 -93 24q-24 -9 -43 -33q-17 -21 -28 -46t-17 -52t-9 -55t-4 -54q-2 -30 -1 -60.5t6 -60.5q5 -39 15.5 -79t36.5 -71q17 -20 41.5 -31t53.5 -3q22 7 42 25q25 26 37.5 60t18.5 68q5 30 8 60t3 60z" />
    <glyph glyph-name="p" unicode="p" horiz-adv-x="376" 
d="M243 579q29 -14 47 -40t29 -57t16 -64.5t8 -61.5q5 -66 0 -133.5t-31 -128.5q-10 -23 -24 -44t-33 -37q-21 -16 -43 -22q-12 -3 -23.5 -3t-20.5 1q-22 2 -40 11t-30 22q-8 6 -16 18v-141h-37v679h12q11 0 18 -7t7 -18v-43q14 22 30 40.5t39 29.5q44 22 92 -1zM306 273
q1 54 -3 109.5t-24 107.5q-8 20 -20 37.5t-29 27.5q-14 8 -32 10t-35 -7q-30 -15 -49 -42.5t-32 -58.5v-369q6 -14 13.5 -26.5t18.5 -23.5q21 -21 55 -24q10 -1 18.5 -1t17.5 3q8 2 16 7t16 11q23 20 34.5 48.5t19.5 57.5q8 32 11 65.5t4 67.5z" />
    <glyph glyph-name="q" unicode="q" horiz-adv-x="377" 
d="M332 -101h-38v141q-8 -12 -16 -18q-12 -13 -30 -22t-39 -11q-23 -2 -45 2.5t-42 21.5q-20 16 -34 37t-24 44q-26 61 -31 128.5t0 133.5q3 28 8 61.5t16 64.5t29 57t47 40q21 11 43.5 12.5t48.5 -11.5q23 -11 39 -29.5t30 -40.5v43q0 11 7 18t18 7h13v-679zM294 457
q-13 31 -32 58.5t-49 42.5q-33 16 -67 -3q-17 -10 -29 -27.5t-20 -37.5q-20 -52 -23.5 -107.5t-3.5 -109.5q1 -34 4.5 -67.5t11.5 -65.5q7 -29 19 -57.5t34 -48.5q14 -11 30 -16.5t38 -3.5q34 3 55 24q11 11 18.5 23.5t13.5 26.5v369z" />
    <glyph glyph-name="r" unicode="r" horiz-adv-x="287" 
d="M158 586q17 10 35 11t34.5 -4.5t32 -16t27.5 -22.5l-23 -29q-28 26 -50.5 32t-42.5 0q-21 -7 -36 -25.5t-26 -37.5q-16 -27 -27 -52v-442h-37v578h12q11 0 18 -7t7 -18v-57q15 27 33 51.5t43 38.5z" />
    <glyph glyph-name="s" unicode="s" horiz-adv-x="309" 
d="M102 364q20 -19 43 -35t45 -33.5t42 -36.5t35 -44q16 -26 20 -55t-2 -59q-6 -29 -21.5 -52.5t-37.5 -37.5q-20 -14 -44.5 -19.5t-49.5 -3.5q-15 1 -34 7.5t-37 22t-32 41.5t-20 66l28 2q3 -18 9.5 -37t18 -35.5t29 -27.5t41.5 -13q19 -2 39 2t37 17q17 12 28.5 31.5
t14.5 42.5t-0.5 46t-17.5 43q-19 29 -46 50.5l-54.5 42t-53 43t-41.5 53.5q-9 18 -13 39.5t-2 43t9.5 41.5t21.5 36q17 21 39.5 32t45.5 13q31 2 54 -8t38.5 -28t23.5 -42.5t9 -51.5l-24 -6q0 21 -6 41.5t-18 36t-30.5 25t-43.5 8.5q-40 -2 -67 -37q-14 -18 -18 -39.5
t-2 -43.5q2 -23 13.5 -43.5t30.5 -37.5z" />
    <glyph glyph-name="t" unicode="t" horiz-adv-x="177" 
d="M89 553h83v-25h-83v-356q0 -27 -0.5 -53t10.5 -51q9 -19 23 -28q12 -8 27 -11t28 -3v-26q-18 0 -36 2.5t-35 12.5q-23 11 -37 38q-7 13 -10.5 27.5t-5.5 29.5q-1 8 -1.5 19.5t-0.5 42.5v356h-56v25h56v147h38v-147z" />
    <glyph glyph-name="u" unicode="u" horiz-adv-x="402" 
d="M336 0q-11 0 -18.5 7.5t-7.5 18.5v60q-9 -15 -19 -29.5t-23 -28.5q-11 -11 -25 -21.5t-33 -15.5q-41 -11 -79 8q-20 10 -34 26.5t-24 36.5q-16 35 -21 72t-5 75t0.5 76t0.5 76v217h38v-350q1 -38 3 -77t16 -76q6 -17 15.5 -30.5t23.5 -21.5q29 -16 60 -8q14 4 26 12
t21 18q20 20 34 43.5t25 48.5v441h38v-578h-12z" />
    <glyph glyph-name="v" unicode="v" horiz-adv-x="365" 
d="M342 579l-141 -582l-43 -1l-136 583h38l126 -537l129 537h27z" />
    <glyph glyph-name="w" unicode="w" horiz-adv-x="522" 
d="M498 579l-102 -581l-43 -1l-93 489l-97 -488l-43 -1l-98 582h38l88 -525l102 514l33 1l97 -515l92 525h26z" />
    <glyph glyph-name="x" unicode="x" horiz-adv-x="331" 
d="M275 0l-114 255l-56 -124l-21 -46.5l-18.5 -40.5t-13.5 -30t-6 -14h-27l128 286l-128 293h41l108 -247l54 119l20 44l18 40l13.5 30t6.5 14h27l-125 -278l135 -301h-42z" />
    <glyph glyph-name="y" unicode="y" horiz-adv-x="365" 
d="M343 579l-176 -670h-26l30 117l-150 553h39l130 -482l127 482h26z" />
    <glyph glyph-name="z" unicode="z" horiz-adv-x="331" 
d="M299 0h-279v21l242 532h-222v26h266v-21l-242 -532h235v-26z" />
    <glyph glyph-name="n" unicode="n" horiz-adv-x="391" 
d="M308 0v351q0 38 -3 77t-17 76q-6 16 -15.5 29.5t-23.5 21.5q-27 17 -56 9t-51 -30q-20 -20 -34 -43.5t-25 -48.5v-442h-38v578h13q10 0 17.5 -7t7.5 -18v-60q9 15 19 29.5t23 27.5q12 13 28.5 23t34.5 14.5t37 3t37 -10.5q20 -10 34.5 -26.5t23.5 -36.5q16 -35 20.5 -72
t4.5 -75v-370h-37z" />
    <glyph glyph-name="dotaccent" unicode="&#x2d9;" horiz-adv-x="92" 
d="M46 636q-11 0 -18.5 7.5t-7.5 18.5t7.5 18.5t18.5 7.5t18.5 -7.5t7.5 -18.5t-7.5 -18.5t-18.5 -7.5z" />
    <glyph glyph-name="quotesingle" unicode="'" horiz-adv-x="78" 
d="M27 540l-7 151h38l-6 -151h-25z" />
    <glyph glyph-name="semicolon" unicode=";" horiz-adv-x="101" 
d="M51 493q13 0 21.5 -9t8.5 -22t-8.5 -21.5t-21.5 -8.5t-22 8.5t-9 21.5t9 22t22 9zM51 59q6 0 12.5 -2.5t12 -8.5t7.5 -17t-1 -28t-13.5 -40t-24.5 -44l-19 12q6 14 10 27q8 25 10 40q-11 2 -18 10.5t-7 19.5q0 13 8.5 22t22.5 9z" />
    <glyph glyph-name="period" unicode="." horiz-adv-x="101" 
d="M51 59q13 0 21.5 -9t8.5 -22t-8.5 -21.5t-21.5 -8.5t-22 8.5t-9 21.5t9 22t22 9z" />
    <glyph glyph-name="slash" unicode="/" horiz-adv-x="271" 
d="M251 663l-207 -755l-24 7l207 754z" />
    <glyph glyph-name="hungarumlaut" unicode="&#x2dd;" horiz-adv-x="290" 
d="M32 617l-12 23l137 101l18 -33zM127 617l-12 23l137 101l18 -33z" />
    <glyph glyph-name="quoteleft" unicode="&#x2018;" horiz-adv-x="120" 
d="M62 623q16 -1 27 -12.5t11 -27.5q0 -17 -11.5 -28t-28.5 -11t-28.5 11.5t-11.5 28.5q0 32 13 62.5t32 57.5q2 -2 5 -4.5t6 -5.5q4 -4 7 -8q-8 -14 -12.5 -30t-8.5 -33z" />
    <glyph glyph-name="quoteright" unicode="&#x2019;" horiz-adv-x="119" 
d="M60 691q17 0 28 -11.5t11 -28.5q0 -32 -12.5 -62.5t-31.5 -57.5q-2 1 -5 4l-6 6l-8 8q9 14 14 30t8 33q-16 1 -27 12t-11 28t11.5 28t28.5 11z" />
    <glyph glyph-name="backslash" unicode="\" horiz-adv-x="271" 
d="M44 669l207 -754l-24 -7l-207 755z" />
    <glyph glyph-name="quotesinglbase" unicode="&#x201a;" horiz-adv-x="119" 
d="M60 91q17 0 28 -11.5t11 -28.5q0 -32 -12.5 -62.5t-31.5 -57.5q-2 1 -5 4l-6 6l-8 8q9 14 14 30t8 33q-16 1 -27 12t-11 28t11.5 28t28.5 11z" />
    <glyph glyph-name="quotedblbase" unicode="&#x201e;" horiz-adv-x="213" 
d="M153 91q17 0 28.5 -11.5t11.5 -28.5q0 -32 -12.5 -62.5t-31.5 -57.5q-2 1 -5 4l-6 6l-8 8q9 14 14 30.5t8 32.5q-16 1 -27 12t-11 28t11.5 28t27.5 11zM60 91q17 0 28 -11.5t11 -28.5q0 -32 -12.5 -62.5t-31.5 -57.5q-2 1 -5 4l-6 6l-8 8q9 14 14 30t8 33q-16 1 -27 12
t-11 28t11.5 28t28.5 11z" />
    <glyph glyph-name="asciitilde" unicode="~" horiz-adv-x="252" 
d="M79 294q-12 -1 -22.5 -7t-18.5 -14l-18 18q11 8 20.5 17t22.5 14q15 6 30.5 5t30.5 -6q13 -5 25.5 -11.5t26.5 -8.5q12 -1 22 4.5t18 13.5l16 -19l-19 -15.5t-21 -12.5q-14 -5 -29 -3t-29 7t-27 12t-28 6z" />
    <glyph glyph-name="asciicircum" unicode="^" horiz-adv-x="248" 
d="M43 565l-16 18l97 106l97 -106l-16 -18l-81 71z" />
    <glyph glyph-name="florin" unicode="&#x192;" horiz-adv-x="154" 
d="M45 376h-25v25h25v140q2 25 5.5 51t18.5 50q6 10 13.5 17t15.5 12q13 8 35 8v-25q-11 0 -21 -7q-11 -7 -16.5 -19t-8 -26.5t-3 -30.5t-0.5 -30v-140h50v-25h-50v-357q-2 -25 -5.5 -51t-18.5 -50q-6 -10 -13.5 -17t-15.5 -12q-13 -8 -35 -8v25q10 0 21 7t16.5 19t8 26.5
t3 30.5t0.5 30v357z" />
    <glyph glyph-name="ellipsis" unicode="&#x2026;" horiz-adv-x="303" 
d="M51 59q13 0 21.5 -9t8.5 -22t-8.5 -21.5t-21.5 -8.5t-22 8.5t-9 21.5t9 22t22 9zM152 59q13 0 21.5 -9t8.5 -22t-8.5 -21.5t-21.5 -8.5t-22 8.5t-9 21.5t9 22t22 9zM253 59q13 0 21.5 -9t8.5 -22t-8.5 -21.5t-21.5 -8.5t-22 8.5t-9 21.5t9 22t22 9z" />
    <glyph glyph-name="daggerdbl" unicode="&#x2021;" horiz-adv-x="298" 
d="M23 536h113v130h25v-130h120v-26h-120v-440h120v-25h-120v-134h-25v134h-113v25h113v440h-113v26z" />
    <glyph glyph-name="dagger" unicode="&#x2020;" horiz-adv-x="298" 
d="M23 536h113v130h25v-130h120v-26h-120v-599h-25v599h-113v26z" />
    <glyph glyph-name="perthousand" unicode="&#x2030;" horiz-adv-x="503" 
d="M320 275q30 12 59 8.5t52.5 -18.5t37.5 -41t14 -60q0 -29 -11.5 -56t-37.5 -45q-22 -14 -44 -17q-6 -13 -14.5 -24t-21.5 -19q-20 -13 -43.5 -17t-46 1t-42.5 18t-33 33q-14 22 -16.5 49t4 51.5t23 45t40.5 31.5l12.5 4t12.5 3q9 17 22.5 31t32.5 22zM203 369
q-20 -13 -43.5 -17t-46.5 1t-43 18t-32 33q-14 22 -17 49t4 52t23 45.5t41 31.5q26 10 57 8.5t57 -18.5q24 -16 36.5 -43t13 -57t-11.5 -58t-38 -45zM101 556q-17 -11 -26.5 -27t-13 -34.5t-1 -38t9.5 -35.5q6 -15 19.5 -26t29.5 -15.5t33.5 -1.5t31.5 16t22 33.5t8 42
t-7 42.5t-23 35q-15 15 -39 17.5t-44 -8.5zM396 571l-346 -578l-21 13l345 578zM403 104q0 -7 -0.5 -13.5t-1.5 -12.5q22 11 33 35.5t12 51.5q1 21 -8 41.5t-25 34t-37 17.5t-43 -9q-17 -10 -28 -27q41 -6 69.5 -37.5t28.5 -80.5zM298 11q17 2 30.5 11.5t21.5 23.5
q-25 4 -46 17t-35 35q-13 20 -16 44.5t2 47.5q-1 -1 -2 -1q-17 -10 -26.5 -26t-13 -34.5t-1 -37.5t9.5 -36q10 -24 30 -35t46 -9zM366 105q1 16 -4.5 31.5t-15 28.5t-23 22t-28.5 11q-5 -20 -3 -42t10 -41q16 -39 59 -44q2 8 3 16.5z" />
    <glyph glyph-name="cent" unicode="&#xa2;" horiz-adv-x="343" 
d="M179 -17q-19 2 -36 9t-33 18q-20 15 -34 35t-24 43q-26 59 -30 122.5t3 126.5q3 28 8.5 58.5t16 59.5t25.5 55t38 46q14 13 31.5 21t34.5 11v78h25v-77q35 -2 62 -20q21 -16 36 -39.5t21 -48.5l-36 -17l-7 28q-5 14 -12 29t-20 26q-20 15 -44 17v-545q23 3 42 18
q18 14 30.5 33.5t23.5 39.5l13 -4q-8 -33 -26 -65.5t-51 -47.5q-17 -8 -32 -9v-73h-25v72zM133 39q22 -17 46 -20v543q-35 -7 -57.5 -34.5t-36.5 -59.5q-17 -43 -23.5 -89t-6.5 -92q0 -47 6 -94.5t25 -89.5q8 -20 20 -36.5t27 -27.5z" />
    <glyph glyph-name="guilsinglleft" unicode="&#x2039;" horiz-adv-x="174" 
d="M154 428l-89 -148l89 -148l-22 -14l-112 162l112 161z" />
    <glyph glyph-name="guilsinglright" unicode="&#x203a;" horiz-adv-x="174" 
d="M154 280l-112 -162l-22 14l89 148l-89 148l22 13z" />
    <glyph glyph-name="guillemotleft" unicode="&#xab;" horiz-adv-x="274" 
d="M154 428l-89 -148l89 -148l-22 -14l-112 162l112 161zM254 428l-89 -148l89 -148l-22 -14l-112 162l112 161z" />
    <glyph glyph-name="guillemotright" unicode="&#xbb;" horiz-adv-x="274" 
d="M154 280l-112 -162l-22 14l89 148l-89 148l22 13zM254 280l-112 -162l-22 14l89 148l-89 148l22 13z" />
    <glyph glyph-name="O" unicode="O" horiz-adv-x="456" 
d="M324 642q33 -28 53 -64.5t31.5 -77.5t15 -84t3.5 -83q0 -41 -4 -83.5t-15 -83.5t-31 -77.5t-53 -64.5q-27 -24 -63 -33q-38 -9 -74.5 3t-65.5 41q-25 25 -41.5 56t-26.5 64.5t-15 68.5t-7 69q-3 51 0.5 102t17.5 101q10 37 27.5 72t43.5 63q21 22 47 33.5t53.5 13
t54 -7.5t49.5 -28zM306 45q28 27 44.5 61.5t25 73t11 78t2.5 75.5t-2.5 75.5t-11 78t-25 73t-44.5 61.5q-35 33 -78 33q-26 0 -47.5 -11.5t-39.5 -31.5q-21 -23 -34 -51.5t-20.5 -59t-11.5 -61.5t-6 -61q-2 -34 -1.5 -68.5t5.5 -68.5q6 -49 20 -98.5t48 -87.5q21 -24 51 -36
t63 -3q15 4 27.5 11.5t23.5 17.5z" />
    <glyph glyph-name="a" unicode="a" horiz-adv-x="368" 
d="M310 0q-11 0 -18 7t-7 18v51q-6 -12 -13.5 -23.5t-16.5 -21.5q-14 -16 -34 -27.5t-43 -14.5q-24 -4 -48.5 0.5t-44.5 18.5q-21 14 -35.5 35t-22.5 45q-14 50 0 98q7 23 19 43.5t26 37.5q23 26 50.5 46t56.5 38l57.5 34t48.5 46q0 19 -0.5 33.5t-6.5 33.5q-10 31 -36 49
t-61 18q-26 0 -49 -11.5t-37 -34.5q-6 -11 -13 -32t-6 -41l-36 10q0 20 7 41.5t21 39.5q19 26 48 39.5t64 13.5q42 0 77 -19.5t53 -60.5q8 -17 10.5 -36t2.5 -46v-45.5v-74.5v-89.5v-90.5v-77.5v-50.5h-13zM272 105q5 13 8 26t5 27v236q-20 -19 -43.5 -33l-45.5 -28
q-28 -17 -54.5 -37.5t-46.5 -46.5q-11 -16 -19.5 -34t-13.5 -38q-4 -20 -4 -39.5t5 -39.5t14.5 -37t24.5 -29t34 -16.5t38 -1.5q19 2 35 11t29 22q12 13 20 28t14 30z" />
    <glyph glyph-name="A" unicode="A" horiz-adv-x="440" 
d="M379 0l-47 200h-227l-58 -200h-26l193 670h43l161 -670h-39zM325 225l-97 403l-116 -403h213z" />
    <glyph glyph-name="degree" unicode="&#xb0;" horiz-adv-x="150" 
d="M77 470q-23 0 -39 15.5t-16 38.5t16 39t39 16t39 -16t16 -39t-16 -38.5t-39 -15.5zM77 554q-12 0 -20.5 -9t-8.5 -21t8.5 -20.5t20.5 -8.5t20.5 8.5t8.5 20.5t-8.5 21t-20.5 9z" />
    <glyph glyph-name="twosuperior" unicode="&#xb2;" horiz-adv-x="342" 
d="M245 237q23 2 35.5 20.5t16.5 38.5l25 -6q-5 -30 -20.5 -55.5t-50.5 -33.5q-29 -6 -58.5 3l-57.5 17q-24 6 -47 4.5t-40 -21.5l-28 8q1 30 9.5 56.5t22 51.5t30.5 48t35 45l41 49.5t39 52t31.5 55.5t19.5 61q5 26 2.5 53t-16.5 49q-8 11 -21 20.5t-30 11.5q-33 3 -55 -14
q-21 -14 -33 -43.5t-12 -68.5l-38 7q0 38 16.5 72t51.5 57q17 8 35 12.5t37 2.5q20 -2 39 -13t32 -29q16 -23 22 -50.5t4 -56t-10 -56t-20 -51.5q-15 -29 -33.5 -55t-38.5 -51.5l-40.5 -50.5t-38.5 -52q-13 -20 -23.5 -39t-15.5 -41q26 13 62 10q30 -2 60.5 -11.5t60.5 -6.5
z" />
    <glyph glyph-name="threesuperior" unicode="&#xb3;" horiz-adv-x="379" 
d="M246 564q68 -27 99 -101q14 -35 13.5 -73.5t-10.5 -74.5q-11 -37 -36.5 -70.5t-66.5 -47.5q-19 -7 -38.5 -9t-38.5 0q-37 6 -68 26q-42 29 -61 76.5t-19 96.5l38 6q0 -54 14.5 -94t43.5 -63q11 -8 25.5 -14t30.5 -8q34 -5 63 8q28 13 47 38.5t28.5 57.5t9 66.5
t-10.5 65.5q-14 40 -45 65.5t-75 31.5h-46v25h57q13 0 26.5 8t24.5 20q17 21 22 49.5t0 54.5q-5 19 -16.5 34.5t-32.5 21.5q-17 5 -39 5.5t-39 -10.5q-17 -9 -31 -33t-16 -57l-36 6q1 3 1.5 10.5t5.5 27.5q9 26 28 45q25 27 61 33.5t72 -1.5q27 -5 49.5 -24.5t29.5 -48.5
q7 -24 5 -50.5t-16 -49.5q-10 -17 -23.5 -29t-29.5 -20z" />
    <glyph glyph-name="onesuperior" unicode="&#xb9;" horiz-adv-x="146" 
d="M62 200v517l-20 -36l-22 12l34 85h46v-578h-38z" />
    <glyph glyph-name="ordmasculine" unicode="&#xba;" horiz-adv-x="360" 
d="M204 731q29 -5 49 -20.5t34 -34.5q30 -41 41.5 -89.5t11.5 -98.5q0 -29 -4 -60.5t-14 -61t-26.5 -55t-42.5 -43.5q-36 -24 -78 -23t-76 30q-45 40 -62 99t-16 117q0 28 4 57.5t13 57t24 52.5t37 45q20 17 48 25t57 3zM262 319q23 38 31 82t10 88q-1 28 -5 62.5t-14.5 66
t-30.5 56t-53 32.5q-22 5 -43.5 -1.5t-38.5 -23.5q-18 -18 -29 -40.5t-17.5 -47.5t-9 -50.5t-2.5 -49.5q-1 -25 1.5 -52t9 -53.5t18 -50t29.5 -41.5q13 -14 29 -19t34 -7q25 0 45.5 13t35.5 36z" />
    <glyph glyph-name="onequarter" unicode="&#xbc;" horiz-adv-x="589" 
d="M521 74q9 4 15 11.5t10 16.5l11.5 -4l11.5 -4q-7 -16 -16 -28.5t-25 -20.5q-7 -4 -13.5 -5.5t-13.5 -3.5v-136h-38v133l-21 2q-18 2 -39.5 7.5t-43.5 8t-41.5 -1t-34.5 -19.5l-26 16l63 143.5l55 122.5l49.5 108l46.5 101l23 -10q-44 -111 -91.5 -218.5l-92.5 -219.5
q16 5 33.5 6.5t35.5 0.5q21 -1 41.5 -4t42.5 -5v281h38v-283q10 0 20 5zM62 100v517l-20 -36l-22 12l34 85h46v-578h-38zM357 663l-207 -755l-24 7l207 754z" />
    <glyph glyph-name="onehalf" unicode="&#xbd;" horiz-adv-x="629" 
d="M532 -63q23 2 35.5 20.5t16.5 38.5l25 -6q-5 -30 -20.5 -55.5t-50.5 -33.5q-29 -6 -58.5 3l-57.5 17q-24 6 -47 4.5t-40 -21.5l-28 8q1 30 9.5 56.5t22 51.5t30.5 48t35 45l41 49.5t39 52t31.5 55.5t19.5 61q5 26 2.5 53t-16.5 49q-8 11 -21 20.5t-30 11.5q-33 3 -55 -14
q-21 -14 -33 -43.5t-12 -68.5l-38 7q0 38 16.5 72t51.5 57q17 8 35 12.5t37 2.5q20 -2 39 -13t32 -29q16 -23 22 -50.5t4 -56t-10 -56t-20 -51.5q-15 -29 -33.5 -55t-38.5 -51.5l-40.5 -50.5t-38.5 -52q-13 -20 -23.5 -39t-15.5 -41q26 13 62 10q30 -2 60.5 -11.5t60.5 -6.5
zM62 100v517l-20 -36l-22 12l34 85h46v-578h-38zM357 663l-207 -755l-24 7l207 754z" />
    <glyph glyph-name="threequarters" unicode="&#xbe;" horiz-adv-x="772" 
d="M246 464q68 -27 99 -101q14 -35 13.5 -73.5t-10.5 -74.5q-11 -37 -36.5 -70.5t-66.5 -47.5q-19 -7 -38.5 -9t-38.5 0q-37 6 -68 26q-42 29 -61 76.5t-19 96.5l38 6q0 -54 14.5 -94t43.5 -63q11 -8 25.5 -14t30.5 -8q34 -5 63 8q28 13 47 38.5t28.5 57.5t9 66.5
t-10.5 65.5q-14 40 -45 65.5t-75 31.5h-46v25h57q13 0 26.5 8t24.5 20q17 21 22 49.5t0 54.5q-5 19 -16.5 34.5t-32.5 21.5q-17 5 -39 5.5t-39 -10.5q-17 -9 -31 -33t-16 -57l-36 6q1 3 1.5 10.5t5.5 27.5q9 26 28 45q25 27 61 33.5t72 -1.5q27 -5 49.5 -24.5t29.5 -48.5
q7 -24 5 -50.5t-16 -49.5q-10 -17 -23.5 -29t-29.5 -20zM704 74q9 4 15 11.5t10 16.5l11.5 -4l11.5 -4q-7 -16 -16 -28.5t-25 -20.5q-7 -4 -13.5 -5.5t-13.5 -3.5v-136h-38v133l-21 2q-18 2 -39.5 7.5t-43.5 8t-41.5 -1t-34.5 -19.5l-26 16l63 143.5l55 122.5l49.5 108
l46.5 101l23 -10q-44 -111 -91.5 -218.5l-92.5 -219.5q16 5 33.5 6.5t35.5 0.5q21 -1 41.5 -4t42.5 -5v281h38v-283q10 0 20 5zM550 663l-207 -755l-24 7l207 754z" />
    <glyph glyph-name="endash" unicode="&#x2013;" horiz-adv-x="380" 
d="M20 308h340v-25h-340v25z" />
    <glyph glyph-name="emdash" unicode="&#x2014;" horiz-adv-x="446" 
d="M20 308h406v-25h-406v25z" />
    <glyph glyph-name="logicalnot" unicode="&#xac;" horiz-adv-x="297" 
d="M251 320h-231v26h257v-101h-26v75z" />
    <glyph glyph-name="plusminus" unicode="&#xb1;" horiz-adv-x="297" 
d="M161 308h116v-26h-116v-116h-25v116h-116v26h116v116h25v-116zM277 108v-26h-257v26h257z" />
    <glyph glyph-name="minus" unicode="&#x2212;" horiz-adv-x="297" 
d="M277 308v-26h-257v26h257z" />
    <glyph glyph-name="multiply" unicode="&#xd7;" horiz-adv-x="297" 
d="M148 313l82 82l18 -18l-82 -82l82 -82l-17 -18l-82 82l-82 -82l-19 19l82 82l-82 82l18 17z" />
    <glyph glyph-name="divide" unicode="&#xf7;" horiz-adv-x="297" 
d="M149 159q13 0 21.5 -9t8.5 -22t-8.5 -21.5t-21.5 -8.5t-22 8.5t-9 21.5t9 22t22 9zM149 493q13 0 21.5 -9t8.5 -22t-8.5 -21.5t-21.5 -8.5t-22 8.5t-9 21.5t9 22t22 9zM277 308v-26h-257v26h257z" />
    <glyph glyph-name="periodcentered" unicode="&#xb7;" horiz-adv-x="101" 
d="M51 329q13 0 21.5 -9t8.5 -22t-8.5 -21.5t-21.5 -8.5t-22 8.5t-9 21.5t9 22t22 9z" />
    <glyph glyph-name="brokenbar" unicode="&#xa6;" horiz-adv-x="65" 
d="M20 263h25v-352h-25v352zM20 666h25v-352h-25v352z" />
    <glyph glyph-name="trademark" unicode="&#x2122;" horiz-adv-x="543" 
d="M206 666v-25h-57v-311h-38v311h-58v25h153zM497 666v-336h-38v238l-65 -160l-32 -3l-76 177v-252h-25v336h32l91 -213l83 213h30z" />
    <glyph glyph-name="section" unicode="&#xa7;" horiz-adv-x="320" 
d="M74 452q-12 14 -22 33q-9 18 -13 39.5t-2 43t9.5 41.5t21.5 36q17 21 39.5 32t45.5 13q22 2 42.5 -3t37.5 -19q7 -5 17 -7q5 -2 11 -2l21 -100l-18 -5q-6 19 -13 37q-6 15 -15 30.5t-20 25.5q-13 11 -28 15t-32 3q-19 -2 -36.5 -11t-30.5 -26q-14 -18 -18 -39.5t-2 -43.5
q2 -23 13.5 -43.5t30.5 -37.5q20 -19 43 -35t45 -33.5t42 -36.5t35 -44q16 -26 20 -55t-2 -59q-9 -39 -32 -66q4 -5 7 -10t7 -10q16 -26 20 -55t-2 -59q-6 -29 -21.5 -52.5t-37.5 -37.5q-20 -14 -44.5 -19.5t-49.5 -3.5q-23 3 -42 11.5t-33 20.5l-31 7l-17 98l16 2
q9 -31 24 -53t26 -33t26 -18t34 -9t39 2t37 17q17 12 28.5 31.5t14.5 42.5t-0.5 46t-17.5 43q-19 29 -46 50.5l-54.5 42t-53 43t-41.5 53.5q-9 18 -13 39.5t-2 43t9.5 41.5t21.5 36zM113 264q31 -29 67 -53t66 -55q16 22 19 51q3 23 -0.5 46t-17.5 43q-15 22 -34 39t-40 33
l-42 31t-39 33l-3 -4q-14 -18 -18 -39.5t-2 -43.5q2 -23 13.5 -43.5t30.5 -37.5z" />
    <glyph glyph-name="currency" unicode="&#xa4;" horiz-adv-x="300" 
d="M217 199q-32 -22 -72.5 -18.5t-69.5 26.5l-36 -36l-19 19l37 37q-4 4 -5 7q-20 32 -18 71.5t24 69.5l-38 39l18 17l37 -37q13 11 28 18q26 10 57 8.5t57 -18.5l9 -7l36 36l18 -18l-37 -37q11 -16 17 -35.5t6.5 -39.5t-5 -40t-17.5 -36l36 -36l-17 -18l-36 35zM115 386
q-17 -11 -26.5 -27t-13 -34.5t-1 -38t9.5 -35.5q6 -15 19.5 -26t29.5 -15.5t33.5 -1.5t31.5 16t22 33.5t8 42t-7 42.5t-23 35q-15 15 -39 17.5t-44 -8.5z" />
    <glyph glyph-name="exclamdown" unicode="&#xa1;" horiz-adv-x="101" 
d="M63 462l6 -464h-37l6 464h25zM51 592q-13 0 -22 9t-9 22t9 21.5t22 8.5q12 0 21 -8.5t9 -21.5t-9 -22t-21 -9z" />
    <glyph glyph-name="questiondown" unicode="&#xbf;" horiz-adv-x="313" 
d="M49 100q-11 29 -11 58t7 57.5t20.5 56t29.5 51.5q13 21 27.5 41t26.5 41t19.5 43.5t7.5 48.5h25q-1 -22 -4.5 -43.5t-12.5 -41.5q-11 -26 -25 -49l-28 -46t-26 -48t-20.5 -51.5t-10.5 -53.5t6 -54q10 -37 37 -58t64 -19q31 2 51.5 23.5t31.5 50.5q18 58 -3 115l22 12
q14 -17 20 -38t7 -43q0 -31 -13 -63t-40 -54q-16 -14 -36 -21t-41 -8t-41.5 5t-37.5 18q-36 26 -52 70zM189 627q-13 0 -22 9t-9 22t9 21.5t22 8.5t21.5 -8.5t8.5 -21.5t-8.5 -22t-21.5 -9z" />
    <glyph glyph-name="mu" unicode="&#xb5;" horiz-adv-x="402" 
d="M47 529l-16 -3l-11 11l42 41h24v-350q1 -38 3 -77t16 -76q6 -17 15.5 -30.5t23.5 -21.5q29 -16 60 -8q14 4 26 12t21 18q20 20 34 43.5t25 48.5v403q0 13 -12 13h-13v25h88v-25h-12q-13 0 -13 -13v-497l24 10l10 -11l-41 -42h-5q-11 0 -18.5 7.5t-7.5 18.5v60
q-9 -15 -19 -29.5t-23 -28.5q-11 -11 -25 -21.5t-33 -15.5q-41 -11 -79 8q-20 10 -34 26.5t-24 36.5h-1v-151h-25v618z" />
    <glyph glyph-name="bullet" unicode="&#x2022;" horiz-adv-x="174" 
d="M88 406q29 0 47.5 -20t18.5 -48t-18.5 -47t-47.5 -19q-28 0 -48 19t-20 47t20 48t48 20z" />
    <glyph glyph-name="paragraph" unicode="&#xb6;" horiz-adv-x="265" 
d="M188 540h-75v-629h-25v521q-28 0 -48 19t-20 47t20 48t48 20h157v-26h-32v-629h-25v629z" />
    <glyph glyph-name="ordfeminine" unicode="&#xaa;" horiz-adv-x="368" 
d="M310 200q-11 0 -18 7t-7 18v51q-6 -12 -13.5 -23.5t-16.5 -21.5q-14 -16 -34 -27.5t-43 -14.5q-24 -4 -48.5 0.5t-44.5 18.5q-21 14 -35.5 35t-22.5 45q-14 50 0 98q7 23 19 43.5t26 37.5q23 26 50.5 46t56.5 38l57.5 34t48.5 46q0 19 -0.5 33.5t-6.5 33.5q-10 31 -36 49
t-61 18q-26 0 -49 -11.5t-37 -34.5q-6 -11 -13 -32t-6 -41l-36 10q0 20 7 41.5t21 39.5q19 26 48 39.5t64 13.5q42 0 77 -19.5t53 -60.5q8 -17 10.5 -36t2.5 -46v-45.5v-74.5v-89.5v-90.5v-77.5v-50.5h-13zM272 305q5 13 8 26t5 27v236q-20 -19 -43.5 -33l-45.5 -28
q-28 -17 -54.5 -37.5t-46.5 -46.5q-11 -16 -19.5 -34t-13.5 -38q-4 -20 -4 -39.5t5 -39.5t14.5 -37t24.5 -29t34 -16.5t38 -1.5q19 2 35 11t29 22q12 13 20 28t14 30z" />
    <glyph glyph-name="dotlessi" unicode="&#x131;" 
d="M45 0v578h37v-578h-37z" />
    <glyph glyph-name="Lslash" unicode="&#x141;" horiz-adv-x="325" 
d="M-7 308l53 38v320h38v-293l49 35v-35l-49 -35v-313h208v-25h-246v311l-53 -38v35z" />
    <glyph glyph-name="lslash" unicode="&#x142;" 
d="M-7 508l52 37v155h38v-128l50 36v-35l-50 -36v-537h-38v510l-52 -37v35z" />
    <glyph glyph-name="uni00A0" unicode="&#xa0;" horiz-adv-x="219" 
 />
    <glyph glyph-name="Zcaron" unicode="&#x17d;" horiz-adv-x="304" 
d="M291 0h-291v20l255 621h-235v25h279v-20l-256 -621h248v-25zM48 773l12 22l92 -46l91 46l12 -22l-103 -68z" />
    <glyph glyph-name="zcaron" unicode="&#x17e;" horiz-adv-x="331" 
d="M299 0h-279v21l242 532h-222v26h266v-21l-242 -532h235v-26zM62 686l12 22l92 -46l91 46l12 -22l-103 -68z" />
    <glyph glyph-name="Scaron" unicode="&#x160;" horiz-adv-x="346" 
d="M164 651q-20 -2 -40.5 -13.5t-34.5 -31.5t-19 -45.5t-2 -50.5q2 -26 15 -50t33 -44q22 -22 47.5 -41l50 -38.5t46.5 -41t38 -49.5q17 -30 20.5 -62t-1.5 -66q-6 -31 -22 -58t-40 -45q-23 -17 -49.5 -23t-54.5 -4q-12 1 -32.5 7.5t-40.5 23.5t-36.5 47.5t-21.5 79.5l25 6
q2 -24 9.5 -47t20.5 -42.5t32 -32t45 -15.5q21 -2 43.5 3.5t41.5 20.5q19 14 31 37t16 49q4 27 -1 54t-19 50q-21 33 -50 58t-59.5 48t-58 49t-44.5 62q-10 21 -14 44.5t-2 47t10 46t22 40.5q17 24 42 37.5t51 16.5q36 4 64.5 -7.5t49.5 -33.5t34 -51t17 -60l-26 -4
q-4 25 -14.5 49.5t-27 43.5t-40 29t-54.5 7zM69 773l12 22l92 -46l91 46l12 -22l-103 -68z" />
    <glyph glyph-name="scaron" unicode="&#x161;" horiz-adv-x="309" 
d="M102 364q20 -19 43 -35t45 -33.5t42 -36.5t35 -44q16 -26 20 -55t-2 -59q-6 -29 -21.5 -52.5t-37.5 -37.5q-20 -14 -44.5 -19.5t-49.5 -3.5q-15 1 -34 7.5t-37 22t-32 41.5t-20 66l28 2q3 -18 9.5 -37t18 -35.5t29 -27.5t41.5 -13q19 -2 39 2t37 17q17 12 28.5 31.5
t14.5 42.5t-0.5 46t-17.5 43q-19 29 -46 50.5l-54.5 42t-53 43t-41.5 53.5q-9 18 -13 39.5t-2 43t9.5 41.5t21.5 36q17 21 39.5 32t45.5 13q31 2 54 -8t38.5 -28t23.5 -42.5t9 -51.5l-24 -6q0 21 -6 41.5t-18 36t-30.5 25t-43.5 8.5q-40 -2 -67 -37q-14 -18 -18 -39.5
t-2 -43.5q2 -23 13.5 -43.5t30.5 -37.5zM51 686l12 22l92 -46l91 46l12 -22l-103 -68z" />
    <glyph glyph-name="OE" unicode="&#x152;" horiz-adv-x="665" 
d="M429 25h209v-25h-247v117q-12 -26 -28 -49.5t-39 -43.5q-27 -24 -63 -33q-38 -9 -74.5 3t-65.5 41q-25 25 -41.5 56t-26.5 64.5t-15 68.5t-7 69q-3 51 0.5 102t17.5 101q10 37 27.5 72t43.5 63q21 22 47 33.5t53.5 13t54 -7.5t49.5 -28q23 -20 39 -43t28 -49v116h222v-25
h-184v-174h155v-25h-155v-417zM306 45q28 27 44.5 61.5t25 73t11 78t2.5 75.5t-2.5 75.5t-11 78t-25 73t-44.5 61.5q-35 33 -78 33q-26 0 -47.5 -11.5t-39.5 -31.5q-21 -23 -34 -51.5t-20.5 -59t-11.5 -61.5t-6 -61q-2 -34 -1.5 -68.5t5.5 -68.5q6 -49 20 -98.5t48 -87.5
q21 -24 51 -36t63 -3q15 4 27.5 11.5t23.5 17.5z" />
    <glyph glyph-name="oe" unicode="&#x153;" horiz-adv-x="652" 
d="M595 555q18 -19 30.5 -45t14.5 -52l-239 -356q8 -18 18.5 -33.5t24.5 -26.5q14 -12 30.5 -18t31.5 -6q16 -1 29 4.5t24 13.5q19 14 32 34t24 40l13 -4q-7 -26 -18.5 -49t-30.5 -43q-13 -14 -31 -22t-41 -10q-20 -1 -43.5 7t-43.5 24q-19 16 -32.5 36.5t-23.5 43.5
q-5 10 -8 19.5l-6 19.5q-9 -32 -25.5 -60.5t-41.5 -50.5q-24 -20 -55 -29q-33 -9 -65.5 2.5t-56.5 37.5q-40 44 -56 102.5t-19 116.5q-2 46 1.5 91.5t14.5 90.5q8 31 22.5 61t36.5 53q12 13 26 23t31 15q32 11 63 2.5t57 -30.5q29 -26 46 -60t26 -72q5 17 11 33.5t14 32.5
q11 23 25.5 42t34.5 33t42.5 19.5t42.5 3.5q23 -2 40.5 -11.5t29.5 -22.5zM331 289q0 31 -3 61.5t-8 60.5q-7 34 -19 68t-37 58q-39 39 -93 24q-24 -9 -43 -33q-17 -21 -28 -46t-17 -52t-9 -55t-4 -54q-2 -30 -1 -60.5t6 -60.5q5 -39 15.5 -79t36.5 -71q17 -20 41.5 -31
t53.5 -3q22 7 42 25q25 26 37.5 60t18.5 68q5 30 8 60t3 60zM603 448q-3 23 -9 45.5t-22 42.5q-7 10 -19 18t-29 10t-35 -3t-34 -16q-30 -22 -51 -66q-20 -43 -26.5 -90.5t-7.5 -95.5q-1 -40 3 -81.5t17 -80.5z" />
    <glyph glyph-name="Ydieresis" unicode="&#x178;" horiz-adv-x="394" 
d="M374 666l-160 -433v-233h-38v228l-157 438h42l140 -395l146 395h27zM157 723q-11 0 -18.5 7.5t-7.5 18.5t7.5 18.5t18.5 7.5t18.5 -7.5t7.5 -18.5t-7.5 -18.5t-18.5 -7.5zM237 723q-11 0 -18.5 7.5t-7.5 18.5t7.5 18.5t18.5 7.5t18.5 -7.5t7.5 -18.5t-7.5 -18.5
t-18.5 -7.5z" />
    <glyph glyph-name="Agrave" unicode="&#xc0;" horiz-adv-x="440" 
d="M379 0l-47 200h-227l-58 -200h-26l193 670h43l161 -670h-39zM325 225l-97 403l-116 -403h213zM285 704l-143 71l18 33l137 -81z" />
    <glyph glyph-name="Aacute" unicode="&#xc1;" horiz-adv-x="440" 
d="M379 0l-47 200h-227l-58 -200h-26l193 670h43l161 -670h-39zM325 225l-97 403l-116 -403h213zM197 704l-12 23l137 81l18 -33z" />
    <glyph glyph-name="Acircumflex" unicode="&#xc2;" horiz-adv-x="440" 
d="M379 0l-47 200h-227l-58 -200h-26l193 670h43l161 -670h-39zM325 225l-97 403l-116 -403h213zM146 717l-13 22l104 67l104 -67l-13 -22l-91 46z" />
    <glyph glyph-name="Atilde" unicode="&#xc3;" horiz-adv-x="440" 
d="M379 0l-47 200h-227l-58 -200h-26l193 670h43l161 -670h-39zM325 225l-97 403l-116 -403h213zM183 751q-12 -1 -22.5 -7t-18.5 -14l-18 18q11 8 20.5 17t22.5 14q15 6 30.5 5t30.5 -6q13 -5 25.5 -11.5t26.5 -8.5q12 -1 22 4.5t18 13.5l16 -19l-19 -15.5t-21 -12.5
q-14 -5 -29 -3t-29 7t-27 12t-28 6z" />
    <glyph glyph-name="Adieresis" unicode="&#xc4;" horiz-adv-x="440" 
d="M379 0l-47 200h-227l-58 -200h-26l193 670h43l161 -670h-39zM325 225l-97 403l-116 -403h213zM190 723q-11 0 -18.5 7.5t-7.5 18.5t7.5 18.5t18.5 7.5t18.5 -7.5t7.5 -18.5t-7.5 -18.5t-18.5 -7.5zM270 723q-11 0 -18.5 7.5t-7.5 18.5t7.5 18.5t18.5 7.5t18.5 -7.5
t7.5 -18.5t-7.5 -18.5t-18.5 -7.5z" />
    <glyph glyph-name="Aring" unicode="&#xc5;" horiz-adv-x="440" 
d="M379 0l-47 200h-227l-58 -200h-26l193 670h43l161 -670h-39zM325 225l-97 403l-116 -403h213zM235 699q-23 0 -39 15.5t-16 38.5t16 39t39 16t39 -16t16 -39t-16 -38.5t-39 -15.5zM235 783q-12 0 -20.5 -9t-8.5 -21t8.5 -20.5t20.5 -8.5t20.5 8.5t8.5 20.5t-8.5 21
t-20.5 9z" />
    <glyph glyph-name="AE" unicode="&#xc6;" horiz-adv-x="451" 
d="M265 25h159v-25h-197v200h-122l-58 -200h-26l192 666h186v-25h-134v-174h105v-25h-105v-417zM227 225v399l-115 -399h115z" />
    <glyph glyph-name="Ccedilla" unicode="&#xc7;" horiz-adv-x="381" 
d="M318 571l-15.5 33.5t-23.5 30.5q-12 11 -28.5 15.5t-32.5 2.5q-19 -2 -37.5 -11t-33.5 -25q-16 -16 -28 -36.5t-21 -43.5q-19 -51 -25.5 -103t-7.5 -106q-1 -52 6 -105t27 -101q8 -18 19 -36.5t26 -33.5t33.5 -24.5t41.5 -9.5q17 0 32 6t27 15q21 16 35.5 37.5t25.5 44.5
l13 -4q-8 -29 -20.5 -54.5t-33.5 -46.5q-14 -13 -34 -23t-45 -11h-13t-12 2l-9 -27q21 1 46 -3t42 -21q15 -15 15.5 -32.5t-11 -31.5t-34.5 -22.5t-54 -5.5q-13 1 -27 3.5l-25 4.5q-14 3 -27 5l9 22q13 -3 26 -5q25 -5 46 -5q23 0 36 5t18 13t2.5 16.5t-9.5 15.5
q-8 8 -23 11.5t-29 5.5q-17 1 -36 0l20 58q-36 14 -63 46.5t-42 70.5q-28 66 -32.5 137.5t3.5 142.5q3 32 9.5 66t17 66.5t26.5 62t40 53.5q18 18 41 29t46 13q21 2 42.5 -3t38.5 -17q24 -17 41 -43.5t24 -55.5l-33 -15z" />
    <glyph glyph-name="Egrave" unicode="&#xc8;" horiz-adv-x="325" 
d="M83 25h209v-25h-247v666h222v-25h-184v-174h155v-25h-155v-417zM228 704l-143 71l18 33l137 -81z" />
    <glyph glyph-name="Eacute" unicode="&#xc9;" horiz-adv-x="325" 
d="M83 25h209v-25h-247v666h222v-25h-184v-174h155v-25h-155v-417zM97 704l-12 23l137 81l18 -33z" />
    <glyph glyph-name="Ecircumflex" unicode="&#xca;" horiz-adv-x="325" 
d="M83 25h209v-25h-247v666h222v-25h-184v-174h155v-25h-155v-417zM71 717l-13 22l104 67l104 -67l-13 -22l-91 46z" />
    <glyph glyph-name="Edieresis" unicode="&#xcb;" horiz-adv-x="325" 
d="M83 25h209v-25h-247v666h222v-25h-184v-174h155v-25h-155v-417zM122 723q-11 0 -18.5 7.5t-7.5 18.5t7.5 18.5t18.5 7.5t18.5 -7.5t7.5 -18.5t-7.5 -18.5t-18.5 -7.5zM202 723q-11 0 -18.5 7.5t-7.5 18.5t7.5 18.5t18.5 7.5t18.5 -7.5t7.5 -18.5t-7.5 -18.5t-18.5 -7.5z
" />
    <glyph glyph-name="Igrave" unicode="&#xcc;" 
d="M83 666v-666h-38v666h38zM130 704l-143 71l18 33l137 -81z" />
    <glyph glyph-name="Iacute" unicode="&#xcd;" 
d="M83 666v-666h-38v666h38zM-1 704l-12 23l137 81l18 -33z" />
    <glyph glyph-name="Icircumflex" unicode="&#xce;" 
d="M83 666v-666h-38v666h38zM-27 717l-13 22l104 67l104 -67l-13 -22l-91 46z" />
    <glyph glyph-name="Idieresis" unicode="&#xcf;" 
d="M83 666v-666h-38v666h38zM24 723q-11 0 -18.5 7.5t-7.5 18.5t7.5 18.5t18.5 7.5t18.5 -7.5t7.5 -18.5t-7.5 -18.5t-18.5 -7.5zM104 723q-11 0 -18.5 7.5t-7.5 18.5t7.5 18.5t18.5 7.5t18.5 -7.5t7.5 -18.5t-7.5 -18.5t-18.5 -7.5z" />
    <glyph glyph-name="Eth" unicode="&#xd0;" horiz-adv-x="413" 
d="M-32 353h78v313q14 0 36.5 1t51.5 -1q38 -2 74.5 -13.5t67.5 -34.5q40 -29 66 -75q31 -53 39 -113t3 -120q-3 -35 -10 -70.5t-19.5 -68.5t-32.5 -63t-48 -53q-18 -16 -38 -26t-40 -17q-21 -7 -39 -9.5t-35.5 -2.5t-35.5 0.5t-40 -0.5v328h-78v25zM347 335q2 49 -5 98
t-30 93q-11 20 -24.5 36.5t-30.5 30.5q-38 29 -82.5 38.5t-91.5 10.5v-289h80v-25h-80v-304q26 0 52.5 3t51.5 12q37 13 67 40q26 24 43.5 54t28 64t15.5 69t6 69z" />
    <glyph glyph-name="Ntilde" unicode="&#xd1;" horiz-adv-x="430" 
d="M385 666v-674h-43l-272 594v-586h-25v666h30l284 -621v621h26zM168 751q-12 -1 -22.5 -7t-18.5 -14l-18 18q11 8 20.5 17t22.5 14q15 6 30.5 5t30.5 -6q13 -5 25.5 -11.5t26.5 -8.5q12 -1 22 4.5t18 13.5l16 -19l-19 -15.5t-21 -12.5q-14 -5 -29 -3t-29 7t-27 12t-28 6z
" />
    <glyph glyph-name="Ograve" unicode="&#xd2;" horiz-adv-x="456" 
d="M324 642q33 -28 53 -64.5t31.5 -77.5t15 -84t3.5 -83q0 -41 -4 -83.5t-15 -83.5t-31 -77.5t-53 -64.5q-27 -24 -63 -33q-38 -9 -74.5 3t-65.5 41q-25 25 -41.5 56t-26.5 64.5t-15 68.5t-7 69q-3 51 0.5 102t17.5 101q10 37 27.5 72t43.5 63q21 22 47 33.5t53.5 13
t54 -7.5t49.5 -28zM306 45q28 27 44.5 61.5t25 73t11 78t2.5 75.5t-2.5 75.5t-11 78t-25 73t-44.5 61.5q-35 33 -78 33q-26 0 -47.5 -11.5t-39.5 -31.5q-21 -23 -34 -51.5t-20.5 -59t-11.5 -61.5t-6 -61q-2 -34 -1.5 -68.5t5.5 -68.5q6 -49 20 -98.5t48 -87.5q21 -24 51 -36
t63 -3q15 4 27.5 11.5t23.5 17.5zM293 704l-143 71l18 33l137 -81z" />
    <glyph glyph-name="Oacute" unicode="&#xd3;" horiz-adv-x="456" 
d="M324 642q33 -28 53 -64.5t31.5 -77.5t15 -84t3.5 -83q0 -41 -4 -83.5t-15 -83.5t-31 -77.5t-53 -64.5q-27 -24 -63 -33q-38 -9 -74.5 3t-65.5 41q-25 25 -41.5 56t-26.5 64.5t-15 68.5t-7 69q-3 51 0.5 102t17.5 101q10 37 27.5 72t43.5 63q21 22 47 33.5t53.5 13
t54 -7.5t49.5 -28zM306 45q28 27 44.5 61.5t25 73t11 78t2.5 75.5t-2.5 75.5t-11 78t-25 73t-44.5 61.5q-35 33 -78 33q-26 0 -47.5 -11.5t-39.5 -31.5q-21 -23 -34 -51.5t-20.5 -59t-11.5 -61.5t-6 -61q-2 -34 -1.5 -68.5t5.5 -68.5q6 -49 20 -98.5t48 -87.5q21 -24 51 -36
t63 -3q15 4 27.5 11.5t23.5 17.5zM162 704l-12 23l137 81l18 -33z" />
    <glyph glyph-name="Ocircumflex" unicode="&#xd4;" horiz-adv-x="456" 
d="M324 642q33 -28 53 -64.5t31.5 -77.5t15 -84t3.5 -83q0 -41 -4 -83.5t-15 -83.5t-31 -77.5t-53 -64.5q-27 -24 -63 -33q-38 -9 -74.5 3t-65.5 41q-25 25 -41.5 56t-26.5 64.5t-15 68.5t-7 69q-3 51 0.5 102t17.5 101q10 37 27.5 72t43.5 63q21 22 47 33.5t53.5 13
t54 -7.5t49.5 -28zM306 45q28 27 44.5 61.5t25 73t11 78t2.5 75.5t-2.5 75.5t-11 78t-25 73t-44.5 61.5q-35 33 -78 33q-26 0 -47.5 -11.5t-39.5 -31.5q-21 -23 -34 -51.5t-20.5 -59t-11.5 -61.5t-6 -61q-2 -34 -1.5 -68.5t5.5 -68.5q6 -49 20 -98.5t48 -87.5q21 -24 51 -36
t63 -3q15 4 27.5 11.5t23.5 17.5zM137 717l-13 22l104 67l104 -67l-13 -22l-91 46z" />
    <glyph glyph-name="Otilde" unicode="&#xd5;" horiz-adv-x="456" 
d="M324 642q33 -28 53 -64.5t31.5 -77.5t15 -84t3.5 -83q0 -41 -4 -83.5t-15 -83.5t-31 -77.5t-53 -64.5q-27 -24 -63 -33q-38 -9 -74.5 3t-65.5 41q-25 25 -41.5 56t-26.5 64.5t-15 68.5t-7 69q-3 51 0.5 102t17.5 101q10 37 27.5 72t43.5 63q21 22 47 33.5t53.5 13
t54 -7.5t49.5 -28zM306 45q28 27 44.5 61.5t25 73t11 78t2.5 75.5t-2.5 75.5t-11 78t-25 73t-44.5 61.5q-35 33 -78 33q-26 0 -47.5 -11.5t-39.5 -31.5q-21 -23 -34 -51.5t-20.5 -59t-11.5 -61.5t-6 -61q-2 -34 -1.5 -68.5t5.5 -68.5q6 -49 20 -98.5t48 -87.5q21 -24 51 -36
t63 -3q15 4 27.5 11.5t23.5 17.5zM181 751q-12 -1 -22.5 -7t-18.5 -14l-18 18q11 8 20.5 17t22.5 14q15 6 30.5 5t30.5 -6q13 -5 25.5 -11.5t26.5 -8.5q12 -1 22 4.5t18 13.5l16 -19l-19 -15.5t-21 -12.5q-14 -5 -29 -3t-29 7t-27 12t-28 6z" />
    <glyph glyph-name="Odieresis" unicode="&#xd6;" horiz-adv-x="456" 
d="M324 642q33 -28 53 -64.5t31.5 -77.5t15 -84t3.5 -83q0 -41 -4 -83.5t-15 -83.5t-31 -77.5t-53 -64.5q-27 -24 -63 -33q-38 -9 -74.5 3t-65.5 41q-25 25 -41.5 56t-26.5 64.5t-15 68.5t-7 69q-3 51 0.5 102t17.5 101q10 37 27.5 72t43.5 63q21 22 47 33.5t53.5 13
t54 -7.5t49.5 -28zM306 45q28 27 44.5 61.5t25 73t11 78t2.5 75.5t-2.5 75.5t-11 78t-25 73t-44.5 61.5q-35 33 -78 33q-26 0 -47.5 -11.5t-39.5 -31.5q-21 -23 -34 -51.5t-20.5 -59t-11.5 -61.5t-6 -61q-2 -34 -1.5 -68.5t5.5 -68.5q6 -49 20 -98.5t48 -87.5q21 -24 51 -36
t63 -3q15 4 27.5 11.5t23.5 17.5zM188 723q-11 0 -18.5 7.5t-7.5 18.5t7.5 18.5t18.5 7.5t18.5 -7.5t7.5 -18.5t-7.5 -18.5t-18.5 -7.5zM268 723q-11 0 -18.5 7.5t-7.5 18.5t7.5 18.5t18.5 7.5t18.5 -7.5t7.5 -18.5t-7.5 -18.5t-18.5 -7.5z" />
    <glyph glyph-name="Ugrave" unicode="&#xd9;" horiz-adv-x="406" 
d="M359 666v-411v-31t-1 -33q-2 -32 -8 -66t-23 -66q-17 -33 -48.5 -52.5t-72.5 -19.5q-38 0 -71.5 17t-53.5 54q-18 32 -25 66t-10 67q-1 17 -1 33v31v411h38v-473q2 -31 6.5 -62t18.5 -59q28 -57 98 -60q31 0 57.5 14.5t42.5 44.5q14 28 20.5 59t8.5 63q1 16 1 31.5v30.5
v411h23zM268 704l-143 71l18 33l137 -81z" />
    <glyph glyph-name="Uacute" unicode="&#xda;" horiz-adv-x="406" 
d="M359 666v-411v-31t-1 -33q-2 -32 -8 -66t-23 -66q-17 -33 -48.5 -52.5t-72.5 -19.5q-38 0 -71.5 17t-53.5 54q-18 32 -25 66t-10 67q-1 17 -1 33v31v411h38v-473q2 -31 6.5 -62t18.5 -59q28 -57 98 -60q31 0 57.5 14.5t42.5 44.5q14 28 20.5 59t8.5 63q1 16 1 31.5v30.5
v411h23zM137 704l-12 23l137 81l18 -33z" />
    <glyph glyph-name="Ucircumflex" unicode="&#xdb;" horiz-adv-x="406" 
d="M359 666v-411v-31t-1 -33q-2 -32 -8 -66t-23 -66q-17 -33 -48.5 -52.5t-72.5 -19.5q-38 0 -71.5 17t-53.5 54q-18 32 -25 66t-10 67q-1 17 -1 33v31v411h38v-473q2 -31 6.5 -62t18.5 -59q28 -57 98 -60q31 0 57.5 14.5t42.5 44.5q14 28 20.5 59t8.5 63q1 16 1 31.5v30.5
v411h23zM112 717l-13 22l104 67l104 -67l-13 -22l-91 46z" />
    <glyph glyph-name="Udieresis" unicode="&#xdc;" horiz-adv-x="406" 
d="M359 666v-411v-31t-1 -33q-2 -32 -8 -66t-23 -66q-17 -33 -48.5 -52.5t-72.5 -19.5q-38 0 -71.5 17t-53.5 54q-18 32 -25 66t-10 67q-1 17 -1 33v31v411h38v-473q2 -31 6.5 -62t18.5 -59q28 -57 98 -60q31 0 57.5 14.5t42.5 44.5q14 28 20.5 59t8.5 63q1 16 1 31.5v30.5
v411h23zM243 723q-11 0 -18.5 7.5t-7.5 18.5t7.5 18.5t18.5 7.5t18.5 -7.5t7.5 -18.5t-7.5 -18.5t-18.5 -7.5zM163 723q-11 0 -18.5 7.5t-7.5 18.5t7.5 18.5t18.5 7.5t18.5 -7.5t7.5 -18.5t-7.5 -18.5t-18.5 -7.5z" />
    <glyph glyph-name="Yacute" unicode="&#xdd;" horiz-adv-x="394" 
d="M374 666l-160 -433v-233h-38v228l-157 438h42l140 -395l146 395h27zM131 704l-12 23l137 81l18 -33z" />
    <glyph glyph-name="Oslash" unicode="&#xd8;" horiz-adv-x="456" 
d="M346 701l-17 -63q31 -28 50.5 -64.5t30 -77t14 -82.5t3.5 -81q0 -41 -4 -83.5t-15 -83.5t-31 -77.5t-53 -64.5q-27 -24 -63 -33q-27 -6 -54 -1.5t-51 18.5l-17 -62l-24 7l19 70q-4 2 -7 5.5t-6 6.5q-25 25 -41.5 56t-26.5 64.5t-15 68.5t-7 69q-3 51 0.5 102t17.5 101
q10 37 27.5 72t43.5 63q19 20 42.5 31.5t48.5 14.5t49.5 -3t46.5 -20l15 53zM73 241q6 -49 20 -98.5t48 -87.5q0 -1 0.5 -1t0.5 -1l158 573q-33 28 -72 28q-26 0 -47.5 -11.5t-39.5 -31.5q-21 -23 -34 -51.5t-20.5 -59t-11.5 -61.5t-6 -61q-2 -34 -1.5 -68.5t5.5 -68.5z
M306 45q28 27 44.5 61.5t25 73t11 78t2.5 75.5q0 33 -2 70t-9.5 73t-21 69.5t-36.5 60.5l-157 -572q20 -14 43 -19.5t49 1.5q15 4 27.5 11.5t23.5 17.5z" />
    <glyph glyph-name="oslash" unicode="&#xf8;" horiz-adv-x="399" 
d="M315 663l-30 -108q27 -24 43.5 -56t25.5 -67.5t12 -72t3 -70.5q0 -35 -3 -72t-12 -72.5t-26 -67.5t-45 -56q-24 -20 -55 -29q-24 -6 -48 -2t-45 17l-27 -99l-24 7l30 109q-5 3 -8 8q-40 44 -56 102.5t-19 116.5q-2 46 1.5 91.5t14.5 90.5q8 31 22.5 61t36.5 53
q12 13 26 23t31 15q26 8 52 4t49 -18l27 98zM331 289q0 31 -3 61.5t-8 60.5q-6 29 -16 58.5t-28 53.5l-133 -489q16 -13 36 -18.5t43 0.5q22 7 42 25q25 26 37.5 60t18.5 68q5 30 8 60t3 60zM75 200q5 -38 14.5 -76t32.5 -69l134 489q-18 14 -40 19t-45 -2q-24 -9 -43 -33
q-17 -21 -28 -46t-17 -52t-9 -55t-4 -54q-2 -30 -1 -60.5t6 -60.5z" />
    <glyph glyph-name="ugrave" unicode="&#xf9;" horiz-adv-x="402" 
d="M336 0q-11 0 -18.5 7.5t-7.5 18.5v60q-9 -15 -19 -29.5t-23 -28.5q-11 -11 -25 -21.5t-33 -15.5q-41 -11 -79 8q-20 10 -34 26.5t-24 36.5q-16 35 -21 72t-5 75t0.5 76t0.5 76v217h38v-350q1 -38 3 -77t16 -76q6 -17 15.5 -30.5t23.5 -21.5q29 -16 60 -8q14 4 26 12
t21 18q20 20 34 43.5t25 48.5v441h38v-578h-12zM266 617l-143 71l18 33l137 -81z" />
    <glyph glyph-name="uacute" unicode="&#xfa;" horiz-adv-x="402" 
d="M336 0q-11 0 -18.5 7.5t-7.5 18.5v60q-9 -15 -19 -29.5t-23 -28.5q-11 -11 -25 -21.5t-33 -15.5q-41 -11 -79 8q-20 10 -34 26.5t-24 36.5q-16 35 -21 72t-5 75t0.5 76t0.5 76v217h38v-350q1 -38 3 -77t16 -76q6 -17 15.5 -30.5t23.5 -21.5q29 -16 60 -8q14 4 26 12
t21 18q20 20 34 43.5t25 48.5v441h38v-578h-12zM135 617l-12 23l137 81l18 -33z" />
    <glyph glyph-name="ucircumflex" unicode="&#xfb;" horiz-adv-x="402" 
d="M336 0q-11 0 -18.5 7.5t-7.5 18.5v60q-9 -15 -19 -29.5t-23 -28.5q-11 -11 -25 -21.5t-33 -15.5q-41 -11 -79 8q-20 10 -34 26.5t-24 36.5q-16 35 -21 72t-5 75t0.5 76t0.5 76v217h38v-350q1 -38 3 -77t16 -76q6 -17 15.5 -30.5t23.5 -21.5q29 -16 60 -8q14 4 26 12
t21 18q20 20 34 43.5t25 48.5v441h38v-578h-12zM110 630l-13 22l104 67l104 -67l-13 -22l-91 46z" />
    <glyph glyph-name="udieresis" unicode="&#xfc;" horiz-adv-x="402" 
d="M336 0q-11 0 -18.5 7.5t-7.5 18.5v60q-9 -15 -19 -29.5t-23 -28.5q-11 -11 -25 -21.5t-33 -15.5q-41 -11 -79 8q-20 10 -34 26.5t-24 36.5q-16 35 -21 72t-5 75t0.5 76t0.5 76v217h38v-350q1 -38 3 -77t16 -76q6 -17 15.5 -30.5t23.5 -21.5q29 -16 60 -8q14 4 26 12
t21 18q20 20 34 43.5t25 48.5v441h38v-578h-12zM241 636q-11 0 -18.5 7.5t-7.5 18.5t7.5 18.5t18.5 7.5t18.5 -7.5t7.5 -18.5t-7.5 -18.5t-18.5 -7.5zM161 636q-11 0 -18.5 7.5t-7.5 18.5t7.5 18.5t18.5 7.5t18.5 -7.5t7.5 -18.5t-7.5 -18.5t-18.5 -7.5z" />
    <glyph glyph-name="yacute" unicode="&#xfd;" horiz-adv-x="365" 
d="M343 579l-176 -670h-26l30 117l-150 553h39l130 -482l127 482h26zM117 617l-12 23l137 81l18 -33z" />
    <glyph glyph-name="ydieresis" unicode="&#xff;" horiz-adv-x="365" 
d="M343 579l-176 -670h-26l30 117l-150 553h39l130 -482l127 482h26zM142 636q-11 0 -18.5 7.5t-7.5 18.5t7.5 18.5t18.5 7.5t18.5 -7.5t7.5 -18.5t-7.5 -18.5t-18.5 -7.5zM222 636q-11 0 -18.5 7.5t-7.5 18.5t7.5 18.5t18.5 7.5t18.5 -7.5t7.5 -18.5t-7.5 -18.5t-18.5 -7.5
z" />
    <glyph glyph-name="odieresis" unicode="&#xf6;" horiz-adv-x="399" 
d="M283 557q27 -24 44 -56t26.5 -68t12.5 -73t3 -71q0 -35 -3 -72t-12 -72.5t-26 -67.5t-45 -56q-24 -20 -55 -29q-33 -9 -65.5 2.5t-56.5 37.5q-40 44 -56 102.5t-19 116.5q-2 46 1.5 91.5t14.5 90.5q8 31 22.5 61t36.5 53q12 13 26 23t31 15q32 11 63 2.5t57 -30.5z
M331 289q0 31 -3 61.5t-8 60.5q-7 34 -19 68t-37 58q-39 39 -93 24q-24 -9 -43 -33q-17 -21 -28 -46t-17 -52t-9 -55t-4 -54q-2 -30 -1 -60.5t6 -60.5q5 -39 15.5 -79t36.5 -71q17 -20 41.5 -31t53.5 -3q22 7 42 25q25 26 37.5 60t18.5 68q5 30 8 60t3 60zM159 636
q-11 0 -18.5 7.5t-7.5 18.5t7.5 18.5t18.5 7.5t18.5 -7.5t7.5 -18.5t-7.5 -18.5t-18.5 -7.5zM239 636q-11 0 -18.5 7.5t-7.5 18.5t7.5 18.5t18.5 7.5t18.5 -7.5t7.5 -18.5t-7.5 -18.5t-18.5 -7.5z" />
    <glyph glyph-name="otilde" unicode="&#xf5;" horiz-adv-x="399" 
d="M283 557q27 -24 44 -56t26.5 -68t12.5 -73t3 -71q0 -35 -3 -72t-12 -72.5t-26 -67.5t-45 -56q-24 -20 -55 -29q-33 -9 -65.5 2.5t-56.5 37.5q-40 44 -56 102.5t-19 116.5q-2 46 1.5 91.5t14.5 90.5q8 31 22.5 61t36.5 53q12 13 26 23t31 15q32 11 63 2.5t57 -30.5z
M331 289q0 31 -3 61.5t-8 60.5q-7 34 -19 68t-37 58q-39 39 -93 24q-24 -9 -43 -33q-17 -21 -28 -46t-17 -52t-9 -55t-4 -54q-2 -30 -1 -60.5t6 -60.5q5 -39 15.5 -79t36.5 -71q17 -20 41.5 -31t53.5 -3q22 7 42 25q25 26 37.5 60t18.5 68q5 30 8 60t3 60zM152 664
q-12 -1 -22.5 -7t-18.5 -14l-18 18q11 8 20.5 17t22.5 14q15 6 30.5 5t30.5 -6q13 -5 25.5 -11.5t26.5 -8.5q12 -1 22 4.5t18 13.5l16 -19l-19 -15.5t-21 -12.5q-14 -5 -29 -3t-29 7t-27 12t-28 6z" />
    <glyph glyph-name="ocircumflex" unicode="&#xf4;" horiz-adv-x="399" 
d="M283 557q27 -24 44 -56t26.5 -68t12.5 -73t3 -71q0 -35 -3 -72t-12 -72.5t-26 -67.5t-45 -56q-24 -20 -55 -29q-33 -9 -65.5 2.5t-56.5 37.5q-40 44 -56 102.5t-19 116.5q-2 46 1.5 91.5t14.5 90.5q8 31 22.5 61t36.5 53q12 13 26 23t31 15q32 11 63 2.5t57 -30.5z
M331 289q0 31 -3 61.5t-8 60.5q-7 34 -19 68t-37 58q-39 39 -93 24q-24 -9 -43 -33q-17 -21 -28 -46t-17 -52t-9 -55t-4 -54q-2 -30 -1 -60.5t6 -60.5q5 -39 15.5 -79t36.5 -71q17 -20 41.5 -31t53.5 -3q22 7 42 25q25 26 37.5 60t18.5 68q5 30 8 60t3 60zM108 630l-13 22
l104 67l104 -67l-13 -22l-91 46z" />
    <glyph glyph-name="oacute" unicode="&#xf3;" horiz-adv-x="399" 
d="M283 557q27 -24 44 -56t26.5 -68t12.5 -73t3 -71q0 -35 -3 -72t-12 -72.5t-26 -67.5t-45 -56q-24 -20 -55 -29q-33 -9 -65.5 2.5t-56.5 37.5q-40 44 -56 102.5t-19 116.5q-2 46 1.5 91.5t14.5 90.5q8 31 22.5 61t36.5 53q12 13 26 23t31 15q32 11 63 2.5t57 -30.5z
M331 289q0 31 -3 61.5t-8 60.5q-7 34 -19 68t-37 58q-39 39 -93 24q-24 -9 -43 -33q-17 -21 -28 -46t-17 -52t-9 -55t-4 -54q-2 -30 -1 -60.5t6 -60.5q5 -39 15.5 -79t36.5 -71q17 -20 41.5 -31t53.5 -3q22 7 42 25q25 26 37.5 60t18.5 68q5 30 8 60t3 60zM134 617l-12 23
l137 81l18 -33z" />
    <glyph glyph-name="ograve" unicode="&#xf2;" horiz-adv-x="399" 
d="M283 557q27 -24 44 -56t26.5 -68t12.5 -73t3 -71q0 -35 -3 -72t-12 -72.5t-26 -67.5t-45 -56q-24 -20 -55 -29q-33 -9 -65.5 2.5t-56.5 37.5q-40 44 -56 102.5t-19 116.5q-2 46 1.5 91.5t14.5 90.5q8 31 22.5 61t36.5 53q12 13 26 23t31 15q32 11 63 2.5t57 -30.5z
M331 289q0 31 -3 61.5t-8 60.5q-7 34 -19 68t-37 58q-39 39 -93 24q-24 -9 -43 -33q-17 -21 -28 -46t-17 -52t-9 -55t-4 -54q-2 -30 -1 -60.5t6 -60.5q5 -39 15.5 -79t36.5 -71q17 -20 41.5 -31t53.5 -3q22 7 42 25q25 26 37.5 60t18.5 68q5 30 8 60t3 60zM265 617l-143 71
l18 33l137 -81z" />
    <glyph glyph-name="ntilde" unicode="&#xf1;" horiz-adv-x="391" 
d="M308 0v351q0 38 -3 77t-17 76q-6 16 -15.5 29.5t-23.5 21.5q-27 17 -56 9t-51 -30q-20 -20 -34 -43.5t-25 -48.5v-442h-38v578h13q10 0 17.5 -7t7.5 -18v-60q9 15 19 29.5t23 27.5q12 13 28.5 23t34.5 14.5t37 3t37 -10.5q20 -10 34.5 -26.5t23.5 -36.5q16 -35 20.5 -72
t4.5 -75v-370h-37zM148 664q-12 -1 -22.5 -7t-18.5 -14l-18 18q11 8 20.5 17t22.5 14q15 6 30.5 5t30.5 -6q13 -5 25.5 -11.5t26.5 -8.5q12 -1 22 4.5t18 13.5l16 -19l-19 -15.5t-21 -12.5q-14 -5 -29 -3t-29 7t-27 12t-28 6z" />
    <glyph glyph-name="idieresis" unicode="&#xef;" 
d="M45 0v578h37v-578h-37zM24 636q-11 0 -18.5 7.5t-7.5 18.5t7.5 18.5t18.5 7.5t18.5 -7.5t7.5 -18.5t-7.5 -18.5t-18.5 -7.5zM104 636q-11 0 -18.5 7.5t-7.5 18.5t7.5 18.5t18.5 7.5t18.5 -7.5t7.5 -18.5t-7.5 -18.5t-18.5 -7.5z" />
    <glyph glyph-name="icircumflex" unicode="&#xee;" 
d="M45 0v578h37v-578h-37zM-27 630l-13 22l104 67l104 -67l-13 -22l-91 46z" />
    <glyph glyph-name="iacute" unicode="&#xed;" 
d="M45 0v578h37v-578h-37zM-1 617l-12 23l137 81l18 -33z" />
    <glyph glyph-name="igrave" unicode="&#xec;" 
d="M45 0v578h37v-578h-37zM130 617l-143 71l18 33l137 -81z" />
    <glyph glyph-name="edieresis" unicode="&#xeb;" horiz-adv-x="354" 
d="M289 555q18 -19 30.5 -45t14.5 -52l-239 -356q8 -18 18.5 -33.5t24.5 -26.5q14 -12 30.5 -18t31.5 -6q16 -1 29 4.5t24 13.5q19 14 32 34t24 40l13 -4q-7 -26 -18.5 -49t-30.5 -43q-13 -14 -31 -22t-41 -10q-20 -1 -43.5 7t-43.5 24q-19 16 -32.5 36.5t-23.5 43.5
q-20 48 -25 98t-3 101t11.5 101.5t32.5 97.5q11 23 25.5 42t34.5 33t42.5 19.5t42.5 3.5q23 -2 40.5 -11.5t29.5 -22.5zM297 448q-3 23 -9 45.5t-22 42.5q-7 10 -19 18t-29 10t-35 -3t-34 -16q-30 -22 -51 -66q-20 -43 -26.5 -90.5t-7.5 -95.5q-1 -40 3 -81.5t17 -80.5z
M170 636q-11 0 -18.5 7.5t-7.5 18.5t7.5 18.5t18.5 7.5t18.5 -7.5t7.5 -18.5t-7.5 -18.5t-18.5 -7.5zM250 636q-11 0 -18.5 7.5t-7.5 18.5t7.5 18.5t18.5 7.5t18.5 -7.5t7.5 -18.5t-7.5 -18.5t-18.5 -7.5z" />
    <glyph glyph-name="ecircumflex" unicode="&#xea;" horiz-adv-x="354" 
d="M289 555q18 -19 30.5 -45t14.5 -52l-239 -356q8 -18 18.5 -33.5t24.5 -26.5q14 -12 30.5 -18t31.5 -6q16 -1 29 4.5t24 13.5q19 14 32 34t24 40l13 -4q-7 -26 -18.5 -49t-30.5 -43q-13 -14 -31 -22t-41 -10q-20 -1 -43.5 7t-43.5 24q-19 16 -32.5 36.5t-23.5 43.5
q-20 48 -25 98t-3 101t11.5 101.5t32.5 97.5q11 23 25.5 42t34.5 33t42.5 19.5t42.5 3.5q23 -2 40.5 -11.5t29.5 -22.5zM297 448q-3 23 -9 45.5t-22 42.5q-7 10 -19 18t-29 10t-35 -3t-34 -16q-30 -22 -51 -66q-20 -43 -26.5 -90.5t-7.5 -95.5q-1 -40 3 -81.5t17 -80.5z
M115 630l-13 22l104 67l104 -67l-13 -22l-91 46z" />
    <glyph glyph-name="eacute" unicode="&#xe9;" horiz-adv-x="354" 
d="M289 555q18 -19 30.5 -45t14.5 -52l-239 -356q8 -18 18.5 -33.5t24.5 -26.5q14 -12 30.5 -18t31.5 -6q16 -1 29 4.5t24 13.5q19 14 32 34t24 40l13 -4q-7 -26 -18.5 -49t-30.5 -43q-13 -14 -31 -22t-41 -10q-20 -1 -43.5 7t-43.5 24q-19 16 -32.5 36.5t-23.5 43.5
q-20 48 -25 98t-3 101t11.5 101.5t32.5 97.5q11 23 25.5 42t34.5 33t42.5 19.5t42.5 3.5q23 -2 40.5 -11.5t29.5 -22.5zM297 448q-3 23 -9 45.5t-22 42.5q-7 10 -19 18t-29 10t-35 -3t-34 -16q-30 -22 -51 -66q-20 -43 -26.5 -90.5t-7.5 -95.5q-1 -40 3 -81.5t17 -80.5z
M141 617l-12 23l137 81l18 -33z" />
    <glyph glyph-name="egrave" unicode="&#xe8;" horiz-adv-x="354" 
d="M289 555q18 -19 30.5 -45t14.5 -52l-239 -356q8 -18 18.5 -33.5t24.5 -26.5q14 -12 30.5 -18t31.5 -6q16 -1 29 4.5t24 13.5q19 14 32 34t24 40l13 -4q-7 -26 -18.5 -49t-30.5 -43q-13 -14 -31 -22t-41 -10q-20 -1 -43.5 7t-43.5 24q-19 16 -32.5 36.5t-23.5 43.5
q-20 48 -25 98t-3 101t11.5 101.5t32.5 97.5q11 23 25.5 42t34.5 33t42.5 19.5t42.5 3.5q23 -2 40.5 -11.5t29.5 -22.5zM297 448q-3 23 -9 45.5t-22 42.5q-7 10 -19 18t-29 10t-35 -3t-34 -16q-30 -22 -51 -66q-20 -43 -26.5 -90.5t-7.5 -95.5q-1 -40 3 -81.5t17 -80.5z
M262 617l-143 71l18 33l137 -81z" />
    <glyph glyph-name="ccedilla" unicode="&#xe7;" horiz-adv-x="351" 
d="M296 465q-5 31 -16 51t-24 31q-23 18 -54 17q-20 -1 -37 -9t-30.5 -21.5t-24 -30.5t-17.5 -35q-17 -43 -23.5 -89t-6.5 -92q0 -47 6 -94.5t25 -89.5q8 -20 20 -36.5t27 -27.5q25 -20 55.5 -21t57.5 19q18 14 30.5 33.5t23.5 39.5l13 -4q-8 -33 -26 -65.5t-51 -47.5
q-32 -14 -66 -9l-9 -27q21 1 46 -3t42 -21q15 -15 15.5 -32.5t-11 -31.5t-34.5 -22.5t-54 -5.5q-13 1 -27 3.5l-25 4.5q-14 3 -27 5l9 22q13 -3 26 -5q25 -5 46 -5q23 0 36 5t18 13t2.5 16.5t-9.5 15.5q-8 8 -23 11.5t-29 5.5q-17 1 -36 0l20 57q-10 4 -19 8.5t-17 11.5
q-20 15 -34 35t-24 43q-26 59 -30 122.5t3 126.5q3 28 8.5 58.5t16 59.5t25.5 55t38 46q17 16 38.5 24.5t41.5 8.5t38 -4t35 -16q21 -16 36 -39.5t21 -48.5l-35 -16v0z" />
    <glyph glyph-name="ae" unicode="&#xe6;" horiz-adv-x="604" 
d="M547 555q18 -19 30.5 -45t14.5 -52l-239 -356q8 -18 18.5 -33.5t24.5 -26.5q14 -12 30.5 -18t31.5 -6q16 -1 29 4.5t24 13.5q19 14 32 34t24 40l13 -4q-7 -26 -18.5 -49t-30.5 -43q-13 -14 -31 -22t-41 -10q-20 -1 -43.5 7t-43.5 24q-19 16 -32.5 36.5t-23.5 43.5
q-3 7 -5.5 13.5t-4.5 13.5q-23 -47 -33 -64t-18 -25q-14 -16 -34 -27.5t-43 -14.5q-24 -4 -48.5 0.5t-44.5 18.5q-21 14 -35.5 35t-22.5 45q-14 50 0 98q7 23 19 43.5t26 37.5q23 26 50.5 46t56.5 38l57.5 34t48.5 46q0 19 -0.5 33.5t-6.5 33.5q-10 31 -36 49t-61 18
q-26 0 -49 -11.5t-37 -34.5q-6 -11 -13 -32t-6 -41l-36 10q0 20 7 41.5t21 39.5q19 26 48 39.5t64 13.5q42 0 77 -19.5t53 -60.5q8 -19 11 -43q2 6 5 12l6 12q11 23 25.5 42t34.5 33t42.5 19.5t42.5 3.5q23 -2 40.5 -11.5t29.5 -22.5zM272 105q5 13 8 26t5 27v236
q-20 -19 -43.5 -33l-45.5 -28q-28 -17 -54.5 -37.5t-46.5 -46.5q-11 -16 -19.5 -34t-13.5 -38q-4 -20 -4 -39.5t5 -39.5t14.5 -37t24.5 -29t34 -16.5t38 -1.5q19 2 35 11t29 22q12 13 20 28t14 30zM555 448q-3 23 -9 45.5t-22 42.5q-7 10 -19 18t-29 10t-35 -3t-34 -16
q-30 -22 -51 -66q-20 -43 -26.5 -90.5t-7.5 -95.5q-1 -40 3 -81.5t17 -80.5z" />
    <glyph glyph-name="aring" unicode="&#xe5;" horiz-adv-x="368" 
d="M310 0q-11 0 -18 7t-7 18v51q-6 -12 -13.5 -23.5t-16.5 -21.5q-14 -16 -34 -27.5t-43 -14.5q-24 -4 -48.5 0.5t-44.5 18.5q-21 14 -35.5 35t-22.5 45q-14 50 0 98q7 23 19 43.5t26 37.5q23 26 50.5 46t56.5 38l57.5 34t48.5 46q0 19 -0.5 33.5t-6.5 33.5q-10 31 -36 49
t-61 18q-26 0 -49 -11.5t-37 -34.5q-6 -11 -13 -32t-6 -41l-36 10q0 20 7 41.5t21 39.5q19 26 48 39.5t64 13.5q42 0 77 -19.5t53 -60.5q8 -17 10.5 -36t2.5 -46v-45.5v-74.5v-89.5v-90.5v-77.5v-50.5h-13zM272 105q5 13 8 26t5 27v236q-20 -19 -43.5 -33l-45.5 -28
q-28 -17 -54.5 -37.5t-46.5 -46.5q-11 -16 -19.5 -34t-13.5 -38q-4 -20 -4 -39.5t5 -39.5t14.5 -37t24.5 -29t34 -16.5t38 -1.5q19 2 35 11t29 22q12 13 20 28t14 30zM184 612q-23 0 -39 15.5t-16 38.5t16 39t39 16t39 -16t16 -39t-16 -38.5t-39 -15.5zM184 696
q-12 0 -20.5 -9t-8.5 -21t8.5 -20.5t20.5 -8.5t20.5 8.5t8.5 20.5t-8.5 21t-20.5 9z" />
    <glyph glyph-name="adieresis" unicode="&#xe4;" horiz-adv-x="368" 
d="M310 0q-11 0 -18 7t-7 18v51q-6 -12 -13.5 -23.5t-16.5 -21.5q-14 -16 -34 -27.5t-43 -14.5q-24 -4 -48.5 0.5t-44.5 18.5q-21 14 -35.5 35t-22.5 45q-14 50 0 98q7 23 19 43.5t26 37.5q23 26 50.5 46t56.5 38l57.5 34t48.5 46q0 19 -0.5 33.5t-6.5 33.5q-10 31 -36 49
t-61 18q-26 0 -49 -11.5t-37 -34.5q-6 -11 -13 -32t-6 -41l-36 10q0 20 7 41.5t21 39.5q19 26 48 39.5t64 13.5q42 0 77 -19.5t53 -60.5q8 -17 10.5 -36t2.5 -46v-45.5v-74.5v-89.5v-90.5v-77.5v-50.5h-13zM272 105q5 13 8 26t5 27v236q-20 -19 -43.5 -33l-45.5 -28
q-28 -17 -54.5 -37.5t-46.5 -46.5q-11 -16 -19.5 -34t-13.5 -38q-4 -20 -4 -39.5t5 -39.5t14.5 -37t24.5 -29t34 -16.5t38 -1.5q19 2 35 11t29 22q12 13 20 28t14 30zM144 636q-11 0 -18.5 7.5t-7.5 18.5t7.5 18.5t18.5 7.5t18.5 -7.5t7.5 -18.5t-7.5 -18.5t-18.5 -7.5z
M224 636q-11 0 -18.5 7.5t-7.5 18.5t7.5 18.5t18.5 7.5t18.5 -7.5t7.5 -18.5t-7.5 -18.5t-18.5 -7.5z" />
    <glyph glyph-name="atilde" unicode="&#xe3;" horiz-adv-x="368" 
d="M310 0q-11 0 -18 7t-7 18v51q-6 -12 -13.5 -23.5t-16.5 -21.5q-14 -16 -34 -27.5t-43 -14.5q-24 -4 -48.5 0.5t-44.5 18.5q-21 14 -35.5 35t-22.5 45q-14 50 0 98q7 23 19 43.5t26 37.5q23 26 50.5 46t56.5 38l57.5 34t48.5 46q0 19 -0.5 33.5t-6.5 33.5q-10 31 -36 49
t-61 18q-26 0 -49 -11.5t-37 -34.5q-6 -11 -13 -32t-6 -41l-36 10q0 20 7 41.5t21 39.5q19 26 48 39.5t64 13.5q42 0 77 -19.5t53 -60.5q8 -17 10.5 -36t2.5 -46v-45.5v-74.5v-89.5v-90.5v-77.5v-50.5h-13zM272 105q5 13 8 26t5 27v236q-20 -19 -43.5 -33l-45.5 -28
q-28 -17 -54.5 -37.5t-46.5 -46.5q-11 -16 -19.5 -34t-13.5 -38q-4 -20 -4 -39.5t5 -39.5t14.5 -37t24.5 -29t34 -16.5t38 -1.5q19 2 35 11t29 22q12 13 20 28t14 30zM137 664q-12 -1 -22.5 -7t-18.5 -14l-18 18q11 8 20.5 17t22.5 14q15 6 30.5 5t30.5 -6q13 -5 25.5 -11.5
t26.5 -8.5q12 -1 22 4.5t18 13.5l16 -19l-19 -15.5t-21 -12.5q-14 -5 -29 -3t-29 7t-27 12t-28 6z" />
    <glyph glyph-name="acircumflex" unicode="&#xe2;" horiz-adv-x="368" 
d="M310 0q-11 0 -18 7t-7 18v51q-6 -12 -13.5 -23.5t-16.5 -21.5q-14 -16 -34 -27.5t-43 -14.5q-24 -4 -48.5 0.5t-44.5 18.5q-21 14 -35.5 35t-22.5 45q-14 50 0 98q7 23 19 43.5t26 37.5q23 26 50.5 46t56.5 38l57.5 34t48.5 46q0 19 -0.5 33.5t-6.5 33.5q-10 31 -36 49
t-61 18q-26 0 -49 -11.5t-37 -34.5q-6 -11 -13 -32t-6 -41l-36 10q0 20 7 41.5t21 39.5q19 26 48 39.5t64 13.5q42 0 77 -19.5t53 -60.5q8 -17 10.5 -36t2.5 -46v-45.5v-74.5v-89.5v-90.5v-77.5v-50.5h-13zM272 105q5 13 8 26t5 27v236q-20 -19 -43.5 -33l-45.5 -28
q-28 -17 -54.5 -37.5t-46.5 -46.5q-11 -16 -19.5 -34t-13.5 -38q-4 -20 -4 -39.5t5 -39.5t14.5 -37t24.5 -29t34 -16.5t38 -1.5q19 2 35 11t29 22q12 13 20 28t14 30zM93 630l-13 22l104 67l104 -67l-13 -22l-91 46z" />
    <glyph glyph-name="aacute" unicode="&#xe1;" horiz-adv-x="368" 
d="M310 0q-11 0 -18 7t-7 18v51q-6 -12 -13.5 -23.5t-16.5 -21.5q-14 -16 -34 -27.5t-43 -14.5q-24 -4 -48.5 0.5t-44.5 18.5q-21 14 -35.5 35t-22.5 45q-14 50 0 98q7 23 19 43.5t26 37.5q23 26 50.5 46t56.5 38l57.5 34t48.5 46q0 19 -0.5 33.5t-6.5 33.5q-10 31 -36 49
t-61 18q-26 0 -49 -11.5t-37 -34.5q-6 -11 -13 -32t-6 -41l-36 10q0 20 7 41.5t21 39.5q19 26 48 39.5t64 13.5q42 0 77 -19.5t53 -60.5q8 -17 10.5 -36t2.5 -46v-45.5v-74.5v-89.5v-90.5v-77.5v-50.5h-13zM272 105q5 13 8 26t5 27v236q-20 -19 -43.5 -33l-45.5 -28
q-28 -17 -54.5 -37.5t-46.5 -46.5q-11 -16 -19.5 -34t-13.5 -38q-4 -20 -4 -39.5t5 -39.5t14.5 -37t24.5 -29t34 -16.5t38 -1.5q19 2 35 11t29 22q12 13 20 28t14 30zM118 617l-12 23l137 81l18 -33z" />
    <glyph glyph-name="agrave" unicode="&#xe0;" horiz-adv-x="368" 
d="M310 0q-11 0 -18 7t-7 18v51q-6 -12 -13.5 -23.5t-16.5 -21.5q-14 -16 -34 -27.5t-43 -14.5q-24 -4 -48.5 0.5t-44.5 18.5q-21 14 -35.5 35t-22.5 45q-14 50 0 98q7 23 19 43.5t26 37.5q23 26 50.5 46t56.5 38l57.5 34t48.5 46q0 19 -0.5 33.5t-6.5 33.5q-10 31 -36 49
t-61 18q-26 0 -49 -11.5t-37 -34.5q-6 -11 -13 -32t-6 -41l-36 10q0 20 7 41.5t21 39.5q19 26 48 39.5t64 13.5q42 0 77 -19.5t53 -60.5q8 -17 10.5 -36t2.5 -46v-45.5v-74.5v-89.5v-90.5v-77.5v-50.5h-13zM272 105q5 13 8 26t5 27v236q-20 -19 -43.5 -33l-45.5 -28
q-28 -17 -54.5 -37.5t-46.5 -46.5q-11 -16 -19.5 -34t-13.5 -38q-4 -20 -4 -39.5t5 -39.5t14.5 -37t24.5 -29t34 -16.5t38 -1.5q19 2 35 11t29 22q12 13 20 28t14 30zM249 617l-143 71l18 33l137 -81z" />
    <glyph glyph-name="Aogonek" unicode="&#x104;" horiz-adv-x="440" 
d="M365 -33q-14 -14 -25.5 -29.5t-16.5 -34.5q-4 -19 3 -36q3 -6 10 -9.5t14 -1.5q6 2 11.5 6l10.5 8t9 9l18 -9q-8 -12 -17 -22.5t-23 -15.5q-15 -7 -32.5 -3.5t-28.5 17.5q-14 18 -14 39t11 41q9 16 24.5 31.5l24.5 24.5l32 29l-44 189h-227l-58 -200h-26l193 670h43
l161 -670h-21q-9 -8 -18.5 -18t-13.5 -15zM325 225l-97 403l-116 -403h213z" />
    <glyph glyph-name="Lcaron" unicode="&#x13d;" horiz-adv-x="325" 
d="M46 0v666h38v-641h208v-25h-246zM230 778q17 0 28 -11.5t11 -28.5q0 -32 -12.5 -62.5t-31.5 -57.5q-2 1 -5 4l-6 6l-8 8q9 14 14 30t8 33q-16 1 -27 12t-11 28t11.5 28t28.5 11z" />
    <glyph glyph-name="Sacute" unicode="&#x15a;" horiz-adv-x="346" 
d="M164 651q-20 -2 -40.5 -13.5t-34.5 -31.5t-19 -45.5t-2 -50.5q2 -26 15 -50t33 -44q22 -22 47.5 -41l50 -38.5t46.5 -41t38 -49.5q17 -30 20.5 -62t-1.5 -66q-6 -31 -22 -58t-40 -45q-23 -17 -49.5 -23t-54.5 -4q-12 1 -32.5 7.5t-40.5 23.5t-36.5 47.5t-21.5 79.5l25 6
q2 -24 9.5 -47t20.5 -42.5t32 -32t45 -15.5q21 -2 43.5 3.5t41.5 20.5q19 14 31 37t16 49q4 27 -1 54t-19 50q-21 33 -50 58t-59.5 48t-58 49t-44.5 62q-10 21 -14 44.5t-2 47t10 46t22 40.5q17 24 42 37.5t51 16.5q36 4 64.5 -7.5t49.5 -33.5t34 -51t17 -60l-26 -4
q-4 25 -14.5 49.5t-27 43.5t-40 29t-54.5 7zM107 704l-12 23l137 81l18 -33z" />
    <glyph glyph-name="Scedilla" unicode="&#x15e;" horiz-adv-x="346" 
d="M164 651q-20 -2 -40.5 -13.5t-34.5 -31.5t-19 -45.5t-2 -50.5q2 -26 15 -50t33 -44q22 -22 47.5 -41l50 -38.5t46.5 -41t38 -49.5q17 -30 20.5 -62t-1.5 -66q-6 -31 -22 -58t-40 -45q-21 -15 -46.5 -22t-51.5 -5l-10 -31q21 1 46 -3t42 -21q15 -15 15.5 -32.5t-11 -31.5
t-34.5 -22.5t-54 -5.5q-13 1 -27 3.5l-25 4.5q-14 3 -27 5l9 22q13 -3 26 -5q25 -5 46 -5q23 0 36 5t18 13t2.5 16.5t-9.5 15.5q-8 8 -23 11.5t-29 5.5q-17 1 -36 0l21 58q-15 3 -33 12t-34.5 27t-29 46t-16.5 70l25 6q2 -24 9.5 -47t20.5 -42.5t32 -32t45 -15.5
q21 -2 43.5 3.5t41.5 20.5q19 14 31 37t16 49q4 27 -1 54t-19 50q-21 33 -50 58t-59.5 48t-58 49t-44.5 62q-10 21 -14 44.5t-2 47t10 46t22 40.5q17 24 42 37.5t51 16.5q36 4 64.5 -7.5t49.5 -33.5t34 -51t17 -60l-26 -4q-4 25 -14.5 49.5t-27 43.5t-40 29t-54.5 7z" />
    <glyph glyph-name="Tcaron" unicode="&#x164;" horiz-adv-x="353" 
d="M343 666v-25h-147v-641h-38v641h-148v25h333zM73 773l12 22l92 -46l91 46l12 -22l-103 -68z" />
    <glyph glyph-name="Zacute" unicode="&#x179;" horiz-adv-x="304" 
d="M291 0h-291v20l255 621h-235v25h279v-20l-256 -621h248v-25zM86 704l-12 23l137 81l18 -33z" />
    <glyph glyph-name="uni00AD" unicode="&#xad;" horiz-adv-x="235" 
d="M20 308h195v-25h-195v25z" />
    <glyph glyph-name="Zdotaccent" unicode="&#x17b;" horiz-adv-x="304" 
d="M291 0h-291v20l255 621h-235v25h279v-20l-256 -621h248v-25zM152 723q-11 0 -18.5 7.5t-7.5 18.5t7.5 18.5t18.5 7.5t18.5 -7.5t7.5 -18.5t-7.5 -18.5t-18.5 -7.5z" />
    <glyph glyph-name="aogonek" unicode="&#x105;" horiz-adv-x="368" 
d="M277 -33q-14 -14 -25.5 -29.5t-16.5 -34.5q-4 -19 3 -36q3 -6 10 -9.5t14 -1.5q6 2 11.5 6l10.5 8t9 9l18 -9q-8 -12 -17 -22.5t-23 -15.5q-15 -7 -32.5 -3.5t-28.5 17.5q-14 18 -14 39t11 41q9 16 24.5 31.5l24.5 24.5l32 30q-3 4 -3 13v51q-6 -12 -13.5 -23.5
t-16.5 -21.5q-14 -16 -34 -27.5t-43 -14.5q-24 -4 -48.5 0.5t-44.5 18.5q-21 14 -35.5 35t-22.5 45q-14 50 0 98q7 23 19 43.5t26 37.5q23 26 50.5 46t56.5 38l57.5 34t48.5 46q0 19 -0.5 33.5t-6.5 33.5q-10 31 -36 49t-61 18q-26 0 -49 -11.5t-37 -34.5q-6 -11 -13 -32
t-6 -41l-36 10q0 20 7 41.5t21 39.5q19 26 48 39.5t64 13.5q42 0 77 -19.5t53 -60.5q8 -17 10.5 -36t2.5 -46v-45.5v-74.5v-89.5v-90.5v-77.5v-50.5h-14q-9 -8 -18.5 -18t-13.5 -15zM272 105q5 13 8 26t5 27v236q-20 -19 -43.5 -33l-45.5 -28q-28 -17 -54.5 -37.5
t-46.5 -46.5q-11 -16 -19.5 -34t-13.5 -38q-4 -20 -4 -39.5t5 -39.5t14.5 -37t24.5 -29t34 -16.5t38 -1.5q19 2 35 11t29 22q12 13 20 28t14 30z" />
    <glyph glyph-name="lcaron" unicode="&#x13e;" horiz-adv-x="247" 
d="M45 0v700h38v-700h-38zM188 691q17 0 28 -11.5t11 -28.5q0 -32 -12.5 -62.5t-31.5 -57.5q-2 1 -5 4l-6 6l-8 8q9 14 14 30t8 33q-16 1 -27 12t-11 28t11.5 28t28.5 11z" />
    <glyph glyph-name="sacute" unicode="&#x15b;" horiz-adv-x="309" 
d="M102 364q20 -19 43 -35t45 -33.5t42 -36.5t35 -44q16 -26 20 -55t-2 -59q-6 -29 -21.5 -52.5t-37.5 -37.5q-20 -14 -44.5 -19.5t-49.5 -3.5q-15 1 -34 7.5t-37 22t-32 41.5t-20 66l28 2q3 -18 9.5 -37t18 -35.5t29 -27.5t41.5 -13q19 -2 39 2t37 17q17 12 28.5 31.5
t14.5 42.5t-0.5 46t-17.5 43q-19 29 -46 50.5l-54.5 42t-53 43t-41.5 53.5q-9 18 -13 39.5t-2 43t9.5 41.5t21.5 36q17 21 39.5 32t45.5 13q31 2 54 -8t38.5 -28t23.5 -42.5t9 -51.5l-24 -6q0 21 -6 41.5t-18 36t-30.5 25t-43.5 8.5q-40 -2 -67 -37q-14 -18 -18 -39.5
t-2 -43.5q2 -23 13.5 -43.5t30.5 -37.5zM89 617l-12 23l137 81l18 -33z" />
    <glyph glyph-name="scedilla" unicode="&#x15f;" horiz-adv-x="309" 
d="M102 364q20 -19 43 -35t45 -33.5t42 -36.5t35 -44q16 -26 20 -55t-2 -59q-6 -29 -21.5 -52.5t-37.5 -37.5q-19 -14 -42 -19t-46 -4l-10 -31q21 1 46 -3t42 -21q15 -15 15.5 -32.5t-11 -31.5t-34.5 -22.5t-54 -5.5q-13 1 -27 3.5l-25 4.5q-14 3 -27 5l9 22q13 -3 26 -5
q25 -5 46 -5q23 0 36 5t18 13t2.5 16.5t-9.5 15.5q-8 8 -23 11.5t-29 5.5q-17 1 -36 0l20 58q-15 3 -31.5 11.5t-31 24.5t-25.5 39.5t-16 58.5l28 2q3 -18 9.5 -37t18 -35.5t29 -27.5t41.5 -13q19 -2 39 2t37 17q17 12 28.5 31.5t14.5 42.5t-0.5 46t-17.5 43
q-19 29 -46 50.5l-54.5 42t-53 43t-41.5 53.5q-9 18 -13 39.5t-2 43t9.5 41.5t21.5 36q17 21 39.5 32t45.5 13q31 2 54 -8t38.5 -28t23.5 -42.5t9 -51.5l-24 -6q0 21 -6 41.5t-18 36t-30.5 25t-43.5 8.5q-40 -2 -67 -37q-14 -18 -18 -39.5t-2 -43.5q2 -23 13.5 -43.5
t30.5 -37.5z" />
    <glyph glyph-name="tcaron" unicode="&#x165;" horiz-adv-x="296" 
d="M89 553h83v-25h-83v-356q0 -27 -0.5 -53t10.5 -51q9 -19 23 -28q12 -8 27 -11t28 -3v-26q-18 0 -36 2.5t-35 12.5q-23 11 -37 38q-7 13 -10.5 27.5t-5.5 29.5q-1 8 -1.5 19.5t-0.5 42.5v356h-56v25h56v147h38v-147zM237 691q17 0 28 -11.5t11 -28.5q0 -32 -12.5 -62.5
t-31.5 -57.5q-2 1 -5 4l-6 6l-8 8q9 14 14 30t8 33q-16 1 -27 12t-11 28t11.5 28t28.5 11z" />
    <glyph glyph-name="zacute" unicode="&#x17a;" horiz-adv-x="331" 
d="M299 0h-279v21l242 532h-222v26h266v-21l-242 -532h235v-26zM100 617l-12 23l137 81l18 -33z" />
    <glyph glyph-name="zdotaccent" unicode="&#x17c;" horiz-adv-x="331" 
d="M299 0h-279v21l242 532h-222v26h266v-21l-242 -532h235v-26zM165 636q-11 0 -18.5 7.5t-7.5 18.5t7.5 18.5t18.5 7.5t18.5 -7.5t7.5 -18.5t-7.5 -18.5t-18.5 -7.5z" />
    <glyph glyph-name="uni0162" unicode="&#x162;" horiz-adv-x="353" 
d="M343 666v-25h-147v-641h-38v641h-148v25h333zM176 -64q6 0 12.5 -2.5t12 -8.5t7.5 -17t-1 -28t-13.5 -40t-24.5 -44l-19 12q6 14 10 27q8 25 10 40q-11 2 -18 10.5t-7 19.5q0 13 8.5 22t22.5 9z" />
    <glyph glyph-name="uni0163" unicode="&#x163;" horiz-adv-x="177" 
d="M89 553h83v-25h-83v-356q0 -27 -0.5 -53t10.5 -51q9 -19 23 -28q12 -8 27 -11t28 -3v-26q-18 0 -36 2.5t-35 12.5q-23 11 -37 38q-7 13 -10.5 27.5t-5.5 29.5q-1 8 -1.5 19.5t-0.5 42.5v356h-56v25h56v147h38v-147zM76 -64q6 0 12.5 -2.5t12 -8.5t7.5 -17t-1 -28
t-13.5 -40t-24.5 -44l-19 12q6 14 10 27q8 25 10 40q-11 2 -18 10.5t-7 19.5q0 13 8.5 22t22.5 9z" />
    <glyph glyph-name="Racute" unicode="&#x154;" horiz-adv-x="370" 
d="M229 644q37 -17 65.5 -48.5t42.5 -75.5q14 -48 11.5 -100.5t-19.5 -99.5q-17 -45 -47 -82t-68 -64q31 -16 51.5 -40t20.5 -68q0 -9 -0.5 -19t1.5 -18t8 -12.5t19 -3.5v-26q-7 1 -13.5 1.5t-12.5 2.5q-24 6 -32 31q-8 22 -8 45.5t-9 45.5q-7 17 -19.5 28t-29.5 18l-14 -8
q-23 -12 -46 -20t-47 -15v-116h-38l-1 666q26 -1 49 0t44.5 -0.5t44 -6t47.5 -15.5zM309 406q2 26 0.5 52t-9.5 51q-10 33 -30.5 61t-54.5 45q-31 16 -64.5 21.5t-67.5 5.5v-501q13 1 29.5 7t33.5 14.5t32.5 18.5t26.5 19q48 39 73.5 92.5t30.5 113.5zM119 704l-12 23
l137 81l18 -33z" />
    <glyph glyph-name="racute" unicode="&#x155;" horiz-adv-x="287" 
d="M158 586q17 10 35 11t34.5 -4.5t32 -16t27.5 -22.5l-23 -29q-28 26 -50.5 32t-42.5 0q-21 -7 -36 -25.5t-26 -37.5q-16 -27 -27 -52v-442h-37v578h12q11 0 18 -7t7 -18v-57q15 27 33 51.5t43 38.5zM78 617l-12 23l137 81l18 -33z" />
    <glyph glyph-name="Abreve" unicode="&#x102;" horiz-adv-x="440" 
d="M379 0l-47 200h-227l-58 -200h-26l193 670h43l161 -670h-39zM325 225l-97 403l-116 -403h213zM230 714q-23 0 -47.5 5t-41.5 22q-18 18 -16 45l27 2q4 -19 16.5 -26t32.5 -9q13 -2 30.5 -2.5t33.5 2t28.5 10.5t15.5 25l26 -2q0 -13 -3.5 -24t-12.5 -21q-17 -17 -41.5 -22
t-47.5 -5z" />
    <glyph glyph-name="abreve" unicode="&#x103;" horiz-adv-x="368" 
d="M310 0q-11 0 -18 7t-7 18v51q-6 -12 -13.5 -23.5t-16.5 -21.5q-14 -16 -34 -27.5t-43 -14.5q-24 -4 -48.5 0.5t-44.5 18.5q-21 14 -35.5 35t-22.5 45q-14 50 0 98q7 23 19 43.5t26 37.5q23 26 50.5 46t56.5 38l57.5 34t48.5 46q0 19 -0.5 33.5t-6.5 33.5q-10 31 -36 49
t-61 18q-26 0 -49 -11.5t-37 -34.5q-6 -11 -13 -32t-6 -41l-36 10q0 20 7 41.5t21 39.5q19 26 48 39.5t64 13.5q42 0 77 -19.5t53 -60.5q8 -17 10.5 -36t2.5 -46v-45.5v-74.5v-89.5v-90.5v-77.5v-50.5h-13zM272 105q5 13 8 26t5 27v236q-20 -19 -43.5 -33l-45.5 -28
q-28 -17 -54.5 -37.5t-46.5 -46.5q-11 -16 -19.5 -34t-13.5 -38q-4 -20 -4 -39.5t5 -39.5t14.5 -37t24.5 -29t34 -16.5t38 -1.5q19 2 35 11t29 22q12 13 20 28t14 30zM184 627q-23 0 -47.5 5t-41.5 22q-18 18 -16 45l27 2q4 -19 16.5 -26t32.5 -9q13 -2 30.5 -2.5t33.5 2
t28.5 10.5t15.5 25l26 -2q0 -13 -3.5 -24t-12.5 -21q-17 -17 -41.5 -22t-47.5 -5z" />
    <glyph glyph-name="lacute" unicode="&#x13a;" 
d="M45 0v700h38v-700h-38zM2 710l-12 23l137 81l18 -33z" />
    <glyph glyph-name="Lacute" unicode="&#x139;" horiz-adv-x="325" 
d="M46 0v666h38v-641h208v-25h-246zM97 704l-12 23l137 81l18 -33z" />
    <glyph glyph-name="Cacute" unicode="&#x106;" horiz-adv-x="381" 
d="M318 571l-15.5 33.5t-23.5 30.5q-12 11 -28.5 15.5t-32.5 2.5q-19 -2 -37.5 -11t-33.5 -25q-16 -16 -28 -36.5t-21 -43.5q-19 -51 -25.5 -103t-7.5 -106q-1 -52 6 -105t27 -101q8 -18 19 -36.5t26 -33.5t33.5 -24.5t41.5 -9.5q17 0 32 6t27 15q21 16 35.5 37.5t25.5 44.5
l13 -4q-8 -29 -20.5 -54.5t-33.5 -46.5q-14 -13 -34 -23t-45 -11q-27 -1 -50.5 9.5t-43 28t-35 40.5t-25.5 48q-28 66 -32.5 137.5t3.5 142.5q3 32 9.5 66t17 66.5t26.5 62t40 53.5q18 18 41 29t46 13q21 2 42.5 -3t38.5 -17q24 -17 41 -43.5t24 -55.5l-33 -15zM173 704
l-12 23l137 81l18 -33z" />
    <glyph glyph-name="Ccaron" unicode="&#x10c;" horiz-adv-x="381" 
d="M318 571l-15.5 33.5t-23.5 30.5q-12 11 -28.5 15.5t-32.5 2.5q-19 -2 -37.5 -11t-33.5 -25q-16 -16 -28 -36.5t-21 -43.5q-19 -51 -25.5 -103t-7.5 -106q-1 -52 6 -105t27 -101q8 -18 19 -36.5t26 -33.5t33.5 -24.5t41.5 -9.5q17 0 32 6t27 15q21 16 35.5 37.5t25.5 44.5
l13 -4q-8 -29 -20.5 -54.5t-33.5 -46.5q-14 -13 -34 -23t-45 -11q-27 -1 -50.5 9.5t-43 28t-35 40.5t-25.5 48q-28 66 -32.5 137.5t3.5 142.5q3 32 9.5 66t17 66.5t26.5 62t40 53.5q18 18 41 29t46 13q21 2 42.5 -3t38.5 -17q24 -17 41 -43.5t24 -55.5l-33 -15zM123 773
l12 22l92 -46l91 46l12 -22l-103 -68z" />
    <glyph glyph-name="Eogonek" unicode="&#x118;" horiz-adv-x="325" 
d="M178 -33q-14 -14 -25.5 -29.5t-16.5 -34.5q-4 -19 3 -36q3 -6 10 -9.5t14 -1.5q6 2 11.5 6l10.5 8t9 9l18 -9q-8 -12 -17 -22.5t-23 -15.5q-15 -7 -32.5 -3.5t-28.5 17.5q-14 18 -14 39t11 41q9 16 24.5 31.5l24.5 24.5l19 18h-131v666h222v-25h-184v-174h155v-25h-155
v-417h209v-25h-82q-9 -8 -18.5 -18t-13.5 -15z" />
    <glyph glyph-name="Ecaron" unicode="&#x11a;" horiz-adv-x="325" 
d="M83 25h209v-25h-247v666h222v-25h-184v-174h155v-25h-155v-417zM59 773l12 22l92 -46l91 46l12 -22l-103 -68z" />
    <glyph glyph-name="Dcaron" unicode="&#x10e;" horiz-adv-x="413" 
d="M276 618q40 -29 66 -75q31 -53 39 -113t3 -120q-3 -35 -10 -70.5t-19.5 -68.5t-32.5 -63t-48 -53q-18 -16 -38 -26t-40 -17q-21 -7 -39 -9.5t-35.5 -2.5t-35.5 0.5t-40 -0.5v666q14 0 36.5 1t51.5 -1q38 -2 74.5 -13.5t67.5 -34.5zM347 335q2 49 -5 98t-30 93
q-11 20 -24.5 36.5t-30.5 30.5q-38 29 -82.5 38.5t-91.5 10.5v-618q26 0 52.5 3t51.5 12q37 13 67 40q26 24 43.5 54t28 64t15.5 69t6 69zM83 773l12 22l92 -46l91 46l12 -22l-103 -68z" />
    <glyph glyph-name="Nacute" unicode="&#x143;" horiz-adv-x="430" 
d="M385 666v-674h-43l-272 594v-586h-25v666h30l284 -621v621h26zM149 704l-12 23l137 81l18 -33z" />
    <glyph glyph-name="Dcroat" unicode="&#x110;" horiz-adv-x="413" 
d="M276 618q40 -29 66 -75q31 -53 39 -113t3 -120q-3 -35 -10 -70.5t-19.5 -68.5t-32.5 -63t-48 -53q-18 -16 -38 -26t-40 -17q-21 -7 -39 -9.5t-35.5 -2.5t-35.5 0.5t-40 -0.5v327h-73v25h73v314q14 0 36.5 1t51.5 -1q38 -2 74.5 -13.5t67.5 -34.5zM168 327h-85v-303
q26 0 52.5 3t51.5 12q37 13 67 40q26 24 43.5 54t28 64t15.5 69t6 69q2 49 -5 98t-30 93q-11 20 -24.5 36.5t-30.5 30.5q-38 29 -82.5 38.5t-91.5 10.5v-290h85v-25z" />
    <glyph glyph-name="Ncaron" unicode="&#x147;" horiz-adv-x="430" 
d="M385 666v-674h-43l-272 594v-586h-25v666h30l284 -621v621h26zM111 773l12 22l92 -46l91 46l12 -22l-103 -68z" />
    <glyph glyph-name="Ohungarumlaut" unicode="&#x150;" horiz-adv-x="456" 
d="M324 642q33 -28 53 -64.5t31.5 -77.5t15 -84t3.5 -83q0 -41 -4 -83.5t-15 -83.5t-31 -77.5t-53 -64.5q-27 -24 -63 -33q-38 -9 -74.5 3t-65.5 41q-25 25 -41.5 56t-26.5 64.5t-15 68.5t-7 69q-3 51 0.5 102t17.5 101q10 37 27.5 72t43.5 63q21 22 47 33.5t53.5 13
t54 -7.5t49.5 -28zM306 45q28 27 44.5 61.5t25 73t11 78t2.5 75.5t-2.5 75.5t-11 78t-25 73t-44.5 61.5q-35 33 -78 33q-26 0 -47.5 -11.5t-39.5 -31.5q-21 -23 -34 -51.5t-20.5 -59t-11.5 -61.5t-6 -61q-2 -34 -1.5 -68.5t5.5 -68.5q6 -49 20 -98.5t48 -87.5q21 -24 51 -36
t63 -3q15 4 27.5 11.5t23.5 17.5zM150 704l-12 23l137 101l18 -33zM245 704l-12 23l137 101l18 -33z" />
    <glyph glyph-name="cacute" unicode="&#x107;" horiz-adv-x="351" 
d="M296 465q-5 31 -16 51t-24 31q-23 18 -54 17q-20 -1 -37 -9t-30.5 -21.5t-24 -30.5t-17.5 -35q-17 -43 -23.5 -89t-6.5 -92q0 -47 6 -94.5t25 -89.5q8 -20 20 -36.5t27 -27.5q25 -20 55.5 -21t57.5 19q18 14 30.5 33.5t23.5 39.5l13 -4q-8 -33 -26 -65.5t-51 -47.5
q-32 -14 -65 -9t-61 26q-20 15 -34 35t-24 43q-26 59 -30 122.5t3 126.5q3 28 8.5 58.5t16 59.5t25.5 55t38 46q17 16 38.5 24.5t41.5 8.5t38 -4t35 -16q21 -16 36 -39.5t21 -48.5zM149 617l-12 23l137 81l18 -33z" />
    <glyph glyph-name="Rcaron" unicode="&#x158;" horiz-adv-x="370" 
d="M229 644q37 -17 65.5 -48.5t42.5 -75.5q14 -48 11.5 -100.5t-19.5 -99.5q-17 -45 -47 -82t-68 -64q31 -16 51.5 -40t20.5 -68q0 -9 -0.5 -19t1.5 -18t8 -12.5t19 -3.5v-26q-7 1 -13.5 1.5t-12.5 2.5q-24 6 -32 31q-8 22 -8 45.5t-9 45.5q-7 17 -19.5 28t-29.5 18l-14 -8
q-23 -12 -46 -20t-47 -15v-116h-38l-1 666q26 -1 49 0t44.5 -0.5t44 -6t47.5 -15.5zM309 406q2 26 0.5 52t-9.5 51q-10 33 -30.5 61t-54.5 45q-31 16 -64.5 21.5t-67.5 5.5v-501q13 1 29.5 7t33.5 14.5t32.5 18.5t26.5 19q48 39 73.5 92.5t30.5 113.5zM81 773l12 22l92 -46
l91 46l12 -22l-103 -68z" />
    <glyph glyph-name="Uring" unicode="&#x16e;" horiz-adv-x="406" 
d="M359 666v-411v-31t-1 -33q-2 -32 -8 -66t-23 -66q-17 -33 -48.5 -52.5t-72.5 -19.5q-38 0 -71.5 17t-53.5 54q-18 32 -25 66t-10 67q-1 17 -1 33v31v411h38v-473q2 -31 6.5 -62t18.5 -59q28 -57 98 -60q31 0 57.5 14.5t42.5 44.5q14 28 20.5 59t8.5 63q1 16 1 31.5v30.5
v411h23zM203 699q-23 0 -39 15.5t-16 38.5t16 39t39 16t39 -16t16 -39t-16 -38.5t-39 -15.5zM203 783q-12 0 -20.5 -9t-8.5 -21t8.5 -20.5t20.5 -8.5t20.5 8.5t8.5 20.5t-8.5 21t-20.5 9z" />
    <glyph glyph-name="Uhungarumlaut" unicode="&#x170;" horiz-adv-x="406" 
d="M359 666v-411v-31t-1 -33q-2 -32 -8 -66t-23 -66q-17 -33 -48.5 -52.5t-72.5 -19.5q-38 0 -71.5 17t-53.5 54q-18 32 -25 66t-10 67q-1 17 -1 33v31v411h38v-473q2 -31 6.5 -62t18.5 -59q28 -57 98 -60q31 0 57.5 14.5t42.5 44.5q14 28 20.5 59t8.5 63q1 16 1 31.5v30.5
v411h23zM232 704l-12 23l137 101l18 -33zM137 704l-12 23l137 101l18 -33z" />
    <glyph glyph-name="ccaron" unicode="&#x10d;" horiz-adv-x="351" 
d="M296 465q-5 31 -16 51t-24 31q-23 18 -54 17q-20 -1 -37 -9t-30.5 -21.5t-24 -30.5t-17.5 -35q-17 -43 -23.5 -89t-6.5 -92q0 -47 6 -94.5t25 -89.5q8 -20 20 -36.5t27 -27.5q25 -20 55.5 -21t57.5 19q18 14 30.5 33.5t23.5 39.5l13 -4q-8 -33 -26 -65.5t-51 -47.5
q-32 -14 -65 -9t-61 26q-20 15 -34 35t-24 43q-26 59 -30 122.5t3 126.5q3 28 8.5 58.5t16 59.5t25.5 55t38 46q17 16 38.5 24.5t41.5 8.5t38 -4t35 -16q21 -16 36 -39.5t21 -48.5zM98 686l12 22l92 -46l91 46l12 -22l-103 -68z" />
    <glyph glyph-name="eogonek" unicode="&#x119;" horiz-adv-x="354" 
d="M227 -33q-14 -14 -25.5 -29.5t-16.5 -34.5q-4 -19 3 -36q3 -6 10 -9.5t14 -1.5q6 2 11.5 6l10.5 8t9 9l18 -9q-8 -12 -17 -22.5t-23 -15.5q-15 -7 -32.5 -3.5t-28.5 17.5q-14 18 -14 39t11 41q9 16 24.5 31.5l24.5 24.5v1q-2 0 -2.5 -0.5t-2.5 -0.5q-20 -1 -43.5 7
t-43.5 24q-19 16 -32.5 36.5t-23.5 43.5q-20 48 -25 98t-3 101t11.5 101.5t32.5 97.5q11 23 25.5 42t34.5 33t42.5 19.5t42.5 3.5q23 -2 40.5 -11.5t29.5 -22.5q18 -19 30.5 -45t14.5 -52l-239 -356q8 -18 18.5 -33.5t24.5 -26.5q14 -12 30.5 -18t31.5 -6q16 -1 29 4.5
t24 13.5q19 14 32 34t24 40l13 -4q-7 -26 -18.5 -49t-30.5 -43l-1 -1l-19 -19l-15.5 -15.5t-10.5 -11.5zM297 448q-3 23 -9 45.5t-22 42.5q-7 10 -19 18t-29 10t-35 -3t-34 -16q-30 -22 -51 -66q-20 -43 -26.5 -90.5t-7.5 -95.5q-1 -40 3 -81.5t17 -80.5z" />
    <glyph glyph-name="ecaron" unicode="&#x11b;" horiz-adv-x="354" 
d="M289 555q18 -19 30.5 -45t14.5 -52l-239 -356q8 -18 18.5 -33.5t24.5 -26.5q14 -12 30.5 -18t31.5 -6q16 -1 29 4.5t24 13.5q19 14 32 34t24 40l13 -4q-7 -26 -18.5 -49t-30.5 -43q-13 -14 -31 -22t-41 -10q-20 -1 -43.5 7t-43.5 24q-19 16 -32.5 36.5t-23.5 43.5
q-20 48 -25 98t-3 101t11.5 101.5t32.5 97.5q11 23 25.5 42t34.5 33t42.5 19.5t42.5 3.5q23 -2 40.5 -11.5t29.5 -22.5zM297 448q-3 23 -9 45.5t-22 42.5q-7 10 -19 18t-29 10t-35 -3t-34 -16q-30 -22 -51 -66q-20 -43 -26.5 -90.5t-7.5 -95.5q-1 -40 3 -81.5t17 -80.5z
M103 686l12 22l92 -46l91 46l12 -22l-103 -68z" />
    <glyph glyph-name="dcaron" unicode="&#x10f;" horiz-adv-x="502" 
d="M338 700v-700h-13q-11 0 -18 7t-7 18v54q-14 -26 -33 -47t-45 -35q-20 -11 -45 -10t-48 15q-22 13 -37.5 34t-26.5 45q-21 48 -27.5 101.5t-7.5 105.5q0 52 8 105.5t31 101.5q11 23 26.5 43.5t37.5 34.5q29 20 65.5 17.5t62.5 -25.5q13 -11 22 -24.5t17 -27.5v187h38z
M300 453q-7 19 -15 36.5t-19 34.5q-8 12 -20 22.5t-29 15.5q-37 11 -69 -11q-17 -11 -29 -29.5t-20 -39.5q-18 -47 -23.5 -96t-5.5 -98t4.5 -98.5t21.5 -96.5q8 -21 19.5 -39t27.5 -29q17 -11 35 -12.5t33 6.5q35 17 56 50.5t33 68.5v315zM443 691q17 0 28 -11.5t11 -28.5
q0 -32 -12.5 -62.5t-31.5 -57.5q-2 1 -5 4l-6 6l-8 8q9 14 14 30t8 33q-16 1 -27 12t-11 28t11.5 28t28.5 11z" />
    <glyph glyph-name="dcroat" unicode="&#x111;" horiz-adv-x="383" 
d="M222 657h78v43h38v-43h79v-25h-79v-632h-13q-11 0 -18 7t-7 18v54q-14 -26 -33 -47t-45 -35q-20 -11 -45 -10t-48 15q-22 13 -37.5 34t-26.5 45q-21 48 -27.5 101.5t-7.5 105.5q0 52 8 105.5t31 101.5q11 23 26.5 43.5t37.5 34.5q29 20 65.5 17.5t62.5 -25.5
q13 -11 22 -24.5t17 -27.5v119h-78v25zM300 453q-7 19 -15 36.5t-19 34.5q-8 12 -20 22.5t-29 15.5q-37 11 -69 -11q-17 -11 -29 -29.5t-20 -39.5q-18 -47 -23.5 -96t-5.5 -98t4.5 -98.5t21.5 -96.5q8 -21 19.5 -39t27.5 -29q17 -11 35 -12.5t33 6.5q35 17 56 50.5t33 68.5
v315z" />
    <glyph glyph-name="nacute" unicode="&#x144;" horiz-adv-x="391" 
d="M308 0v351q0 38 -3 77t-17 76q-6 16 -15.5 29.5t-23.5 21.5q-27 17 -56 9t-51 -30q-20 -20 -34 -43.5t-25 -48.5v-442h-38v578h13q10 0 17.5 -7t7.5 -18v-60q9 15 19 29.5t23 27.5q12 13 28.5 23t34.5 14.5t37 3t37 -10.5q20 -10 34.5 -26.5t23.5 -36.5q16 -35 20.5 -72
t4.5 -75v-370h-37zM130 617l-12 23l137 81l18 -33z" />
    <glyph glyph-name="ncaron" unicode="&#x148;" horiz-adv-x="391" 
d="M308 0v351q0 38 -3 77t-17 76q-6 16 -15.5 29.5t-23.5 21.5q-27 17 -56 9t-51 -30q-20 -20 -34 -43.5t-25 -48.5v-442h-38v578h13q10 0 17.5 -7t7.5 -18v-60q9 15 19 29.5t23 27.5q12 13 28.5 23t34.5 14.5t37 3t37 -10.5q20 -10 34.5 -26.5t23.5 -36.5q16 -35 20.5 -72
t4.5 -75v-370h-37zM92 686l12 22l92 -46l91 46l12 -22l-103 -68z" />
    <glyph glyph-name="ohungarumlaut" unicode="&#x151;" horiz-adv-x="399" 
d="M283 557q27 -24 44 -56t26.5 -68t12.5 -73t3 -71q0 -35 -3 -72t-12 -72.5t-26 -67.5t-45 -56q-24 -20 -55 -29q-33 -9 -65.5 2.5t-56.5 37.5q-40 44 -56 102.5t-19 116.5q-2 46 1.5 91.5t14.5 90.5q8 31 22.5 61t36.5 53q12 13 26 23t31 15q32 11 63 2.5t57 -30.5z
M331 289q0 31 -3 61.5t-8 60.5q-7 34 -19 68t-37 58q-39 39 -93 24q-24 -9 -43 -33q-17 -21 -28 -46t-17 -52t-9 -55t-4 -54q-2 -30 -1 -60.5t6 -60.5q5 -39 15.5 -79t36.5 -71q17 -20 41.5 -31t53.5 -3q22 7 42 25q25 26 37.5 60t18.5 68q5 30 8 60t3 60zM108 617l-12 23
l137 101l18 -33zM203 617l-12 23l137 101l18 -33z" />
    <glyph glyph-name="rcaron" unicode="&#x159;" horiz-adv-x="287" 
d="M158 586q17 10 35 11t34.5 -4.5t32 -16t27.5 -22.5l-23 -29q-28 26 -50.5 32t-42.5 0q-21 -7 -36 -25.5t-26 -37.5q-16 -27 -27 -52v-442h-37v578h12q11 0 18 -7t7 -18v-57q15 27 33 51.5t43 38.5zM40 686l12 22l92 -46l91 46l12 -22l-103 -68z" />
    <glyph glyph-name="uring" unicode="&#x16f;" horiz-adv-x="402" 
d="M336 0q-11 0 -18.5 7.5t-7.5 18.5v60q-9 -15 -19 -29.5t-23 -28.5q-11 -11 -25 -21.5t-33 -15.5q-41 -11 -79 8q-20 10 -34 26.5t-24 36.5q-16 35 -21 72t-5 75t0.5 76t0.5 76v217h38v-350q1 -38 3 -77t16 -76q6 -17 15.5 -30.5t23.5 -21.5q29 -16 60 -8q14 4 26 12
t21 18q20 20 34 43.5t25 48.5v441h38v-578h-12zM201 612q-23 0 -39 15.5t-16 38.5t16 39t39 16t39 -16t16 -39t-16 -38.5t-39 -15.5zM201 696q-12 0 -20.5 -9t-8.5 -21t8.5 -20.5t20.5 -8.5t20.5 8.5t8.5 20.5t-8.5 21t-20.5 9z" />
    <glyph glyph-name="uhungarumlaut" unicode="&#x171;" horiz-adv-x="402" 
d="M336 0q-11 0 -18.5 7.5t-7.5 18.5v60q-9 -15 -19 -29.5t-23 -28.5q-11 -11 -25 -21.5t-33 -15.5q-41 -11 -79 8q-20 10 -34 26.5t-24 36.5q-16 35 -21 72t-5 75t0.5 76t0.5 76v217h38v-350q1 -38 3 -77t16 -76q6 -17 15.5 -30.5t23.5 -21.5q29 -16 60 -8q14 4 26 12
t21 18q20 20 34 43.5t25 48.5v441h38v-578h-12zM213 617l-12 23l137 101l18 -33zM118 617l-12 23l137 101l18 -33z" />
    <glyph glyph-name="Hbar" unicode="&#x126;" horiz-adv-x="400" 
d="M355 666v-666h-38v427h-234v-427h-38v666h38v-100h234v100h38zM317 452v89h-234v-89h234z" />
    <glyph glyph-name="Hcircumflex" unicode="&#x124;" horiz-adv-x="400" 
d="M355 666v-666h-38v427h-234v-427h-38v666h38v-214h234v214h38zM109 717l-13 22l104 67l104 -67l-13 -22l-91 46z" />
    <glyph glyph-name="Idotaccent" unicode="&#x130;" 
d="M83 666v-666h-38v666h38zM64 723q-11 0 -18.5 7.5t-7.5 18.5t7.5 18.5t18.5 7.5t18.5 -7.5t7.5 -18.5t-7.5 -18.5t-18.5 -7.5z" />
    <glyph glyph-name="Gbreve" unicode="&#x11e;" horiz-adv-x="406" 
d="M342 570q-6 20 -18.5 38.5t-32.5 30.5q-19 12 -40 14t-41.5 -4t-38.5 -18.5t-31 -30.5q-20 -26 -32.5 -56.5t-20 -63.5t-11.5 -66.5t-5 -64.5q-2 -53 1 -105.5t18 -103.5q8 -29 22.5 -54.5t34.5 -43.5t46 -25t50 -2t41 21t27 36q23 44 22 93.5t-14 95.5h-53v25h98v-212
h-22q-2 -4 -3.5 -7.5t-3.5 -7.5q-13 -24 -35.5 -43t-51.5 -26q-31 -7 -62.5 2t-55.5 29q-26 21 -43.5 49t-28.5 59q-19 54 -24.5 112t-1.5 115q4 69 22 138.5t63 124.5q17 20 39 34t46.5 21t50.5 5t51 -15q20 -10 34 -23t23 -26q9 -14 14.5 -28.5t10.5 -31.5l-35 -13z
M233 714q-23 0 -47.5 5t-41.5 22q-18 18 -16 45l27 2q4 -19 16.5 -26t32.5 -9q13 -2 30.5 -2.5t33.5 2t28.5 10.5t15.5 25l26 -2q0 -13 -3.5 -24t-12.5 -21q-17 -17 -41.5 -22t-47.5 -5z" />
    <glyph glyph-name="Jcircumflex" unicode="&#x134;" 
d="M83 666v-644q0 -21 -3 -42.5t-9.5 -42t-18.5 -38t-30 -29.5q-17 -12 -36 -18l-8 23l12 7.5t13 9.5q13 11 21.5 27t13 33.5t6 35.5t1.5 35v643h38zM-27 717l-13 22l104 67l104 -67l-13 -22l-91 46z" />
    <glyph glyph-name="hbar" unicode="&#x127;" horiz-adv-x="391" 
d="M163 614h-81v-122q10 16 20 30t23 28q11 11 25 21.5t33 15.5q41 11 79 -8q20 -10 34 -26.5t23 -35.5q17 -35 21.5 -72.5t4.5 -75.5v-369h-38v38v58.5v69v71.5t-0.5 65t-0.5 49q0 38 -2 77t-16 75q-6 17 -15.5 30.5t-23.5 21.5q-29 16 -60 8q-14 -3 -26 -11t-22 -19
q-19 -20 -33 -43.5t-26 -48.5v-441h-37v614h-77v25h77v61h37v-61h81v-25z" />
    <glyph glyph-name="hcircumflex" unicode="&#x125;" horiz-adv-x="391" 
d="M307 0v38v58.5v69v71.5t-0.5 65t-0.5 49q0 38 -2 77t-16 75q-6 17 -15.5 30.5t-23.5 21.5q-29 16 -60 8q-14 -3 -26 -11t-22 -19q-19 -20 -33 -43.5t-26 -48.5v-441h-37v700h37v-208q10 16 20 30t23 28q11 11 25 21.5t33 15.5q41 11 79 -8q20 -10 34 -26.5t23 -35.5
q17 -35 21.5 -72.5t4.5 -75.5v-369h-38zM124 630l-13 22l104 67l104 -67l-13 -22l-91 46z" />
    <glyph glyph-name="gbreve" unicode="&#x11f;" horiz-adv-x="382" 
d="M337 578v-112v-119.5v-120v-112.5q-1 -36 -9 -71.5t-30 -65.5q-12 -17 -28 -30t-33 -21q-30 -13 -64.5 -11t-63.5 16q-23 12 -42 32q-5 5 -8.5 10.5l-6.5 10.5q-4 5 -6 11l30 23q16 -27 26.5 -39.5t21.5 -20.5q22 -15 50 -17.5t52 9.5q14 7 25.5 18.5t21.5 25.5
q17 27 21.5 58t4.5 62v23q-10 -20 -22.5 -39t-29.5 -34q-16 -15 -38 -22t-48 -2q-25 4 -46.5 19.5t-35.5 37.5q-29 43 -38 94.5t-11 102.5q-2 52 5 104.5t30 99.5q11 23 27 42.5t37 32.5q29 18 63.5 17.5t62.5 -19.5q14 -11 24.5 -24t19.5 -28v34q0 11 7 18t18 7h13z
M299 463l-16 35.5t-20 32.5q-9 11 -21.5 20t-29.5 12q-17 4 -35 1t-33 -14q-16 -11 -28 -28t-20 -38q-19 -45 -23.5 -93t-3.5 -96q1 -45 7 -93t29 -88q11 -20 26 -32q14 -12 33.5 -16.5t37.5 0.5q16 4 30 17q27 23 42.5 56.5t24.5 68.5v255zM201 627q-23 0 -47.5 5t-41.5 22
q-18 18 -16 45l27 2q4 -19 16.5 -26t32.5 -9q13 -2 30.5 -2.5t33.5 2t28.5 10.5t15.5 25l26 -2q0 -13 -3.5 -24t-12.5 -21q-17 -17 -41.5 -22t-47.5 -5z" />
    <glyph glyph-name="jcircumflex" unicode="&#x135;" horiz-adv-x="129" 
d="M83 578v-541q0 -24 -4.5 -51t-18.5 -50q-6 -10 -13.5 -17t-15.5 -12q-13 -8 -35 -8v25q10 0 21 7t17 19t8.5 26.5t3 30.5t0.5 30v541h37zM-26 630l-13 22l104 67l104 -67l-13 -22l-91 46z" />
    <glyph glyph-name="Cdotaccent" unicode="&#x10a;" horiz-adv-x="381" 
d="M318 571l-15.5 33.5t-23.5 30.5q-12 11 -28.5 15.5t-32.5 2.5q-19 -2 -37.5 -11t-33.5 -25q-16 -16 -28 -36.5t-21 -43.5q-19 -51 -25.5 -103t-7.5 -106q-1 -52 6 -105t27 -101q8 -18 19 -36.5t26 -33.5t33.5 -24.5t41.5 -9.5q17 0 32 6t27 15q21 16 35.5 37.5t25.5 44.5
l13 -4q-8 -29 -20.5 -54.5t-33.5 -46.5q-14 -13 -34 -23t-45 -11q-27 -1 -50.5 9.5t-43 28t-35 40.5t-25.5 48q-28 66 -32.5 137.5t3.5 142.5q3 32 9.5 66t17 66.5t26.5 62t40 53.5q18 18 41 29t46 13q21 2 42.5 -3t38.5 -17q24 -17 41 -43.5t24 -55.5l-33 -15zM234 723
q-11 0 -18.5 7.5t-7.5 18.5t7.5 18.5t18.5 7.5t18.5 -7.5t7.5 -18.5t-7.5 -18.5t-18.5 -7.5z" />
    <glyph glyph-name="Ccircumflex" unicode="&#x108;" horiz-adv-x="381" 
d="M318 571l-15.5 33.5t-23.5 30.5q-12 11 -28.5 15.5t-32.5 2.5q-19 -2 -37.5 -11t-33.5 -25q-16 -16 -28 -36.5t-21 -43.5q-19 -51 -25.5 -103t-7.5 -106q-1 -52 6 -105t27 -101q8 -18 19 -36.5t26 -33.5t33.5 -24.5t41.5 -9.5q17 0 32 6t27 15q21 16 35.5 37.5t25.5 44.5
l13 -4q-8 -29 -20.5 -54.5t-33.5 -46.5q-14 -13 -34 -23t-45 -11q-27 -1 -50.5 9.5t-43 28t-35 40.5t-25.5 48q-28 66 -32.5 137.5t3.5 142.5q3 32 9.5 66t17 66.5t26.5 62t40 53.5q18 18 41 29t46 13q21 2 42.5 -3t38.5 -17q24 -17 41 -43.5t24 -55.5l-33 -15zM132 717
l-13 22l104 67l104 -67l-13 -22l-91 46z" />
    <glyph glyph-name="Gdotaccent" unicode="&#x120;" horiz-adv-x="406" 
d="M342 570q-6 20 -18.5 38.5t-32.5 30.5q-19 12 -40 14t-41.5 -4t-38.5 -18.5t-31 -30.5q-20 -26 -32.5 -56.5t-20 -63.5t-11.5 -66.5t-5 -64.5q-2 -53 1 -105.5t18 -103.5q8 -29 22.5 -54.5t34.5 -43.5t46 -25t50 -2t41 21t27 36q23 44 22 93.5t-14 95.5h-53v25h98v-212
h-22q-2 -4 -3.5 -7.5t-3.5 -7.5q-13 -24 -35.5 -43t-51.5 -26q-31 -7 -62.5 2t-55.5 29q-26 21 -43.5 49t-28.5 59q-19 54 -24.5 112t-1.5 115q4 69 22 138.5t63 124.5q17 20 39 34t46.5 21t50.5 5t51 -15q20 -10 34 -23t23 -26q9 -14 14.5 -28.5t10.5 -31.5l-35 -13z
M243 723q-11 0 -18.5 7.5t-7.5 18.5t7.5 18.5t18.5 7.5t18.5 -7.5t7.5 -18.5t-7.5 -18.5t-18.5 -7.5z" />
    <glyph glyph-name="Gcircumflex" unicode="&#x11c;" horiz-adv-x="406" 
d="M342 570q-6 20 -18.5 38.5t-32.5 30.5q-19 12 -40 14t-41.5 -4t-38.5 -18.5t-31 -30.5q-20 -26 -32.5 -56.5t-20 -63.5t-11.5 -66.5t-5 -64.5q-2 -53 1 -105.5t18 -103.5q8 -29 22.5 -54.5t34.5 -43.5t46 -25t50 -2t41 21t27 36q23 44 22 93.5t-14 95.5h-53v25h98v-212
h-22q-2 -4 -3.5 -7.5t-3.5 -7.5q-13 -24 -35.5 -43t-51.5 -26q-31 -7 -62.5 2t-55.5 29q-26 21 -43.5 49t-28.5 59q-19 54 -24.5 112t-1.5 115q4 69 22 138.5t63 124.5q17 20 39 34t46.5 21t50.5 5t51 -15q20 -10 34 -23t23 -26q9 -14 14.5 -28.5t10.5 -31.5l-35 -13z
M152 717l-13 22l104 67l104 -67l-13 -22l-91 46z" />
    <glyph glyph-name="Ubreve" unicode="&#x16c;" horiz-adv-x="406" 
d="M359 666v-411v-31t-1 -33q-2 -32 -8 -66t-23 -66q-17 -33 -48.5 -52.5t-72.5 -19.5q-38 0 -71.5 17t-53.5 54q-18 32 -25 66t-10 67q-1 17 -1 33v31v411h38v-473q2 -31 6.5 -62t18.5 -59q28 -57 98 -60q31 0 57.5 14.5t42.5 44.5q14 28 20.5 59t8.5 63q1 16 1 31.5v30.5
v411h23zM203 714q-23 0 -47.5 5t-41.5 22q-18 18 -16 45l27 2q4 -19 16.5 -26t32.5 -9q13 -2 30.5 -2.5t33.5 2t28.5 10.5t15.5 25l26 -2q0 -13 -3.5 -24t-12.5 -21q-17 -17 -41.5 -22t-47.5 -5z" />
    <glyph glyph-name="Scircumflex" unicode="&#x15c;" horiz-adv-x="346" 
d="M164 651q-20 -2 -40.5 -13.5t-34.5 -31.5t-19 -45.5t-2 -50.5q2 -26 15 -50t33 -44q22 -22 47.5 -41l50 -38.5t46.5 -41t38 -49.5q17 -30 20.5 -62t-1.5 -66q-6 -31 -22 -58t-40 -45q-23 -17 -49.5 -23t-54.5 -4q-12 1 -32.5 7.5t-40.5 23.5t-36.5 47.5t-21.5 79.5l25 6
q2 -24 9.5 -47t20.5 -42.5t32 -32t45 -15.5q21 -2 43.5 3.5t41.5 20.5q19 14 31 37t16 49q4 27 -1 54t-19 50q-21 33 -50 58t-59.5 48t-58 49t-44.5 62q-10 21 -14 44.5t-2 47t10 46t22 40.5q17 24 42 37.5t51 16.5q36 4 64.5 -7.5t49.5 -33.5t34 -51t17 -60l-26 -4
q-4 25 -14.5 49.5t-27 43.5t-40 29t-54.5 7zM82 717l-13 22l104 67l104 -67l-13 -22l-91 46z" />
    <glyph glyph-name="cdotaccent" unicode="&#x10b;" horiz-adv-x="351" 
d="M296 465q-5 31 -16 51t-24 31q-23 18 -54 17q-20 -1 -37 -9t-30.5 -21.5t-24 -30.5t-17.5 -35q-17 -43 -23.5 -89t-6.5 -92q0 -47 6 -94.5t25 -89.5q8 -20 20 -36.5t27 -27.5q25 -20 55.5 -21t57.5 19q18 14 30.5 33.5t23.5 39.5l13 -4q-8 -33 -26 -65.5t-51 -47.5
q-32 -14 -65 -9t-61 26q-20 15 -34 35t-24 43q-26 59 -30 122.5t3 126.5q3 28 8.5 58.5t16 59.5t25.5 55t38 46q17 16 38.5 24.5t41.5 8.5t38 -4t35 -16q21 -16 36 -39.5t21 -48.5zM205 636q-11 0 -18.5 7.5t-7.5 18.5t7.5 18.5t18.5 7.5t18.5 -7.5t7.5 -18.5t-7.5 -18.5
t-18.5 -7.5z" />
    <glyph glyph-name="ccircumflex" unicode="&#x109;" horiz-adv-x="351" 
d="M296 465q-5 31 -16 51t-24 31q-23 18 -54 17q-20 -1 -37 -9t-30.5 -21.5t-24 -30.5t-17.5 -35q-17 -43 -23.5 -89t-6.5 -92q0 -47 6 -94.5t25 -89.5q8 -20 20 -36.5t27 -27.5q25 -20 55.5 -21t57.5 19q18 14 30.5 33.5t23.5 39.5l13 -4q-8 -33 -26 -65.5t-51 -47.5
q-32 -14 -65 -9t-61 26q-20 15 -34 35t-24 43q-26 59 -30 122.5t3 126.5q3 28 8.5 58.5t16 59.5t25.5 55t38 46q17 16 38.5 24.5t41.5 8.5t38 -4t35 -16q21 -16 36 -39.5t21 -48.5zM114 630l-13 22l104 67l104 -67l-13 -22l-91 46z" />
    <glyph glyph-name="gdotaccent" unicode="&#x121;" horiz-adv-x="382" 
d="M337 578v-112v-119.5v-120v-112.5q-1 -36 -9 -71.5t-30 -65.5q-12 -17 -28 -30t-33 -21q-30 -13 -64.5 -11t-63.5 16q-23 12 -42 32q-5 5 -8.5 10.5l-6.5 10.5q-4 5 -6 11l30 23q16 -27 26.5 -39.5t21.5 -20.5q22 -15 50 -17.5t52 9.5q14 7 25.5 18.5t21.5 25.5
q17 27 21.5 58t4.5 62v23q-10 -20 -22.5 -39t-29.5 -34q-16 -15 -38 -22t-48 -2q-25 4 -46.5 19.5t-35.5 37.5q-29 43 -38 94.5t-11 102.5q-2 52 5 104.5t30 99.5q11 23 27 42.5t37 32.5q29 18 63.5 17.5t62.5 -19.5q14 -11 24.5 -24t19.5 -28v34q0 11 7 18t18 7h13z
M299 463l-16 35.5t-20 32.5q-9 11 -21.5 20t-29.5 12q-17 4 -35 1t-33 -14q-16 -11 -28 -28t-20 -38q-19 -45 -23.5 -93t-3.5 -96q1 -45 7 -93t29 -88q11 -20 26 -32q14 -12 33.5 -16.5t37.5 0.5q16 4 30 17q27 23 42.5 56.5t24.5 68.5v255zM191 636q-11 0 -18.5 7.5
t-7.5 18.5t7.5 18.5t18.5 7.5t18.5 -7.5t7.5 -18.5t-7.5 -18.5t-18.5 -7.5z" />
    <glyph glyph-name="gcircumflex" unicode="&#x11d;" horiz-adv-x="382" 
d="M337 578v-112v-119.5v-120v-112.5q-1 -36 -9 -71.5t-30 -65.5q-12 -17 -28 -30t-33 -21q-30 -13 -64.5 -11t-63.5 16q-23 12 -42 32q-5 5 -8.5 10.5l-6.5 10.5q-4 5 -6 11l30 23q16 -27 26.5 -39.5t21.5 -20.5q22 -15 50 -17.5t52 9.5q14 7 25.5 18.5t21.5 25.5
q17 27 21.5 58t4.5 62v23q-10 -20 -22.5 -39t-29.5 -34q-16 -15 -38 -22t-48 -2q-25 4 -46.5 19.5t-35.5 37.5q-29 43 -38 94.5t-11 102.5q-2 52 5 104.5t30 99.5q11 23 27 42.5t37 32.5q29 18 63.5 17.5t62.5 -19.5q14 -11 24.5 -24t19.5 -28v34q0 11 7 18t18 7h13z
M299 463l-16 35.5t-20 32.5q-9 11 -21.5 20t-29.5 12q-17 4 -35 1t-33 -14q-16 -11 -28 -28t-20 -38q-19 -45 -23.5 -93t-3.5 -96q1 -45 7 -93t29 -88q11 -20 26 -32q14 -12 33.5 -16.5t37.5 0.5q16 4 30 17q27 23 42.5 56.5t24.5 68.5v255zM100 630l-13 22l104 67l104 -67
l-13 -22l-91 46z" />
    <glyph glyph-name="ubreve" unicode="&#x16d;" horiz-adv-x="402" 
d="M336 0q-11 0 -18.5 7.5t-7.5 18.5v60q-9 -15 -19 -29.5t-23 -28.5q-11 -11 -25 -21.5t-33 -15.5q-41 -11 -79 8q-20 10 -34 26.5t-24 36.5q-16 35 -21 72t-5 75t0.5 76t0.5 76v217h38v-350q1 -38 3 -77t16 -76q6 -17 15.5 -30.5t23.5 -21.5q29 -16 60 -8q14 4 26 12
t21 18q20 20 34 43.5t25 48.5v441h38v-578h-12zM201 627q-23 0 -47.5 5t-41.5 22q-18 18 -16 45l27 2q4 -19 16.5 -26t32.5 -9q13 -2 30.5 -2.5t33.5 2t28.5 10.5t15.5 25l26 -2q0 -13 -3.5 -24t-12.5 -21q-17 -17 -41.5 -22t-47.5 -5z" />
    <glyph glyph-name="scircumflex" unicode="&#x15d;" horiz-adv-x="309" 
d="M102 364q20 -19 43 -35t45 -33.5t42 -36.5t35 -44q16 -26 20 -55t-2 -59q-6 -29 -21.5 -52.5t-37.5 -37.5q-20 -14 -44.5 -19.5t-49.5 -3.5q-15 1 -34 7.5t-37 22t-32 41.5t-20 66l28 2q3 -18 9.5 -37t18 -35.5t29 -27.5t41.5 -13q19 -2 39 2t37 17q17 12 28.5 31.5
t14.5 42.5t-0.5 46t-17.5 43q-19 29 -46 50.5l-54.5 42t-53 43t-41.5 53.5q-9 18 -13 39.5t-2 43t9.5 41.5t21.5 36q17 21 39.5 32t45.5 13q31 2 54 -8t38.5 -28t23.5 -42.5t9 -51.5l-24 -6q0 21 -6 41.5t-18 36t-30.5 25t-43.5 8.5q-40 -2 -67 -37q-14 -18 -18 -39.5
t-2 -43.5q2 -23 13.5 -43.5t30.5 -37.5zM63 630l-13 22l104 67l104 -67l-13 -22l-91 46z" />
    <glyph glyph-name="uni0156" unicode="&#x156;" horiz-adv-x="370" 
d="M229 644q37 -17 65.5 -48.5t42.5 -75.5q14 -48 11.5 -100.5t-19.5 -99.5q-17 -45 -47 -82t-68 -64q31 -16 51.5 -40t20.5 -68q0 -9 -0.5 -19t1.5 -18t8 -12.5t19 -3.5v-26q-7 1 -13.5 1.5t-12.5 2.5q-24 6 -32 31q-8 22 -8 45.5t-9 45.5q-7 17 -19.5 28t-29.5 18l-14 -8
q-23 -12 -46 -20t-47 -15v-116h-38l-1 666q26 -1 49 0t44.5 -0.5t44 -6t47.5 -15.5zM309 406q2 26 0.5 52t-9.5 51q-10 33 -30.5 61t-54.5 45q-31 16 -64.5 21.5t-67.5 5.5v-501q13 1 29.5 7t33.5 14.5t32.5 18.5t26.5 19q48 39 73.5 92.5t30.5 113.5zM161 -91
q6 0 12.5 -2.5t12 -8.5t7.5 -17t-1 -28t-13.5 -40t-24.5 -44l-19 12q6 14 10 27q8 25 10 40q-11 2 -18 10.5t-7 19.5q0 13 8.5 22t22.5 9z" />
    <glyph glyph-name="uni0157" unicode="&#x157;" horiz-adv-x="287" 
d="M158 586q17 10 35 11t34.5 -4.5t32 -16t27.5 -22.5l-23 -29q-28 26 -50.5 32t-42.5 0q-21 -7 -36 -25.5t-26 -37.5q-16 -27 -27 -52v-442h-37v578h12q11 0 18 -7t7 -18v-57q15 27 33 51.5t43 38.5zM61 -91q6 0 12.5 -2.5t12 -8.5t7.5 -17t-1 -28t-13.5 -40t-24.5 -44
l-19 12q6 14 10 27q8 25 10 40q-11 2 -18 10.5t-7 19.5q0 13 8.5 22t22.5 9z" />
    <glyph glyph-name="uni013B" unicode="&#x13b;" horiz-adv-x="325" 
d="M46 0v666h38v-641h208v-25h-246zM161 -91q6 0 12.5 -2.5t12 -8.5t7.5 -17t-1 -28t-13.5 -40t-24.5 -44l-19 12q6 14 10 27q8 25 10 40q-11 2 -18 10.5t-7 19.5q0 13 8.5 22t22.5 9z" />
    <glyph glyph-name="uni013C" unicode="&#x13c;" 
d="M45 0v700h38v-700h-38zM61 -91q6 0 12.5 -2.5t12 -8.5t7.5 -17t-1 -28t-13.5 -40t-24.5 -44l-19 12q6 14 10 27q8 25 10 40q-11 2 -18 10.5t-7 19.5q0 13 8.5 22t22.5 9z" />
    <glyph glyph-name="uni0122" unicode="&#x122;" horiz-adv-x="406" 
d="M342 570q-6 20 -18.5 38.5t-32.5 30.5q-19 12 -40 14t-41.5 -4t-38.5 -18.5t-31 -30.5q-20 -26 -32.5 -56.5t-20 -63.5t-11.5 -66.5t-5 -64.5q-2 -53 1 -105.5t18 -103.5q8 -29 22.5 -54.5t34.5 -43.5t46 -25t50 -2t41 21t27 36q23 44 22 93.5t-14 95.5h-53v25h98v-212
h-22q-2 -4 -3.5 -7.5t-3.5 -7.5q-13 -24 -35.5 -43t-51.5 -26q-31 -7 -62.5 2t-55.5 29q-26 21 -43.5 49t-28.5 59q-19 54 -24.5 112t-1.5 115q4 69 22 138.5t63 124.5q17 20 39 34t46.5 21t50.5 5t51 -15q20 -10 34 -23t23 -26q9 -14 14.5 -28.5t10.5 -31.5l-35 -13z
M210 -91q6 0 12.5 -2.5t12 -8.5t7.5 -17t-1 -28t-13.5 -40t-24.5 -44l-19 12q6 14 10 27q8 25 10 40q-11 2 -18 10.5t-7 19.5q0 13 8.5 22t22.5 9z" />
    <glyph glyph-name="uni0123" unicode="&#x123;" horiz-adv-x="382" 
d="M337 578v-112v-119.5v-120v-112.5q-1 -36 -9 -71.5t-30 -65.5q-12 -17 -28 -30t-33 -21q-30 -13 -64.5 -11t-63.5 16q-23 12 -42 32q-5 5 -8.5 10.5l-6.5 10.5q-4 5 -6 11l30 23q16 -27 26.5 -39.5t21.5 -20.5q22 -15 50 -17.5t52 9.5q14 7 25.5 18.5t21.5 25.5
q17 27 21.5 58t4.5 62v23q-10 -20 -22.5 -39t-29.5 -34q-16 -15 -38 -22t-48 -2q-25 4 -46.5 19.5t-35.5 37.5q-29 43 -38 94.5t-11 102.5q-2 52 5 104.5t30 99.5q11 23 27 42.5t37 32.5q29 18 63.5 17.5t62.5 -19.5q14 -11 24.5 -24t19.5 -28v34q0 11 7 18t18 7h13z
M299 463l-16 35.5t-20 32.5q-9 11 -21.5 20t-29.5 12q-17 4 -35 1t-33 -14q-16 -11 -28 -28t-20 -38q-19 -45 -23.5 -93t-3.5 -96q1 -45 7 -93t29 -88q11 -20 26 -32q14 -12 33.5 -16.5t37.5 0.5q16 4 30 17q27 23 42.5 56.5t24.5 68.5v255zM209 645q-6 0 -12.5 2.5t-12 8.5
t-7.5 17t1 28t13.5 40t24.5 44l19 -12q-6 -14 -10 -27q-4 -11 -7 -22.5t-3 -17.5q11 -2 18 -10.5t7 -19.5q0 -13 -8.5 -22t-22.5 -9z" />
    <glyph glyph-name="uni0145" unicode="&#x145;" horiz-adv-x="430" 
d="M385 666v-674h-43l-272 594v-586h-25v666h30l284 -621v621h26zM201 -91q6 0 12.5 -2.5t12 -8.5t7.5 -17t-1 -28t-13.5 -40t-24.5 -44l-19 12q6 14 10 27q8 25 10 40q-11 2 -18 10.5t-7 19.5q0 13 8.5 22t22.5 9z" />
    <glyph glyph-name="uni0146" unicode="&#x146;" horiz-adv-x="391" 
d="M308 0v351q0 38 -3 77t-17 76q-6 16 -15.5 29.5t-23.5 21.5q-27 17 -56 9t-51 -30q-20 -20 -34 -43.5t-25 -48.5v-442h-38v578h13q10 0 17.5 -7t7.5 -18v-60q9 15 19 29.5t23 27.5q12 13 28.5 23t34.5 14.5t37 3t37 -10.5q20 -10 34.5 -26.5t23.5 -36.5q16 -35 20.5 -72
t4.5 -75v-370h-37zM181 -91q6 0 12.5 -2.5t12 -8.5t7.5 -17t-1 -28t-13.5 -40t-24.5 -44l-19 12q6 14 10 27q8 25 10 40q-11 2 -18 10.5t-7 19.5q0 13 8.5 22t22.5 9z" />
    <glyph glyph-name="uni0136" unicode="&#x136;" horiz-adv-x="363" 
d="M354 666l-154 -349q25 -15 39 -37.5t22 -49t11.5 -55.5t6.5 -57l4 -43.5t13 -40.5q12 -21 39 -22v-25q-20 2 -35.5 8t-27.5 23q-12 16 -19 36t-10 41t-4.5 42.5t-3.5 41.5q-2 15 -4 32t-6.5 32.5t-12.5 28.5t-22 22l-107 -243v-51h-38v666h38v-552l243 552h28zM161 -91
q6 0 12.5 -2.5t12 -8.5t7.5 -17t-1 -28t-13.5 -40t-24.5 -44l-19 12q6 14 10 27q8 25 10 40q-11 2 -18 10.5t-7 19.5q0 13 8.5 22t22.5 9z" />
    <glyph glyph-name="uni0137" unicode="&#x137;" horiz-adv-x="335" 
d="M318 578l-138 -294q11 -5 21 -11.5t19 -15.5q13 -15 20.5 -34t12.5 -38q5 -20 8 -41l6 -42l4 -30t7 -27.5t15.5 -21.5t29.5 -10v-26q-10 2 -19 3t-18 5q-21 9 -33 27.5t-18 41.5t-8 47.5t-4 44.5q-2 16 -4.5 32t-8 30t-15.5 25.5t-25 17.5l-87 -185v-76h-38v700h38v-565
l101 216l37.5 80.5l33.5 71l24.5 52t10.5 23.5h28zM161 -91q6 0 12.5 -2.5t12 -8.5t7.5 -17t-1 -28t-13.5 -40t-24.5 -44l-19 12q6 14 10 27q8 25 10 40q-11 2 -18 10.5t-7 19.5q0 13 8.5 22t22.5 9z" />
    <glyph glyph-name="Amacron" unicode="&#x100;" horiz-adv-x="440" 
d="M379 0l-47 200h-227l-58 -200h-26l193 670h43l161 -670h-39zM325 225l-97 403l-116 -403h213zM327 741h-195v25h195v-25z" />
    <glyph glyph-name="kgreenlandic" unicode="&#x138;" horiz-adv-x="335" 
d="M318 578l-138 -294q11 -5 21 -11.5t19 -15.5q13 -15 20.5 -34t12.5 -38q5 -20 8 -41l6 -42l4 -30t7 -27.5t15.5 -21.5t29.5 -10v-26q-10 2 -19 3t-18 5q-21 9 -33 27.5t-18 41.5t-8 47.5t-4 44.5q-2 16 -4.5 32t-8 30t-15.5 25.5t-25 17.5l-87 -185v-76h-38v580h38v-445
l101 216l37.5 80.5l33.5 71l24.5 52t10.5 23.5h28z" />
    <glyph glyph-name="Itilde" unicode="&#x128;" 
d="M83 666v-666h-38v666h38zM17 751q-12 -1 -22.5 -7t-18.5 -14l-18 18q11 8 20.5 17t22.5 14q15 6 30.5 5t30.5 -6q13 -5 25.5 -11.5t26.5 -8.5q12 -1 22 4.5t18 13.5l16 -19l-19 -15.5t-21 -12.5q-14 -5 -29 -3t-29 7t-27 12t-28 6z" />
    <glyph glyph-name="Emacron" unicode="&#x112;" horiz-adv-x="325" 
d="M83 25h209v-25h-247v666h222v-25h-184v-174h155v-25h-155v-417zM260 741h-195v25h195v-25z" />
    <glyph glyph-name="Tbar" unicode="&#x166;" horiz-adv-x="353" 
d="M274 464h-78v-464h-38v464h-79v25h79v152h-148v25h333v-25h-147v-152h78v-25z" />
    <glyph glyph-name="itilde" unicode="&#x129;" 
d="M45 0v578h37v-578h-37zM17 664q-12 -1 -22.5 -7t-18.5 -14l-18 18q11 8 20.5 17t22.5 14q15 6 30.5 5t30.5 -6q13 -5 25.5 -11.5t26.5 -8.5q12 -1 22 4.5t18 13.5l16 -19l-19 -15.5t-21 -12.5q-14 -5 -29 -3t-29 7t-27 12t-28 6z" />
    <glyph glyph-name="emacron" unicode="&#x113;" horiz-adv-x="354" 
d="M289 555q18 -19 30.5 -45t14.5 -52l-239 -356q8 -18 18.5 -33.5t24.5 -26.5q14 -12 30.5 -18t31.5 -6q16 -1 29 4.5t24 13.5q19 14 32 34t24 40l13 -4q-7 -26 -18.5 -49t-30.5 -43q-13 -14 -31 -22t-41 -10q-20 -1 -43.5 7t-43.5 24q-19 16 -32.5 36.5t-23.5 43.5
q-20 48 -25 98t-3 101t11.5 101.5t32.5 97.5q11 23 25.5 42t34.5 33t42.5 19.5t42.5 3.5q23 -2 40.5 -11.5t29.5 -22.5zM297 448q-3 23 -9 45.5t-22 42.5q-7 10 -19 18t-29 10t-35 -3t-34 -16q-30 -22 -51 -66q-20 -43 -26.5 -90.5t-7.5 -95.5q-1 -40 3 -81.5t17 -80.5z
M304 654h-195v25h195v-25z" />
    <glyph glyph-name="tbar" unicode="&#x167;" horiz-adv-x="177" 
d="M171 451h-82v-279q0 -27 -0.5 -53t10.5 -51q9 -19 23 -28q12 -8 27 -11t28 -3v-26q-18 0 -36 2.5t-35 12.5q-23 11 -37 38q-7 13 -10.5 27.5t-5.5 29.5q-1 8 -1.5 19.5t-0.5 42.5v279h-56v27h56v50h-56v25h56v147h38v-147h83v-25h-83v-50h82v-27z" />
    <glyph glyph-name="Eng" unicode="&#x14a;" horiz-adv-x="430" 
d="M385 666v-644q0 -21 -3 -42.5t-9.5 -42t-18.5 -38t-30 -29.5q-17 -12 -36 -18l-8 23l12 7.5t13 9.5q20 17 29 42.5t11 51.5l-275 600v-586h-25v666h30l284 -621v621h26z" />
    <glyph glyph-name="eng" unicode="&#x14b;" horiz-adv-x="391" 
d="M345 22q0 -21 -3 -42.5t-9.5 -42t-18.5 -38t-30 -29.5q-17 -12 -36 -18l-8 23l12 7.5t13 9.5q13 11 21.5 26.5t13 33t6.5 35.5t2 35v329q0 38 -3 77t-17 76q-6 16 -15.5 29.5t-23.5 21.5q-27 17 -56 9t-51 -30q-20 -20 -34 -43.5t-25 -48.5v-442h-38v578h13q10 0 17.5 -7
t7.5 -18v-60q9 15 19 29.5t23 27.5q12 13 28.5 23t34.5 14.5t37 3t37 -10.5q20 -10 34.5 -26.5t23.5 -36.5q16 -35 20.5 -72t4.5 -75v-348v0z" />
    <glyph glyph-name="Iogonek" unicode="&#x12e;" 
d="M38 -33q-14 -14 -25.5 -29.5t-16.5 -34.5q-4 -19 3 -36q3 -6 10 -9.5t14 -1.5q6 2 11.5 6l10.5 8t9 9l18 -9q-8 -12 -17 -22.5t-23 -15.5q-15 -7 -32.5 -3.5t-28.5 17.5q-14 18 -14 39t11 41q9 16 24.5 31.5l24.5 24.5l28 26v658h38v-666h-13q-9 -8 -18.5 -18t-13.5 -15z
" />
    <glyph glyph-name="Edotaccent" unicode="&#x116;" horiz-adv-x="325" 
d="M83 25h209v-25h-247v666h222v-25h-184v-174h155v-25h-155v-417zM162 723q-11 0 -18.5 7.5t-7.5 18.5t7.5 18.5t18.5 7.5t18.5 -7.5t7.5 -18.5t-7.5 -18.5t-18.5 -7.5z" />
    <glyph glyph-name="Imacron" unicode="&#x12a;" 
d="M83 666v-666h-38v666h38zM162 741h-195v25h195v-25z" />
    <glyph glyph-name="Omacron" unicode="&#x14c;" horiz-adv-x="456" 
d="M324 642q33 -28 53 -64.5t31.5 -77.5t15 -84t3.5 -83q0 -41 -4 -83.5t-15 -83.5t-31 -77.5t-53 -64.5q-27 -24 -63 -33q-38 -9 -74.5 3t-65.5 41q-25 25 -41.5 56t-26.5 64.5t-15 68.5t-7 69q-3 51 0.5 102t17.5 101q10 37 27.5 72t43.5 63q21 22 47 33.5t53.5 13
t54 -7.5t49.5 -28zM306 45q28 27 44.5 61.5t25 73t11 78t2.5 75.5t-2.5 75.5t-11 78t-25 73t-44.5 61.5q-35 33 -78 33q-26 0 -47.5 -11.5t-39.5 -31.5q-21 -23 -34 -51.5t-20.5 -59t-11.5 -61.5t-6 -61q-2 -34 -1.5 -68.5t5.5 -68.5q6 -49 20 -98.5t48 -87.5q21 -24 51 -36
t63 -3q15 4 27.5 11.5t23.5 17.5zM325 741h-195v25h195v-25z" />
    <glyph glyph-name="Uogonek" unicode="&#x172;" horiz-adv-x="406" 
d="M241 -33q-14 -14 -25.5 -29.5t-16.5 -34.5q-4 -19 3 -36q3 -6 10 -9.5t14 -1.5q6 2 11.5 6l10.5 8t9 9l18 -9q-8 -12 -17 -22.5t-23 -15.5q-15 -7 -32.5 -3.5t-28.5 17.5q-14 18 -14 39t11 41q9 16 24.5 31.5l24.5 24.5l7 7q-5 -1 -10.5 -1.5t-10.5 -0.5q-38 0 -71.5 17
t-53.5 54q-18 32 -25 66t-10 67q-1 17 -1 33v31v411h38v-473q2 -31 6.5 -62t18.5 -59q28 -57 98 -60q31 0 57.5 14.5t42.5 44.5q14 28 20.5 59t8.5 63q1 16 1 31.5v30.5v411h23v-411v-31t-1 -33q-2 -32 -8 -66t-23 -66q-16 -30 -45 -50l-8.5 -8.5l-11.5 -12l-12 -12.5z" />
    <glyph glyph-name="Utilde" unicode="&#x168;" horiz-adv-x="406" 
d="M359 666v-411v-31t-1 -33q-2 -32 -8 -66t-23 -66q-17 -33 -48.5 -52.5t-72.5 -19.5q-38 0 -71.5 17t-53.5 54q-18 32 -25 66t-10 67q-1 17 -1 33v31v411h38v-473q2 -31 6.5 -62t18.5 -59q28 -57 98 -60q31 0 57.5 14.5t42.5 44.5q14 28 20.5 59t8.5 63q1 16 1 31.5v30.5
v411h23zM156 751q-12 -1 -22.5 -7t-18.5 -14l-18 18q11 8 20.5 17t22.5 14q15 6 30.5 5t30.5 -6q13 -5 25.5 -11.5t26.5 -8.5q12 -1 22 4.5t18 13.5l16 -19l-19 -15.5t-21 -12.5q-14 -5 -29 -3t-29 7t-27 12t-28 6z" />
    <glyph glyph-name="Umacron" unicode="&#x16a;" horiz-adv-x="406" 
d="M359 666v-411v-31t-1 -33q-2 -32 -8 -66t-23 -66q-17 -33 -48.5 -52.5t-72.5 -19.5q-38 0 -71.5 17t-53.5 54q-18 32 -25 66t-10 67q-1 17 -1 33v31v411h38v-473q2 -31 6.5 -62t18.5 -59q28 -57 98 -60q31 0 57.5 14.5t42.5 44.5q14 28 20.5 59t8.5 63q1 16 1 31.5v30.5
v411h23zM300 741h-195v25h195v-25z" />
    <glyph glyph-name="amacron" unicode="&#x101;" horiz-adv-x="368" 
d="M310 0q-11 0 -18 7t-7 18v51q-6 -12 -13.5 -23.5t-16.5 -21.5q-14 -16 -34 -27.5t-43 -14.5q-24 -4 -48.5 0.5t-44.5 18.5q-21 14 -35.5 35t-22.5 45q-14 50 0 98q7 23 19 43.5t26 37.5q23 26 50.5 46t56.5 38l57.5 34t48.5 46q0 19 -0.5 33.5t-6.5 33.5q-10 31 -36 49
t-61 18q-26 0 -49 -11.5t-37 -34.5q-6 -11 -13 -32t-6 -41l-36 10q0 20 7 41.5t21 39.5q19 26 48 39.5t64 13.5q42 0 77 -19.5t53 -60.5q8 -17 10.5 -36t2.5 -46v-45.5v-74.5v-89.5v-90.5v-77.5v-50.5h-13zM272 105q5 13 8 26t5 27v236q-20 -19 -43.5 -33l-45.5 -28
q-28 -17 -54.5 -37.5t-46.5 -46.5q-11 -16 -19.5 -34t-13.5 -38q-4 -20 -4 -39.5t5 -39.5t14.5 -37t24.5 -29t34 -16.5t38 -1.5q19 2 35 11t29 22q12 13 20 28t14 30zM281 654h-195v25h195v-25z" />
    <glyph glyph-name="iogonek" unicode="&#x12f;" 
d="M35 -33q-14 -14 -25.5 -29.5t-16.5 -34.5q-4 -19 3 -36q3 -6 10 -9.5t14 -1.5q6 2 11.5 6l10.5 8t9 9l18 -9q-8 -12 -17 -22.5t-23 -15.5q-15 -7 -32.5 -3.5t-28.5 17.5q-14 18 -14 39t11 41q9 16 24.5 31.5l24.5 24.5q7 7 16.5 15t14.5 13v568h37v-578h-15
q-9 -8 -18.5 -18t-13.5 -15zM64 623q-11 0 -19 7.5t-8 18.5t8 18.5t19 7.5t18 -7.5t7 -18.5t-7 -18.5t-18 -7.5z" />
    <glyph glyph-name="edotaccent" unicode="&#x117;" horiz-adv-x="354" 
d="M289 555q18 -19 30.5 -45t14.5 -52l-239 -356q8 -18 18.5 -33.5t24.5 -26.5q14 -12 30.5 -18t31.5 -6q16 -1 29 4.5t24 13.5q19 14 32 34t24 40l13 -4q-7 -26 -18.5 -49t-30.5 -43q-13 -14 -31 -22t-41 -10q-20 -1 -43.5 7t-43.5 24q-19 16 -32.5 36.5t-23.5 43.5
q-20 48 -25 98t-3 101t11.5 101.5t32.5 97.5q11 23 25.5 42t34.5 33t42.5 19.5t42.5 3.5q23 -2 40.5 -11.5t29.5 -22.5zM297 448q-3 23 -9 45.5t-22 42.5q-7 10 -19 18t-29 10t-35 -3t-34 -16q-30 -22 -51 -66q-20 -43 -26.5 -90.5t-7.5 -95.5q-1 -40 3 -81.5t17 -80.5z
M209 636q-11 0 -18.5 7.5t-7.5 18.5t7.5 18.5t18.5 7.5t18.5 -7.5t7.5 -18.5t-7.5 -18.5t-18.5 -7.5z" />
    <glyph glyph-name="imacron" unicode="&#x12b;" 
d="M45 0v578h37v-578h-37zM162 654h-195v25h195v-25z" />
    <glyph glyph-name="omacron" unicode="&#x14d;" horiz-adv-x="399" 
d="M283 557q27 -24 44 -56t26.5 -68t12.5 -73t3 -71q0 -35 -3 -72t-12 -72.5t-26 -67.5t-45 -56q-24 -20 -55 -29q-33 -9 -65.5 2.5t-56.5 37.5q-40 44 -56 102.5t-19 116.5q-2 46 1.5 91.5t14.5 90.5q8 31 22.5 61t36.5 53q12 13 26 23t31 15q32 11 63 2.5t57 -30.5z
M331 289q0 31 -3 61.5t-8 60.5q-7 34 -19 68t-37 58q-39 39 -93 24q-24 -9 -43 -33q-17 -21 -28 -46t-17 -52t-9 -55t-4 -54q-2 -30 -1 -60.5t6 -60.5q5 -39 15.5 -79t36.5 -71q17 -20 41.5 -31t53.5 -3q22 7 42 25q25 26 37.5 60t18.5 68q5 30 8 60t3 60zM297 654h-195v25
h195v-25z" />
    <glyph glyph-name="uogonek" unicode="&#x173;" horiz-adv-x="402" 
d="M303 -33q-14 -14 -25.5 -29.5t-16.5 -34.5q-4 -19 3 -36q3 -6 10 -9.5t14 -1.5q6 2 11.5 6l10.5 8t9 9l18 -9q-8 -12 -17 -22.5t-23 -15.5q-15 -7 -32.5 -3.5t-28.5 17.5q-14 18 -14 39t11 41q9 16 24.5 31.5l24.5 24.5l32 29q-4 5 -4 15v60q-9 -15 -19 -29.5t-23 -28.5
q-11 -11 -25 -21.5t-33 -15.5q-41 -11 -79 8q-20 10 -34 26.5t-24 36.5q-16 35 -21 72t-5 75t0.5 76t0.5 76v217h38v-350q1 -38 3 -77t16 -76q6 -17 15.5 -30.5t23.5 -21.5q29 -16 60 -8q14 4 26 12t21 18q20 20 34 43.5t25 48.5v441h38v-578h-13q-9 -8 -18.5 -18t-13.5 -15
z" />
    </font>
</defs>
</svg>
